<svg xmlns="http://www.w3.org/2000/svg" xmlns:xlink="http://www.w3.org/1999/xlink" width="70" height="70" viewBox="0 0 70 70">
  <defs>
    <clipPath id="clip-path">
      <rect id="Rectangle_41" data-name="Rectangle 41" width="70" height="70" transform="translate(1098 23)" fill="#eb545c" stroke="#707070" stroke-width="1"/>
    </clipPath>
  </defs>
  <g id="icon-nav-3" transform="translate(-1098 -23)" clip-path="url(#clip-path)">
    <g id="restaurant_2_" data-name="restaurant (2)" transform="translate(1098 23)">
      <g id="Group_44" data-name="Group 44">
        <g id="Group_43" data-name="Group 43">
          <path id="Path_131" data-name="Path 131" d="M35,15.586A19.414,19.414,0,1,0,54.414,35,19.436,19.436,0,0,0,35,15.586ZM35,51.68A16.68,16.68,0,1,1,51.68,35,16.7,16.7,0,0,1,35,51.68Z" fill="#eb545c"/>
        </g>
      </g>
      <g id="Group_46" data-name="Group 46">
        <g id="Group_45" data-name="Group 45">
          <path id="Path_132" data-name="Path 132" d="M69.274.16a1.368,1.368,0,0,0-1.407.075A24.324,24.324,0,0,0,57.148,20.413v17.74a7.077,7.077,0,0,0,2.086,5.037L61.8,45.752V65.9a4.1,4.1,0,0,0,8.2,0V1.367A1.367,1.367,0,0,0,69.274.16ZM67.266,65.9a1.367,1.367,0,0,1-2.734,0V45.186a1.368,1.368,0,0,0-.4-.967l-2.963-2.963a4.36,4.36,0,0,1-1.285-3.1V20.413A21.588,21.588,0,0,1,67.266,4.142Z" fill="#eb545c"/>
        </g>
      </g>
      <g id="Group_48" data-name="Group 48">
        <g id="Group_47" data-name="Group 47">
          <path id="Path_133" data-name="Path 133" d="M31.863,24.157a1.368,1.368,0,0,0-1.794-.721A12.556,12.556,0,0,0,22.432,35a1.367,1.367,0,0,0,2.734,0,9.825,9.825,0,0,1,5.976-9.048A1.367,1.367,0,0,0,31.863,24.157Z" fill="#eb545c"/>
        </g>
      </g>
      <g id="Group_50" data-name="Group 50">
        <g id="Group_49" data-name="Group 49">
          <path id="Path_134" data-name="Path 134" d="M35,22.432h-.069a1.367,1.367,0,0,0,.009,2.734H35a1.367,1.367,0,1,0,0-2.734Z" fill="#eb545c"/>
        </g>
      </g>
      <g id="Group_52" data-name="Group 52">
        <g id="Group_51" data-name="Group 51">
          <path id="Path_135" data-name="Path 135" d="M53.952,17.019A26.143,26.143,0,0,0,23.16,11.706,1.367,1.367,0,1,0,24.4,14.142,23.408,23.408,0,0,1,51.969,18.9a1.367,1.367,0,0,0,1.983-1.882Z" fill="#eb545c"/>
        </g>
      </g>
      <g id="Group_54" data-name="Group 54">
        <g id="Group_53" data-name="Group 53">
          <path id="Path_136" data-name="Path 136" d="M55.28,49.271a1.367,1.367,0,0,0-1.92.225A23.4,23.4,0,0,1,22.353,54.68a1.367,1.367,0,1,0-1.481,2.3A26.134,26.134,0,0,0,55.5,51.191,1.367,1.367,0,0,0,55.28,49.271Z" fill="#eb545c"/>
        </g>
      </g>
      <g id="Group_56" data-name="Group 56">
        <g id="Group_55" data-name="Group 55">
          <path id="Path_137" data-name="Path 137" d="M18.588,51.669l-.02-.023-.022-.027a1.367,1.367,0,1,0-2.092,1.761l.013.016h0l.045.055a1.367,1.367,0,1,0,2.075-1.781Z" fill="#eb545c"/>
        </g>
      </g>
      <g id="Group_58" data-name="Group 58">
        <g id="Group_57" data-name="Group 57">
          <path id="Path_138" data-name="Path 138" d="M16.953,0a1.367,1.367,0,0,0-1.367,1.367V16.133H13.124c0-.008,0-.015,0-.023V1.367a1.367,1.367,0,0,0-2.734,0V16.11c0,.008,0,.015,0,.023H7.929c0-.008,0-.015,0-.023V1.367a1.367,1.367,0,0,0-2.734,0V16.11c0,.008,0,.015,0,.023H2.734V1.367A1.367,1.367,0,0,0,0,1.367v16.68a8.42,8.42,0,0,0,5.059,7.689V65.9a4.1,4.1,0,0,0,8.2,0V25.736a8.42,8.42,0,0,0,5.059-7.689V1.367A1.367,1.367,0,0,0,16.953,0ZM11.515,23.464a1.367,1.367,0,0,0-.988,1.313V65.9a1.367,1.367,0,0,1-2.734,0V24.777a1.367,1.367,0,0,0-.988-1.313,5.668,5.668,0,0,1-4.009-4.6H15.524A5.668,5.668,0,0,1,11.515,23.464Z" fill="#eb545c"/>
        </g>
      </g>
    </g>
  </g>
</svg>
