<svg xmlns="http://www.w3.org/2000/svg" xmlns:xlink="http://www.w3.org/1999/xlink" width="35" height="35" viewBox="0 0 35 35">
  <defs>
    <clipPath id="clip-path">
      <rect id="Rectangle_3143" data-name="Rectangle 3143" width="35" height="35" transform="translate(49 408)" fill="#3b5998" stroke="#707070" stroke-width="1"/>
    </clipPath>
  </defs>
  <g id="icon-fb" transform="translate(-49 -408)" clip-path="url(#clip-path)">
    <path id="facebook_5_" data-name="facebook (5)" d="M12.31,35H6.7a1.7,1.7,0,0,1-1.7-1.7V20.66H1.737a1.7,1.7,0,0,1-1.7-1.7V13.545a1.7,1.7,0,0,1,1.7-1.7h3.27V9.134A9.237,9.237,0,0,1,7.449,2.517,8.8,8.8,0,0,1,13.935,0L18.21.007A1.7,1.7,0,0,1,19.9,1.7v5.03a1.7,1.7,0,0,1-1.7,1.7H15.329c-.878,0-1.1.176-1.149.23-.079.089-.173.342-.173,1.041v2.143h3.983a1.726,1.726,0,0,1,.84.213,1.7,1.7,0,0,1,.873,1.485l0,5.417a1.7,1.7,0,0,1-1.7,1.7h-4V33.3a1.7,1.7,0,0,1-1.7,1.7ZM7.059,32.948h4.9V19.741a1.135,1.135,0,0,1,1.134-1.134H17.65l0-4.709H13.089a1.135,1.135,0,0,1-1.133-1.134V9.7a3.494,3.494,0,0,1,.687-2.4,3.478,3.478,0,0,1,2.687-.924h2.524V2.058l-3.919-.006c-4.24,0-6.875,2.714-6.875,7.083v3.631A1.135,1.135,0,0,1,5.925,13.9H2.091v4.709H5.925a1.135,1.135,0,0,1,1.133,1.134ZM18.206,2.059h0Zm0,0" transform="translate(56.528 408)" fill="#3b5998"/>
  </g>
</svg>
