<svg xmlns="http://www.w3.org/2000/svg" xmlns:xlink="http://www.w3.org/1999/xlink" width="70" height="70" viewBox="0 0 70 70">
  <defs>
    <clipPath id="clip-path">
      <rect id="Rectangle_40" data-name="Rectangle 40" width="70" height="70" transform="translate(875 23)" fill="#6285ef" stroke="#707070" stroke-width="1"/>
    </clipPath>
  </defs>
  <g id="icon-nav-2" transform="translate(-875 -23)" clip-path="url(#clip-path)">
    <g id="icon_mainNav_07" transform="translate(875 23)">
      <g id="Group_26" data-name="Group 26">
        <g id="Group_25" data-name="Group 25">
          <path id="Path_116" data-name="Path 116" d="M30.519,47.447c.039,0,.077,0,.115,0A1.367,1.367,0,0,0,32,46.2l0-.019a1.367,1.367,0,1,0-2.724-.228l0,.019A1.367,1.367,0,0,0,30.519,47.447Z" fill="#6285ef"/>
          <path id="Path_117" data-name="Path 117" d="M47.992,68.517c-.407-4.8-.819-9.581-1.229-14.3,0,0,0-.009,0-.013q-.414-4.761-.822-9.422c-.653-7.474-1.328-15.2-1.988-22.976l-.065-.763-.049-.584h0a1.367,1.367,0,0,0,.764-2.5,11.64,11.64,0,0,0-1.459-.831L42.779,12.7a1.367,1.367,0,0,0,1.075-2.441,10.523,10.523,0,0,0-1.413-.876A7.542,7.542,0,0,0,40.123,5.4a7.725,7.725,0,0,0-3.842-1.878V1.367a1.367,1.367,0,0,0-2.734,0V3.521a7.692,7.692,0,0,0-6.178,5.947,10.524,10.524,0,0,0-1.254.792,1.367,1.367,0,0,0,.814,2.467,1.388,1.388,0,0,0,.16-.01L26.8,17.14a11.626,11.626,0,0,0-1.438.821,1.367,1.367,0,0,0,.624,2.495q-.053.626-.106,1.251l-.01.116c-.54,6.369-1.09,12.695-1.63,18.876a.069.069,0,0,0,0,.008q-.181,2.072-.36,4.123-.407,4.659-.823,9.435v.011c-.408,4.694-.819,9.454-1.224,14.243,0,.021,0,.041,0,.062s0,.036,0,.053,0,.007,0,.01c0,.029,0,.057,0,.086s0,.035,0,.052.008.056.013.083.005.035.009.052.012.05.019.075.01.038.015.057.016.043.024.064.015.041.023.061.018.038.027.057.02.042.031.063.021.034.032.052.024.041.037.06.025.034.038.051.027.036.041.053.03.034.046.051l.042.045c.018.018.036.033.055.05s.028.026.042.038.041.031.062.046l.044.032c.021.014.043.027.065.039s.032.02.049.029.042.02.063.03l.058.027.06.022c.022.008.045.017.068.024l.056.014c.025.006.051.013.077.018l.057.008c.027,0,.053.008.08.011l.011,0c.039,0,.077.005.115.005H46.629c.038,0,.076,0,.115-.005l.011,0c.027,0,.053-.006.08-.011l.056-.008.077-.018.056-.014c.023-.007.045-.016.068-.024l.06-.022c.02-.008.039-.018.058-.027s.043-.019.063-.03.033-.019.05-.029.043-.025.064-.039l.044-.032c.021-.015.042-.03.062-.046l.043-.038c.018-.016.037-.032.054-.05s.029-.031.043-.046.031-.033.045-.05.028-.036.042-.055.025-.032.037-.05.026-.041.038-.062.021-.033.031-.05.022-.043.032-.065.018-.036.026-.054.017-.043.025-.064.016-.04.022-.061.011-.041.017-.061.013-.046.018-.07.006-.039.01-.058.009-.051.012-.077,0-.039,0-.059,0-.052,0-.078c0,0,0-.008,0-.011,0-.022,0-.042,0-.062S47.993,68.535,47.992,68.517ZM40.318,16.136a21.042,21.042,0,0,0-4.038-.554V10.591a13.845,13.845,0,0,1,3.637.68Zm-5.4-10a5.021,5.021,0,0,1,4.048,2.056,19.845,19.845,0,0,0-3.9-.371,1.342,1.342,0,0,0-.151-.009,1.4,1.4,0,0,0-.165.011,19.514,19.514,0,0,0-3.914.406A5.012,5.012,0,0,1,34.913,6.132Zm-4.995,5.186a13.539,13.539,0,0,1,3.628-.717v4.986h0a20.86,20.86,0,0,0-3.939.558ZM28.6,22.053l.01-.116q.114-1.342.228-2.7a17.4,17.4,0,0,1,6.133-.956H35a17.619,17.619,0,0,1,5.985.9c.059.7.118,1.4.176,2.09l.064.763q.2,2.393.408,4.778a35.511,35.511,0,0,0-6.628-.578H34.96a35.352,35.352,0,0,0-6.771.606Q28.395,24.455,28.6,22.053Zm-.654,7.64a31.4,31.4,0,0,1,7.02-.719H35a31.629,31.629,0,0,1,6.876.687q.4,4.665.8,9.26a34.035,34.035,0,0,0-7.675-.8h-.048a33.855,33.855,0,0,0-7.82.836Q27.541,34.367,27.945,29.693ZM26.607,45.067q.14-1.6.282-3.221a29.737,29.737,0,0,1,8.071-.992h.048a29.973,29.973,0,0,1,7.927.951q.141,1.616.281,3.218.323,3.7.652,7.47a38.37,38.37,0,0,0-8.857-.946h-.055q-1.776,0-3.434.127l.123-1.419a1.367,1.367,0,1,0-2.724-.235l-.169,1.963q-1.455.218-2.8.545Q26.283,48.763,26.607,45.067Zm-1.921,22.2Q25.193,61.3,25.7,55.421a26.823,26.823,0,0,1,2.805-.631l-.477,5.524a1.367,1.367,0,0,0,1.245,1.48c.04,0,.08.005.119.005a1.367,1.367,0,0,0,1.361-1.25l.528-6.113q1.759-.153,3.677-.155H35a34.267,34.267,0,0,1,9.115,1.1c.341,3.927.683,7.9,1.022,11.884H24.686Z" fill="#6285ef"/>
          <path id="Path_118" data-name="Path 118" d="M14.807,10.337l7.389,1.51a1.367,1.367,0,0,0,.547-2.679l-7.389-1.51a1.367,1.367,0,1,0-.547,2.679Z" fill="#6285ef"/>
          <path id="Path_119" data-name="Path 119" d="M22.743,18.014a1.367,1.367,0,0,0-1.782-.75L13.283,20.4a1.367,1.367,0,1,0,1.032,2.532L21.993,19.8A1.367,1.367,0,0,0,22.743,18.014Z" fill="#6285ef"/>
          <path id="Path_120" data-name="Path 120" d="M47.529,11.875a1.36,1.36,0,0,0,.275-.028l3.391-.693a1.367,1.367,0,1,0-.547-2.679l-3.391.693a1.367,1.367,0,0,0,.272,2.707Z" fill="#6285ef"/>
          <path id="Path_121" data-name="Path 121" d="M54.859,10.378a1.377,1.377,0,0,0,.277-.028l.059-.012a1.367,1.367,0,0,0-.55-2.679l-.059.012a1.367,1.367,0,0,0,.273,2.707Z" fill="#6285ef"/>
          <path id="Path_122" data-name="Path 122" d="M56.717,20.4l-7.678-3.131A1.367,1.367,0,0,0,48.007,19.8l7.678,3.131A1.367,1.367,0,1,0,56.717,20.4Z" fill="#6285ef"/>
        </g>
      </g>
    </g>
  </g>
</svg>
