<svg xmlns="http://www.w3.org/2000/svg" xmlns:xlink="http://www.w3.org/1999/xlink" width="70" height="70" viewBox="0 0 70 70">
  <defs>
    <clipPath id="clip-path">
      <rect id="Rectangle_43" data-name="Rectangle 43" width="70" height="70" transform="translate(1518 23)" fill="#73b150" stroke="#707070" stroke-width="1"/>
    </clipPath>
  </defs>
  <g id="icon-nav-5" transform="translate(-1518 -23)" clip-path="url(#clip-path)">
    <g id="bus_3_" data-name="bus (3)" transform="translate(1518 23)">
      <g id="Group_34" data-name="Group 34">
        <g id="Group_33" data-name="Group 33">
          <path id="Path_126" data-name="Path 126" d="M36.183.4a1.367,1.367,0,0,0-2.334.967A1.367,1.367,0,1,0,36.183.4Z" fill="#73b150"/>
        </g>
      </g>
      <g id="Group_36" data-name="Group 36">
        <g id="Group_35" data-name="Group 35">
          <path id="Path_127" data-name="Path 127" d="M67.266,13.213V9.364A3.765,3.765,0,0,0,63.5,5.6H61.131A6.846,6.846,0,0,0,54.408,0H41.061a1.367,1.367,0,0,0,0,2.734H54.408a4.106,4.106,0,0,1,4.1,4.1v4.1H45.391v-4.1a1.367,1.367,0,0,0-1.367-1.367H25.977a1.367,1.367,0,0,0-1.367,1.367v4.1H11.5v-4.1a4.106,4.106,0,0,1,4.1-4.1H29.326a1.367,1.367,0,0,0,0-2.734H15.6A6.846,6.846,0,0,0,8.881,5.6H6.5A3.765,3.765,0,0,0,2.734,9.364v3.849A4.108,4.108,0,0,0,0,17.079v5.109a4.1,4.1,0,0,0,8.2,0V17.079a4.108,4.108,0,0,0-2.734-3.866V9.364A1.028,1.028,0,0,1,6.5,8.338H8.768V53.73a6.844,6.844,0,0,0,3.97,6.2V64.8a5.2,5.2,0,1,0,10.391,0V60.566H46.906V64.8a5.2,5.2,0,1,0,10.391,0v-4.88a6.844,6.844,0,0,0,3.948-6.194V8.338H63.5a1.028,1.028,0,0,1,1.026,1.026v3.849A4.108,4.108,0,0,0,61.8,17.079v5.109a4.1,4.1,0,1,0,8.2,0V17.079A4.108,4.108,0,0,0,67.266,13.213Zm-61.8,8.976a1.367,1.367,0,0,1-2.734,0V17.079a1.367,1.367,0,0,1,2.734,0Zm39.19-8.516L40.4,17.931a1.367,1.367,0,1,0,1.933,1.934l6.193-6.193H56.57l-20.2,20.2v-20.2ZM27.344,8.2H42.656v2.734H27.344Zm.449,23.871a1.368,1.368,0,0,0-1.934,0l-8.5,8.5h-.876l-4.228-4.228L33.633,14.967V40.572H21.228l6.565-6.565A1.367,1.367,0,0,0,27.792,32.074ZM11.5,13.672H31.061L11.5,33.231ZM20.394,64.8a2.461,2.461,0,1,1-4.922,0V60.566h4.922Zm34.168,0a2.461,2.461,0,1,1-4.922,0V60.566h4.922ZM58.51,53.73a4.106,4.106,0,0,1-4.1,4.1H15.6a4.106,4.106,0,0,1-4.1-4.1V39.458l3.449,3.449a1.367,1.367,0,0,0,.967.4H54.082a1.367,1.367,0,0,0,.967-.4l3.461-3.461Zm0-18.152-4.994,4.994H36.368V37.741L58.51,15.6Zm8.755-13.39a1.367,1.367,0,0,1-2.734,0V17.079a1.367,1.367,0,0,1,2.734,0Z" fill="#73b150"/>
        </g>
      </g>
      <g id="Group_38" data-name="Group 38">
        <g id="Group_37" data-name="Group 37">
          <path id="Path_128" data-name="Path 128" d="M19.147,46.468a4.1,4.1,0,1,0,4.1,4.1A4.106,4.106,0,0,0,19.147,46.468Zm0,5.469a1.367,1.367,0,1,1,1.367-1.367A1.369,1.369,0,0,1,19.147,51.937Z" fill="#73b150"/>
        </g>
      </g>
      <g id="Group_40" data-name="Group 40">
        <g id="Group_39" data-name="Group 39">
          <path id="Path_129" data-name="Path 129" d="M50.853,46.468a4.1,4.1,0,1,0,4.1,4.1A4.106,4.106,0,0,0,50.853,46.468Zm0,5.469a1.367,1.367,0,1,1,1.367-1.367A1.369,1.369,0,0,1,50.853,51.937Z" fill="#73b150"/>
        </g>
      </g>
      <g id="Group_42" data-name="Group 42">
        <g id="Group_41" data-name="Group 41">
          <path id="Path_130" data-name="Path 130" d="M42.121,46.468H27.9a1.367,1.367,0,0,0-1.367,1.367V53.3A1.367,1.367,0,0,0,27.9,54.671H42.121A1.367,1.367,0,0,0,43.488,53.3V47.835A1.367,1.367,0,0,0,42.121,46.468Zm-1.367,5.469H29.269V49.2H40.753Z" fill="#73b150"/>
        </g>
      </g>
    </g>
  </g>
</svg>
