<svg xmlns="http://www.w3.org/2000/svg" xmlns:xlink="http://www.w3.org/1999/xlink" width="38" height="38" viewBox="0 0 38 38">
  <defs>
    <clipPath id="clip-path">
      <rect id="Rectangle_4" data-name="Rectangle 4" width="38" height="38" transform="translate(1639 58)" fill="#fff" stroke="#707070" stroke-width="1"/>
    </clipPath>
    <filter id="Path_86" x="5.172" y="6.515" width="29.479" height="30.196" filterUnits="userSpaceOnUse">
      <feOffset dy="3" input="SourceAlpha"/>
      <feGaussianBlur stdDeviation="3" result="blur"/>
      <feFlood flood-opacity="0.161"/>
      <feComposite operator="in" in2="blur"/>
      <feComposite in="SourceGraphic"/>
    </filter>
    <filter id="Path_87" x="-9" y="-1.391" width="56" height="46.782" filterUnits="userSpaceOnUse">
      <feOffset dy="3" input="SourceAlpha"/>
      <feGaussianBlur stdDeviation="3" result="blur-2"/>
      <feFlood flood-opacity="0.161"/>
      <feComposite operator="in" in2="blur-2"/>
      <feComposite in="SourceGraphic"/>
    </filter>
  </defs>
  <g id="icon-YT" transform="translate(-1639 -58)" clip-path="url(#clip-path)">
    <g id="logotype" transform="translate(1639 62.609)">
      <g transform="matrix(1, 0, 0, 1, 0, -4.61)" filter="url(#Path_86)">
        <path id="Path_86-2" data-name="Path 86" d="M24.849,12.691,16.454,8.1A1.542,1.542,0,0,0,14.172,9.45v9.108a1.539,1.539,0,0,0,2.272,1.358l8.4-4.514a1.542,1.542,0,0,0,.01-2.711ZM16.4,17.412V10.605l6.274,3.433Zm0,0" transform="translate(0 4.61)" fill="#fff"/>
      </g>
      <g transform="matrix(1, 0, 0, 1, 0, -4.61)" filter="url(#Path_87)">
        <path id="Path_87-2" data-name="Path 87" d="M37.72,6.793l0-.017c-.032-.306-.353-3.026-1.675-4.41a6.183,6.183,0,0,0-4.1-1.92L31.759.423,31.693.416C26.669.05,19.082,0,19.006,0h-.013C18.917,0,11.33.05,6.262.416L6.195.423,6.017.444a6.028,6.028,0,0,0-4.072,1.98A9.107,9.107,0,0,0,.284,6.754l0,.039C.268,6.92,0,9.95,0,12.992v2.843c0,3.042.268,6.072.279,6.2l0,.019c.032.3.352,2.972,1.669,4.356A6.31,6.31,0,0,0,6.183,28.3c.155.018.288.033.378.049l.088.012c2.9.276,11.995.412,12.381.417h.023c.076,0,7.662-.05,12.686-.415l.066-.007c.063-.008.135-.016.213-.024A5.888,5.888,0,0,0,36.055,26.4a9.106,9.106,0,0,0,1.661-4.33l0-.039c.011-.128.28-3.157.28-6.2V12.992c0-3.042-.268-6.071-.28-6.2Zm-1.947,9.042c0,2.815-.246,5.715-.269,5.981A7.07,7.07,0,0,1,34.411,24.9a3.662,3.662,0,0,1-2.628,1.219l-.237.027c-4.859.351-12.159.405-12.5.407-.377-.006-9.338-.143-12.151-.4-.144-.023-.3-.041-.464-.06A4.164,4.164,0,0,1,3.588,24.9l-.021-.022A6.414,6.414,0,0,1,2.5,21.825c-.018-.2-.27-3.135-.27-5.99V12.992c0-2.812.245-5.708.269-5.98A6.926,6.926,0,0,1,3.588,3.926a3.842,3.842,0,0,1,2.684-1.27l.181-.022c4.93-.353,12.282-.406,12.546-.408s7.614.055,12.5.408l.2.023a3.988,3.988,0,0,1,2.727,1.235l.009.01A6.518,6.518,0,0,1,35.5,7c.017.19.27,3.13.27,5.991Zm0,0" transform="translate(0 4.61)" fill="#fff"/>
      </g>
    </g>
  </g>
</svg>
