<svg xmlns="http://www.w3.org/2000/svg" xmlns:xlink="http://www.w3.org/1999/xlink" width="50" height="50" viewBox="0 0 50 50">
  <defs>
    <clipPath id="clip-path">
      <rect id="Rectangle_83" data-name="Rectangle 83" width="50" height="50" transform="translate(360 718)" fill="#73b150" stroke="#707070" stroke-width="1"/>
    </clipPath>
  </defs>
  <g id="icon-car" transform="translate(-360 -718)" clip-path="url(#clip-path)">
    <g id="car_3_" data-name="car (3)" transform="translate(360 718)">
      <g id="Group_4067" data-name="Group 4067">
        <g id="Group_4066" data-name="Group 4066">
          <path id="Path_238" data-name="Path 238" d="M48,17.691a.973.973,0,0,0,.3-.7V13.778A3.079,3.079,0,0,0,45.223,10.7H43.211L41.817,5.029A6.591,6.591,0,0,0,35.4,0H14.6A6.591,6.591,0,0,0,8.183,5.029L6.789,10.7H4.776A3.079,3.079,0,0,0,1.7,13.778v3.214a.973.973,0,0,0,.3.7,6.233,6.233,0,0,0-2,4.574v9.863a.977.977,0,0,0,.977.977h4.3v2.148a4.1,4.1,0,0,0,8.2,0V33.105H24.023v2.8a.977.977,0,0,0,1.953,0v-2.8H36.523v2.148a4.1,4.1,0,0,0,8.2,0V33.105h4.3A.977.977,0,0,0,50,32.129V22.265A6.234,6.234,0,0,0,48,17.691Zm-2.779-5.035a1.123,1.123,0,0,1,1.122,1.122v2.237h-1.83l-.825-3.36h1.533ZM10.08,5.5A4.641,4.641,0,0,1,14.6,1.953H35.4A4.642,4.642,0,0,1,39.921,5.5L42.5,16.016H40.493L38.024,5.961A2.693,2.693,0,0,0,35.4,3.906H14.6a2.692,2.692,0,0,0-2.621,2.055L9.507,16.015H7.5Zm12.41,4.645a.977.977,0,0,0-1.381,0L15.29,15.958c-.019.019-.036.038-.052.058h-3.72l2.355-9.589a.744.744,0,0,1,.724-.567H31.2l-5.95,5.95a.977.977,0,1,0,1.381,1.381l7.331-7.331H35.4a.744.744,0,0,1,.724.568l2.355,9.589H17.995l4.494-4.494A.977.977,0,0,0,22.489,10.14ZM3.654,13.778a1.123,1.123,0,0,1,1.122-1.122H6.309l-.825,3.36H3.654Zm7.869,21.476a2.148,2.148,0,0,1-4.3,0V33.105h4.3Zm31.25,0a2.148,2.148,0,0,1-4.3,0V33.105h4.3Zm5.273-4.1H1.953V22.265a4.3,4.3,0,0,1,4.3-4.3h37.5a4.3,4.3,0,0,1,4.295,4.3v8.887Z" fill="#73b150"/>
        </g>
      </g>
      <g id="Group_4069" data-name="Group 4069">
        <g id="Group_4068" data-name="Group 4068">
          <path id="Path_239" data-name="Path 239" d="M32.812,20.77H17.188a.977.977,0,0,0-.977.977v4.688a.977.977,0,0,0,.977.977H32.812a.977.977,0,0,0,.977-.977V21.747A.977.977,0,0,0,32.812,20.77Zm-.977,4.688H18.164V22.723H31.836Z" fill="#73b150"/>
        </g>
      </g>
      <g id="Group_4071" data-name="Group 4071">
        <g id="Group_4070" data-name="Group 4070">
          <path id="Path_240" data-name="Path 240" d="M24.908,7.721a.977.977,0,1,0,.286.691A.983.983,0,0,0,24.908,7.721Z" fill="#73b150"/>
        </g>
      </g>
      <g id="Group_4073" data-name="Group 4073">
        <g id="Group_4072" data-name="Group 4072">
          <path id="Path_241" data-name="Path 241" d="M8.984,20.849A3.711,3.711,0,1,0,12.7,24.56,3.715,3.715,0,0,0,8.984,20.849Zm0,5.469a1.758,1.758,0,1,1,1.758-1.758A1.76,1.76,0,0,1,8.984,26.318Z" fill="#73b150"/>
        </g>
      </g>
      <g id="Group_4075" data-name="Group 4075">
        <g id="Group_4074" data-name="Group 4074">
          <path id="Path_242" data-name="Path 242" d="M41.015,20.849a3.711,3.711,0,1,0,3.711,3.711A3.715,3.715,0,0,0,41.015,20.849Zm0,5.469a1.758,1.758,0,1,1,1.758-1.758A1.76,1.76,0,0,1,41.015,26.318Z" fill="#73b150"/>
        </g>
      </g>
      <g id="Group_4077" data-name="Group 4077">
        <g id="Group_4076" data-name="Group 4076">
          <path id="Path_243" data-name="Path 243" d="M4.814,41.3a.977.977,0,0,0-1.309.44L.1,48.588a.977.977,0,1,0,1.749.869l3.4-6.844A.977.977,0,0,0,4.814,41.3Z" fill="#73b150"/>
        </g>
      </g>
      <g id="Group_4079" data-name="Group 4079">
        <g id="Group_4078" data-name="Group 4078">
          <path id="Path_244" data-name="Path 244" d="M49.9,48.588l-3.4-6.844a.977.977,0,1,0-1.749.869l3.4,6.844a.977.977,0,1,0,1.749-.869Z" fill="#73b150"/>
        </g>
      </g>
      <g id="Group_4081" data-name="Group 4081">
        <g id="Group_4080" data-name="Group 4080">
          <path id="Path_245" data-name="Path 245" d="M25,45.215a.977.977,0,0,0-.977.977v2.832a.977.977,0,1,0,1.953,0V46.191A.977.977,0,0,0,25,45.215Z" fill="#73b150"/>
        </g>
      </g>
      <g id="Group_4083" data-name="Group 4083">
        <g id="Group_4082" data-name="Group 4082">
          <path id="Path_246" data-name="Path 246" d="M25,38.851a.977.977,0,0,0-.977.977v2.352a.977.977,0,1,0,1.953,0V39.827A.977.977,0,0,0,25,38.851Z" fill="#73b150"/>
        </g>
      </g>
    </g>
  </g>
</svg>
