<svg xmlns="http://www.w3.org/2000/svg" xmlns:xlink="http://www.w3.org/1999/xlink" width="30" height="30" viewBox="0 0 30 30">
  <defs>
    <clipPath id="clip-path">
      <rect id="Rectangle_55" data-name="Rectangle 55" width="30" height="30" transform="translate(983 1864)" fill="#e2ab12" stroke="#707070" stroke-width="1"/>
    </clipPath>
  </defs>
  <g id="icon-ticket" transform="translate(-983 -1864)" clip-path="url(#clip-path)">
    <g id="Layer_2" data-name="Layer 2" transform="translate(982 1863)">
      <path id="Path_230" data-name="Path 230" d="M15.94,14.93a1.53,1.53,0,0,1-1.42-1.52A1.45,1.45,0,0,1,17,12.36a1.71,1.71,0,0,1,.33.48,1,1,0,0,0,1.87-.71,3.59,3.59,0,0,0-.79-1.19A3.48,3.48,0,0,0,17,10.1V8.92a1,1,0,0,0-2,0v1.15a3.27,3.27,0,0,0-2.14,1.8A3.54,3.54,0,0,0,16,16.93a1.5,1.5,0,0,1,1.47,1.52A1.47,1.47,0,0,1,16,19.92,1.45,1.45,0,0,1,14.64,19a1.008,1.008,0,0,0-1.87.75,3.5,3.5,0,0,0,2.23,2v1.12a1,1,0,0,0,2,0V21.76a3.5,3.5,0,0,0,2.45-3.82,3.65,3.65,0,0,0-3.51-3.01Z" fill="#e2ab12"/>
      <path id="Path_231" data-name="Path 231" d="M16,1A15,15,0,1,0,31,16,15,15,0,0,0,16,1Zm0,28A13,13,0,1,1,29,16,13,13,0,0,1,16,29Z" fill="#e2ab12"/>
    </g>
  </g>
</svg>
