<svg xmlns="http://www.w3.org/2000/svg" xmlns:xlink="http://www.w3.org/1999/xlink" width="38" height="38" viewBox="0 0 38 38">
  <defs>
    <clipPath id="clip-path">
      <rect id="Rectangle_9" data-name="Rectangle 9" width="38" height="38" transform="translate(1475 58)" fill="#000" stroke="#000" stroke-width="1"/>
    </clipPath>
  </defs>
  <g id="icon-FB" transform="translate(-1475 -58)" clip-path="url(#clip-path)">
    <path id="facebook_5_" data-name="facebook (5)" d="M13.359,38H7.274a1.845,1.845,0,0,1-1.843-1.843V22.431H1.88A1.845,1.845,0,0,1,.037,20.588V14.706A1.845,1.845,0,0,1,1.88,12.863h3.55V9.917A10.028,10.028,0,0,1,8.082,2.733,9.551,9.551,0,0,1,15.124,0l4.641.008a1.846,1.846,0,0,1,1.84,1.843V7.312a1.845,1.845,0,0,1-1.843,1.843H16.638c-.953,0-1.2.191-1.248.25-.086.1-.187.372-.187,1.13v2.327h4.325a1.874,1.874,0,0,1,.912.232,1.85,1.85,0,0,1,.948,1.612l0,5.882a1.845,1.845,0,0,1-1.843,1.843H15.2V36.157A1.846,1.846,0,0,1,13.359,38Zm-5.7-2.228h5.316V21.434A1.232,1.232,0,0,1,14.206,20.2h4.952l0-5.112H14.205a1.232,1.232,0,0,1-1.23-1.231V10.536a3.794,3.794,0,0,1,.745-2.6,3.776,3.776,0,0,1,2.917-1h2.74V2.235l-4.255-.007c-4.6,0-7.464,2.947-7.464,7.69V13.86a1.232,1.232,0,0,1-1.23,1.231H2.265V20.2H6.428a1.232,1.232,0,0,1,1.23,1.231Zm12.1-33.537h0Zm0,0" transform="translate(1483.179 58)" fill="#000"/>
  </g>
</svg>
