<svg xmlns="http://www.w3.org/2000/svg" xmlns:xlink="http://www.w3.org/1999/xlink" width="38" height="38" viewBox="0 0 38 38">
  <defs>
    <clipPath id="clip-path">
      <rect id="Rectangle_8" data-name="Rectangle 8" width="38" height="38" transform="translate(1557 58)" fill="#fff" stroke="#707070" stroke-width="1"/>
    </clipPath>
  </defs>
  <g id="icon-IG" transform="translate(-1557 -58)" clip-path="url(#clip-path)">
    <g id="instagram_2_" data-name="instagram (2)" transform="translate(1557 58)">
      <g id="Group_5" data-name="Group 5">
        <g id="Group_4" data-name="Group 4">
          <path id="Path_84" data-name="Path 84" d="M28.5,0H9.5A9.528,9.528,0,0,0,0,9.5v19A9.529,9.529,0,0,0,9.5,38h19A9.529,9.529,0,0,0,38,28.5V9.5A9.528,9.528,0,0,0,28.5,0Zm6.333,28.5A6.34,6.34,0,0,1,28.5,34.833H9.5A6.341,6.341,0,0,1,3.167,28.5V9.5A6.34,6.34,0,0,1,9.5,3.167h19A6.339,6.339,0,0,1,34.833,9.5v19Z" fill="#fff"/>
        </g>
      </g>
      <g id="Group_7" data-name="Group 7">
        <g id="Group_6" data-name="Group 6">
          <circle id="Ellipse_4" data-name="Ellipse 4" cx="2.375" cy="2.375" r="2.375" transform="translate(26.918 6.333)" fill="#fff"/>
        </g>
      </g>
      <g id="Group_9" data-name="Group 9">
        <g id="Group_8" data-name="Group 8">
          <path id="Path_85" data-name="Path 85" d="M19,9.5A9.5,9.5,0,1,0,28.5,19,9.5,9.5,0,0,0,19,9.5Zm0,15.834A6.333,6.333,0,1,1,25.333,19,6.334,6.334,0,0,1,19,25.333Z" fill="#fff"/>
        </g>
      </g>
    </g>
  </g>
</svg>
