<svg xmlns="http://www.w3.org/2000/svg" xmlns:xlink="http://www.w3.org/1999/xlink" width="70" height="70" viewBox="0 0 70 70">
  <defs>
    <clipPath id="clip-path">
      <rect id="Rectangle_42" data-name="Rectangle 42" width="70" height="70" transform="translate(1313 23)" fill="#fff" stroke="#707070" stroke-width="1"/>
    </clipPath>
  </defs>
  <g id="icon-nav-4" transform="translate(-1313 -23)" clip-path="url(#clip-path)">
    <g id="icon_mainNav_03" transform="translate(1313 23)">
      <g id="Group_28" data-name="Group 28">
        <g id="Group_27" data-name="Group 27">
          <path id="Path_123" data-name="Path 123" d="M55.171,16.663l-20.336.813a1.079,1.079,0,0,0-.995.783L26.8,43.085a42.568,42.568,0,0,0-2.954-4.552A2.8,2.8,0,0,0,19.88,42.5a41.015,41.015,0,0,0,4.426,2.879,9.4,9.4,0,0,1-3.883,1.8,9.257,9.257,0,0,1-3.644,0,1.078,1.078,0,1,0-.419,2.116,11.59,11.59,0,0,0,2.253.223,11.281,11.281,0,0,0,1.976-.178,9.558,9.558,0,0,0-1.263,2.887,17.924,17.924,0,0,0-.361,2.316,9.35,9.35,0,0,1-.677,3.069c-1.121,2.292-3.25,2.442-6.625,2.418A13.568,13.568,0,0,0,6,60.777a8.36,8.36,0,0,0-4.3,4.916,8.285,8.285,0,0,0-.346,1.32,1.078,1.078,0,0,0,2.12.4A6.571,6.571,0,0,1,6.88,62.744a11.9,11.9,0,0,1,4.768-.557c3.178.024,6.78.05,8.579-3.627a11.094,11.094,0,0,0,.884-3.78,16.094,16.094,0,0,1,.312-2.041A7.168,7.168,0,0,1,25.45,47.91a11.3,11.3,0,0,0-1.791,8.684,1.078,1.078,0,1,0,2.116-.419,9.252,9.252,0,0,1,0-3.644,9.388,9.388,0,0,1,1.8-3.883,41.061,41.061,0,0,0,2.879,4.426,2.8,2.8,0,1,0,3.965-3.966,42.479,42.479,0,0,0-4.552-2.954l24.826-7.04a1.078,1.078,0,0,0,.783-.994l.814-20.336A1.09,1.09,0,0,0,55.171,16.663ZM21.406,40.974a.647.647,0,0,1,.912-.918A29.16,29.16,0,0,1,24.045,42.7,29.3,29.3,0,0,1,21.406,40.974ZM32.9,50.633a.647.647,0,0,1-.912.919,29.139,29.139,0,0,1-1.726-2.642A29.394,29.394,0,0,1,32.9,50.633ZM52.5,18.928,44.639,26.79l-7.257-7.257ZM29.319,42.11l6.1-21.495,7.7,7.7Zm1.525,1.525,13.8-13.8,7.7,7.7Zm22.577-8.063-7.257-7.257,7.861-7.862Z" fill="#46afec"/>
        </g>
      </g>
      <g id="Group_30" data-name="Group 30">
        <g id="Group_29" data-name="Group 29">
          <path id="Path_124" data-name="Path 124" d="M26.934,6.889a6.243,6.243,0,0,0-2.565.55,7.408,7.408,0,0,0-14.261-.6A7.406,7.406,0,0,0,0,13.047a1.089,1.089,0,0,0,1.074,1.175h17.8a1.078,1.078,0,1,0,0-2.157H2.393A5.251,5.251,0,0,1,10.27,9.34a1.089,1.089,0,0,0,1.668-.785A5.248,5.248,0,0,1,22.4,9.118a1.4,1.4,0,0,0,.1.636,1.078,1.078,0,0,0,1.694.339,4.1,4.1,0,0,1,6.689,1.973h-7.98a1.079,1.079,0,0,0,0,2.157h9.2a1.079,1.079,0,0,0,1.079-1.079A6.263,6.263,0,0,0,26.934,6.889Z" fill="#46afec"/>
        </g>
      </g>
      <g id="Group_32" data-name="Group 32">
        <g id="Group_31" data-name="Group 31">
          <path id="Path_125" data-name="Path 125" d="M63.745,52.328a6.244,6.244,0,0,0-2.565.55,7.408,7.408,0,0,0-14.261-.6,7.405,7.405,0,0,0-10.1,6.213,1.089,1.089,0,0,0,1.074,1.175h6.3a1.079,1.079,0,0,0,0-2.157H39.2a5.252,5.252,0,0,1,7.877-2.726,1.089,1.089,0,0,0,1.668-.785,5.248,5.248,0,0,1,10.466.563,1.4,1.4,0,0,0,.1.636,1.078,1.078,0,0,0,1.694.339A4.1,4.1,0,0,1,67.7,57.5H48.215a1.079,1.079,0,1,0,0,2.157H68.921A1.079,1.079,0,0,0,70,58.583,6.262,6.262,0,0,0,63.745,52.328Z" fill="#46afec"/>
        </g>
      </g>
    </g>
  </g>
</svg>
