<svg xmlns="http://www.w3.org/2000/svg" xmlns:xlink="http://www.w3.org/1999/xlink" width="35" height="35" viewBox="0 0 35 35">
  <defs>
    <clipPath id="clip-path">
      <rect id="Rectangle_3163" data-name="Rectangle 3163" width="35" height="35" transform="translate(283 408)" fill="#eb545c" stroke="#eb545c" stroke-width="0.5"/>
    </clipPath>
  </defs>
  <g id="icon-youtube" transform="translate(-283 -408)" clip-path="url(#clip-path)">
    <g id="youtube_2_" data-name="youtube (2)" transform="translate(283 413.326)">
      <path id="Path_256" data-name="Path 256" d="M14.782,19.524V6.495l11.232,6.515ZM16.3,9.139V16.89l6.676-3.88Zm0,0" transform="translate(-1.848 -0.836)" fill="#eb545c" stroke="#eb545c" stroke-width="0.5"/>
      <path id="Path_257" data-name="Path 257" d="M28.922,24.375H6.077a5.354,5.354,0,0,1-5.231-4.3A41.2,41.2,0,0,1,0,12.2,41.2,41.2,0,0,1,.846,4.326,5.354,5.354,0,0,1,6.077.027H28.922a5.355,5.355,0,0,1,5.231,4.3A41.274,41.274,0,0,1,35,12.2a41.274,41.274,0,0,1-.847,7.875A5.355,5.355,0,0,1,28.922,24.375ZM6.077,1.549A3.823,3.823,0,0,0,2.34,4.621a39.732,39.732,0,0,0-.818,7.58,39.732,39.732,0,0,0,.818,7.58,3.823,3.823,0,0,0,3.738,3.072H28.922a3.823,3.823,0,0,0,3.738-3.072,39.753,39.753,0,0,0,.818-7.58,39.753,39.753,0,0,0-.818-7.58,3.823,3.823,0,0,0-3.738-3.072Zm0,0" transform="translate(0 -0.027)" fill="#eb545c" stroke="#eb545c" stroke-width="0.5"/>
    </g>
  </g>
</svg>
