<svg xmlns="http://www.w3.org/2000/svg" xmlns:xlink="http://www.w3.org/1999/xlink" width="50" height="50" viewBox="0 0 50 50">
  <defs>
    <clipPath id="clip-path">
      <rect id="Rectangle_84" data-name="Rectangle 84" width="50" height="50" transform="translate(360 1456)" fill="#73b150" stroke="#707070" stroke-width="1"/>
    </clipPath>
  </defs>
  <g id="icon-bus" transform="translate(-360 -1456)" clip-path="url(#clip-path)">
    <g id="bus_3_" data-name="bus (3)" transform="translate(360 1456)">
      <g id="Group_4085" data-name="Group 4085">
        <g id="Group_4084" data-name="Group 4084">
          <path id="Path_247" data-name="Path 247" d="M25.845.286a.977.977,0,0,0-1.667.69.977.977,0,1,0,1.667-.69Z" fill="#73b150"/>
        </g>
      </g>
      <g id="Group_4087" data-name="Group 4087">
        <g id="Group_4086" data-name="Group 4086">
          <path id="Path_248" data-name="Path 248" d="M48.047,9.438V6.689A2.689,2.689,0,0,0,45.36,4h-1.7a4.89,4.89,0,0,0-4.8-4H29.329a.977.977,0,0,0,0,1.953h9.534a2.933,2.933,0,0,1,2.93,2.93v2.93H32.422V4.883a.977.977,0,0,0-.977-.977H18.555a.977.977,0,0,0-.977.977v2.93H8.216V4.883a2.933,2.933,0,0,1,2.93-2.93h9.8a.977.977,0,0,0,0-1.953h-9.8a4.89,4.89,0,0,0-4.8,4h-1.7A2.689,2.689,0,0,0,1.953,6.689V9.438A2.934,2.934,0,0,0,0,12.2v3.649a2.93,2.93,0,0,0,5.859,0V12.2A2.934,2.934,0,0,0,3.906,9.438V6.689a.734.734,0,0,1,.733-.733H6.263V38.379A4.888,4.888,0,0,0,9.1,42.81v3.479a3.711,3.711,0,0,0,7.422,0V43.262H33.5v3.027a3.711,3.711,0,1,0,7.422,0V42.8a4.889,4.889,0,0,0,2.82-4.424V5.955h1.614a.734.734,0,0,1,.733.733V9.438A2.934,2.934,0,0,0,44.141,12.2v3.649a2.93,2.93,0,1,0,5.859,0V12.2A2.935,2.935,0,0,0,48.047,9.438ZM3.906,15.849a.977.977,0,0,1-1.953,0V12.2a.977.977,0,0,1,1.953,0ZM31.9,9.766l-3.042,3.042a.977.977,0,1,0,1.381,1.381l4.423-4.423h5.746L25.977,24.2V9.766ZM19.531,5.859H30.469V7.812H19.531Zm.321,17.051a.977.977,0,0,0-1.381,0L12.4,28.98h-.626l-3.02-3.02,15.27-15.27V28.98H15.163l4.689-4.689A.976.976,0,0,0,19.852,22.91ZM8.216,9.766H22.187L8.216,23.736Zm6.351,36.523a1.758,1.758,0,0,1-3.516,0V43.262h3.516Zm24.406,0a1.758,1.758,0,0,1-3.516,0V43.262h3.516Zm2.82-7.91a2.933,2.933,0,0,1-2.93,2.93H11.146a2.933,2.933,0,0,1-2.93-2.93V28.184l2.464,2.464a.977.977,0,0,0,.691.286H38.63a.977.977,0,0,0,.691-.286l2.472-2.472Zm0-12.966L38.225,28.98H25.977V26.958L41.793,11.142Zm6.254-9.564a.977.977,0,1,1-1.953,0V12.2a.977.977,0,1,1,1.953,0Z" fill="#73b150"/>
        </g>
      </g>
      <g id="Group_4089" data-name="Group 4089">
        <g id="Group_4088" data-name="Group 4088">
          <path id="Path_249" data-name="Path 249" d="M13.676,33.191a2.93,2.93,0,1,0,2.93,2.93A2.933,2.933,0,0,0,13.676,33.191Zm0,3.906a.977.977,0,1,1,.977-.977A.978.978,0,0,1,13.676,37.1Z" fill="#73b150"/>
        </g>
      </g>
      <g id="Group_4091" data-name="Group 4091">
        <g id="Group_4090" data-name="Group 4090">
          <path id="Path_250" data-name="Path 250" d="M36.324,33.191a2.93,2.93,0,1,0,2.93,2.93A2.933,2.933,0,0,0,36.324,33.191Zm0,3.906a.977.977,0,1,1,.977-.977A.978.978,0,0,1,36.324,37.1Z" fill="#73b150"/>
        </g>
      </g>
      <g id="Group_4093" data-name="Group 4093">
        <g id="Group_4092" data-name="Group 4092">
          <path id="Path_251" data-name="Path 251" d="M30.086,33.191H19.93a.977.977,0,0,0-.977.977v3.906a.977.977,0,0,0,.977.977H30.086a.977.977,0,0,0,.977-.977V34.168A.977.977,0,0,0,30.086,33.191ZM29.11,37.1h-8.2V35.144h8.2Z" fill="#73b150"/>
        </g>
      </g>
    </g>
  </g>
</svg>
