<svg xmlns="http://www.w3.org/2000/svg" xmlns:xlink="http://www.w3.org/1999/xlink" width="70" height="70" viewBox="0 0 70 70">
  <defs>
    <clipPath id="clip-path">
      <rect id="Rectangle_39" data-name="Rectangle 39" width="70" height="70" transform="translate(593 23)" fill="#fff" stroke="#707070" stroke-width="1"/>
    </clipPath>
  </defs>
  <g id="icon-nav-1" transform="translate(-593 -23)" clip-path="url(#clip-path)">
    <path id="icon_mainNav_02" d="M28.922,2.068c.325-.112.646.5,1.408.672s2.468.538,2.468.538a2.3,2.3,0,0,1,0,.882c-.112.174.28.575.28.575l.575.641A3.524,3.524,0,0,0,35.58,7.024a17.083,17.083,0,0,0,3.728.642,3.025,3.025,0,0,0,2.061-.071,1.752,1.752,0,0,1,2.276.329,11.454,11.454,0,0,0,4.485,1.817,3.4,3.4,0,0,1,2.832,2.5c.49,1.461,1.652,2.877,1.466,3.234s.186,1.175.855,2.293c.686,1.118.869,1.483,1.118,1.893s.183,1.078.615,1.349a7.633,7.633,0,0,0,2.057,1.073c.753.187.963.534.379,1.567-.469.82-1.814,1.862-1.57,2.552a8.548,8.548,0,0,1,.068,2.534,12.017,12.017,0,0,1-.374,2.574,2.089,2.089,0,0,0-.311,1.247c.067.65.374.9-.806,1.443s-3.069.823-3.915,1.661-2.89,3.167-3.126,4.752a20.417,20.417,0,0,1-.9,4.106,19.738,19.738,0,0,0-.535,3.8,13.623,13.623,0,0,0,.476,3.206,15.963,15.963,0,0,0,2.147,4.739c.606,1.069,1.069,2.423,1.608,3.287s.779,2.668,1.332,3.535,1.122.651,1.675,1.578-.33,1.976,1.915,4.311l-43.36-.062a4.312,4.312,0,0,1,2.129-5.745c3.416-1.737,2.191-.437,6.627-3.078,4.543-2.7,5.251-3.736,6.987-6.266a47.8,47.8,0,0,1,4.45-5.982c.708-.637.436-1.848,1.1-2.988a22.787,22.787,0,0,0,1.55-2.868c.058-.311.169-1.47.281-2s.614-.57.445-1.185a9.545,9.545,0,0,1-.107-1.71,1.043,1.043,0,0,0-.619-1c-.33-.179.4-.66.4-1.132a4.514,4.514,0,0,0-.543-2.155C34,32.369,33.185,31.9,33.131,31.5s.272-.962-.058-1.034a.456.456,0,0,1-.223-.7c.169-.178-.276-.65-.606-.712s-.494.36-.552-.41-.049-.975.219-1.265.169-.281-.325-.534-.6-.45-.432-.775-.183-.7-1-.917-.98.054-1.554-.223c-.967-.454-.81-.98-1.394-.953s-.806-.517-1.118-.632-.263-.624-.374-.82-.214-.124-.686-.111-.584-.735-.842-1.011-.267-.316-.583-.33-.419-.695-.472-1.3.053-.811-.73-1.06-1.657.187-1.862-1.243a19.7,19.7,0,0,1,.049-4.325,10.2,10.2,0,0,1,1.4-3.8c.887-1.665,1.461-1.71,1.358-2.351s.1-1.028.73-2,.842-1.015.842-1.679a1.864,1.864,0,0,1,.53-1.572c.53-.61.851-.517,1.011-.494a2.7,2.7,0,0,1,.962.793c.107.24.321.1.482.223S28.922,2.068,28.922,2.068Z" transform="translate(593.416 22.893)" fill="none" stroke="#e89033" stroke-miterlimit="10" stroke-width="2.242"/>
  </g>
</svg>
