<svg xmlns="http://www.w3.org/2000/svg" xmlns:xlink="http://www.w3.org/1999/xlink" width="30" height="30" viewBox="0 0 30 30">
  <defs>
    <clipPath id="clip-path">
      <rect id="Rectangle_49" data-name="Rectangle 49" width="30" height="30" transform="translate(983 925)" fill="#2a90cf" stroke="#707070" stroke-width="1"/>
    </clipPath>
  </defs>
  <g id="icon-phone" transform="translate(-983 -925)" clip-path="url(#clip-path)">
    <g id="telephone" transform="translate(983 925)">
      <path id="Path_224" data-name="Path 224" d="M6.113,19.942A31.827,31.827,0,0,0,16.7,28.235a16.476,16.476,0,0,0,5.924,1.753c.143.006.28.012.423.012a4.906,4.906,0,0,0,3.8-1.635.136.136,0,0,0,.025-.031,16.017,16.017,0,0,1,1.2-1.243c.292-.28.591-.572.877-.87a3,3,0,0,0-.012-4.47L25.2,18.015a3.024,3.024,0,0,0-2.188-1.007,3.126,3.126,0,0,0-2.213,1l-2.225,2.225c-.205-.118-.416-.224-.615-.323a7.687,7.687,0,0,1-.684-.373,23.553,23.553,0,0,1-5.626-5.122,13.563,13.563,0,0,1-1.9-3.034c.584-.528,1.131-1.082,1.66-1.622.186-.193.379-.385.572-.578a3.187,3.187,0,0,0,1.032-2.238,3.162,3.162,0,0,0-1.032-2.238L10.129,2.853c-.218-.218-.423-.429-.634-.646-.41-.423-.839-.858-1.262-1.249A3.1,3.1,0,0,0,6.045,0,3.191,3.191,0,0,0,3.832.964L1.507,3.288A4.777,4.777,0,0,0,.083,6.347,11.5,11.5,0,0,0,.947,11.32,28.932,28.932,0,0,0,6.113,19.942ZM1.6,6.477a3.288,3.288,0,0,1,.988-2.114L4.9,2.051a1.674,1.674,0,0,1,1.144-.528,1.588,1.588,0,0,1,1.119.541c.416.385.808.789,1.231,1.218.211.218.429.435.646.659l1.852,1.852a1.688,1.688,0,0,1,.584,1.162,1.688,1.688,0,0,1-.584,1.162c-.193.193-.385.392-.578.584C9.737,9.287,9.2,9.84,8.6,10.369l-.031.031a1.215,1.215,0,0,0-.311,1.38c.006.019.012.031.019.05a14.63,14.63,0,0,0,2.182,3.55,24.858,24.858,0,0,0,5.993,5.458,8.9,8.9,0,0,0,.821.448,7.687,7.687,0,0,1,.684.373c.025.012.044.025.068.037a1.3,1.3,0,0,0,.6.155,1.318,1.318,0,0,0,.926-.423L21.878,19.1a1.645,1.645,0,0,1,1.138-.553,1.561,1.561,0,0,1,1.1.553l3.748,3.742a1.5,1.5,0,0,1-.019,2.344c-.261.28-.535.547-.827.827a17.9,17.9,0,0,0-1.3,1.349A3.413,3.413,0,0,1,23.053,28.5c-.106,0-.218-.006-.323-.012a14.969,14.969,0,0,1-5.358-1.6A30.235,30.235,0,0,1,7.294,18.985,27.693,27.693,0,0,1,2.383,10.81,10.026,10.026,0,0,1,1.6,6.477Z" fill="#2a90cf"/>
    </g>
  </g>
</svg>
