<svg xmlns="http://www.w3.org/2000/svg" xmlns:xlink="http://www.w3.org/1999/xlink" width="30" height="30" viewBox="0 0 30 30">
  <defs>
    <clipPath id="clip-path">
      <rect id="Rectangle_47" data-name="Rectangle 47" width="30" height="30" transform="translate(990 788)" fill="#ee3840" stroke="#707070" stroke-width="1"/>
    </clipPath>
  </defs>
  <g id="icon-place" transform="translate(-990 -788)" clip-path="url(#clip-path)">
    <g id="placeholder_4_" data-name="placeholder (4)" transform="translate(990 788)">
      <g id="Group_68" data-name="Group 68">
        <g id="Group_67" data-name="Group 67">
          <path id="Path_218" data-name="Path 218" d="M15,0A10.549,10.549,0,0,0,6.027,16.093L14.4,29.585a.879.879,0,0,0,.747.415h.007a.879.879,0,0,0,.747-.427L24.059,15.95A10.549,10.549,0,0,0,15,0Zm7.551,15.048L15.133,27.433,7.522,15.167a8.795,8.795,0,1,1,15.029-.119Z" fill="#ee3840"/>
        </g>
      </g>
      <g id="Group_70" data-name="Group 70">
        <g id="Group_69" data-name="Group 69">
          <path id="Path_219" data-name="Path 219" d="M15,5.273a5.273,5.273,0,1,0,5.273,5.273A5.279,5.279,0,0,0,15,5.273Zm0,8.8a3.527,3.527,0,1,1,3.521-3.527A3.53,3.53,0,0,1,15,14.074Z" fill="#ee3840"/>
        </g>
      </g>
    </g>
  </g>
</svg>
