<svg xmlns="http://www.w3.org/2000/svg" width="735.781" height="462.583" viewBox="0 0 735.781 462.583">
  <g id="map-white" transform="translate(-199.262 1019.5)">
    <path id="Path_92" data-name="Path 92" d="M475.644-962c-4.306,6.758,15.783,14.593,20.527,12.112-1.938,1.014,7.079,11.946,7.841,12.85,1.256,1.49,4.434,4.19,4.847,6.115.449,2.092-2.095,4.413-3.113,6.125-1.1,1.856-2.07,4.179-3.22,6.112-2.931,4.927-6.383,6.979-11.7,8.622-3.581,1.107-4.484,2.348-5.807,5.327-1.009,2.273-3,4.488-4.019,6.5-1.517,3-1.557,4.919-4.485,7.19-2.453,1.9-5.247,2.663-8.034,3.9-1.4.62-2.761,1.66-4.24,2.163-1.6.545-3.608.321-5.1,1.19-2.088,1.216-4.09,3.821-6.028,5.435-2.171,1.808-3.776,3.432-6.575,4.12a26.624,26.624,0,0,1-15.016-1.584c-3.374-1.581-6.471-3.283-9.678-5.133a24.409,24.409,0,0,0-10.394-2.773c-1.491,0-2.231,1.131-4.505.777-1.937-.3-3.138-1.582-5.28-1.288-1.323-1.518-2.776-1.882-4.6-2.591-.73-.283-1.895.393-2.571-.029-1.219-.761-.794-2.561-1.692-3.386-2.921-2.686-8.447-.258-11.7-2.281-4.267-2.651,4.335-5.39,6.506-7.3,1.938-1.707.5-2.113,3.678-2.647,2.195-.369,5.211.274,7.658.378,8.188.347,17.529-1.566,22.33-8.827a61.437,61.437,0,0,0,3.814-5.725c.815-1.676.26-4.283,1.189-6.093,1-1.949,1.973-2.158,2.673-4.324.684-2.117.1-4.038,1.437-6.134a19.538,19.538,0,0,1,9.1-7.456c4.176-1.776,7.539-4.843,11.737-6.717,4.069-1.818,8.05-4,11.875-5.774,3.677-1.706,8.568-3.671,11.028-6.944Z" transform="translate(-43.386 -13.725)" fill="#fff" stroke="#fff" stroke-miterlimit="10" stroke-width="1" fill-rule="evenodd" opacity="0.5"/>
    <path id="Path_93" data-name="Path 93" d="M378.829-896.37c-4.267-2.651,4.335-5.39,6.506-7.3,1.938-1.707.5-2.113,3.678-2.647,2.195-.369,5.211.274,7.658.378,8.188.347,17.529-1.566,22.33-8.827a61.436,61.436,0,0,0,3.814-5.725c.815-1.676.26-4.283,1.189-6.094,1-1.949,1.973-2.158,2.673-4.324.684-2.117.1-4.038,1.437-6.134a19.538,19.538,0,0,1,9.1-7.456c4.176-1.776,7.539-4.843,11.737-6.717,4.069-1.818,8.05-4,11.875-5.774,3.677-1.706,8.568-3.671,11.028-6.944l1.15-1.437c-.844-2.618-3.809-5.891-5.184-7.44-2.468-2.783-5.364-5.781-9.442-4.987-4.613.9-10.113,3.7-14.1,5.883-3.886,2.126-7.541,3.361-10.911,6.278a95.217,95.217,0,0,1-10.727,8.209c-3.757,2.407-6.8,6.134-10.245,9.026-3.657,3.071-6.016,6.779-10.008,9.486-4.409,2.99-6.56,7.033-9.643,11.234-2.622,3.574-6.756,5.582-9.684,8.732-3.071,3.3-6.374,6.462-9.444,9.533-1.2,1.2-3.2,3.571-3.129,5.418.034.954.787,1.639,1.185,2.455.472.966.494,1.99.906,2.913.865,1.936,2.229,1.524,3.813,2.254,1.048.484,1.074.939,2.266,1.152a15.537,15.537,0,0,0,3.646-.042c.576-.043,1.162-.112,1.751-.2C382.15-895.452,380.267-895.476,378.829-896.37Z" transform="translate(-41.111 -9.889)" fill="#fff" stroke="#fff" stroke-miterlimit="10" stroke-width="1" opacity="0.8"/>
    <path id="Path_94" data-name="Path 94" d="M690.133-957.353c1.644-1.312,4.422-2.766,2.852-5.13a18.951,18.951,0,0,0-4.57-3.753c-3.22-1.7-7.56-1.411-11.018-2.273-2.383-.594-3.666-1.209-4.782-3.52-.842-1.745-1.614-3.845-2.99-5.267a26.123,26.123,0,0,0-12.273-6.81c-3.661-.97-4.952-2.18-5.852-5.875a106.019,106.019,0,0,1-12.5-1.394c-2.423-.418-2.793-1.266-4.159-3.164-1.651-2.3-5.179-4.624-7.355-6.495-3.833-3.294-6.952-1.834-11.355-.933-2.593.531-5.5.717-7.677,2.3-2.01,1.459-1.722,2.814-1.514,5.115.232,2.559-.644,2.757-3.165,3.027-2.8.3-5.586.632-8.431.768-2.595.124-4.846-.59-7.348-.758a18.9,18.9,0,0,0-6.642.565c-2.009.651-3.767,1.278-6.063.953a37.218,37.218,0,0,1-5.5-1.471c-2.145-.673-4.627-1.008-6.615-1.977-2.637-1.286-1.548-2.74-.977-4.949.734-2.841-1.047-2.622-2.1-4.7-.389-.771-.63-3.308-1.667-3.451-.679-.093-2.095,1.985-2.556,2.507-1.346,1.527-2.89,2.782-4.28,4.219-2.7,2.789.684,6.892.721,10.245.033,3.006-1.3,2.839-3.375,4.7-1.461,1.309-1.587,2.735-2.286,4.324-.729,1.659-2.722,4.053-4.579,4.558a30.8,30.8,0,0,1-7.365.613h-7.389c-4.3,0-11.1.121-11.639-5.314-.122-1.242-.16-4.942-1.124-5.8-1.8-1.6-5.621.951-5.153,3.319.18.908.918,1.527,1.333,2.35a11.052,11.052,0,0,1,.765,3.4c.563,2.843,1.279,3.2-1.279,4.906a13.125,13.125,0,0,1-4.963,2.341c.981,6,16.921,11.746,21.078,9.572-.565.3-.194,1.437.629,2.926.208.317.427.688.682,1.129.03.053.056.108.086.162a97.789,97.789,0,0,0,6.444,8.629c1.256,1.49,4.434,4.19,4.847,6.115a2.341,2.341,0,0,1,.046.362,1.456,1.456,0,0,0,.476.036,22.782,22.782,0,0,1,4.225-9.078c4.733-6.125,12.466-9.843,19.536-12.85,3.651-1.553,7.107-1.581,11.182-1.937,4.332-.379,8.267-1.7,12.463-2.693,2.025-.479,4.6.089,6.554-.731,1.867-.783,2.69-1.888,4.555-2.286,3.58-.765,7.844.96,11.453,1.136,9.249.452,15.575,1.02,23.463,5.39,6.99,3.873,14.3,4.119,22.4,4.1,4.048-.009,7.935.413,10.564,3.87,2.114,2.779,2.334,6.406,4.914,9.426,5.326,6.235,12.517,3.5,19.736,5.4a11.626,11.626,0,0,0-1.578-2.183c-1.443-1.417-2.95-.73-3.458-3.222C684.753-950.9,687.248-955.051,690.133-957.353Z" transform="translate(-73.567 -2.998)" fill="#fff" stroke="#fff" stroke-miterlimit="10" stroke-width="1" opacity="0.5"/>
    <path id="Path_95" data-name="Path 95" d="M701.451-982.363c-.881-1.181-3.918-2.354-5.237-3.051a19.358,19.358,0,0,0-5.2-2.273c-3.881-.721-8.3.083-11.781-1.694-3.539-1.8-7.2-4.509-10.748-6.633-1.841-1.1-4.125-1.959-5.856-3.088-1.476-.964-2.64-2.488-4.023-3.569-3.634-2.842-8.959-4.162-13.152-6.117-2.045-.953-3.843-2.326-5.791-3.3-2.017-1.011-4.148-1.586-6.116-2.727s-3.075-1.911-5.565-1.9c-1.98.007-3.99.1-5.966,0-4.341-.22-7.7-2.283-12.156-2.278-4.983.006-8.2,2.1-12.386,4.208-4.048,2.038-6.637,3.324-11.186,1.625-2.486-.928-5.082-.914-7.594-1.472-2.092-.465-4.115-.567-6.3-.955-4.472-.794-8.4-1.7-13.267-1.7-4.588,0-9.175,1.18-13.537,2.416-4.572,1.3-9.227,2.153-13.36,4.469-3.347,1.877-6.412,3.473-9.579,5.421-3.265,2.01-6.222,4.639-9.6,6.643-3.633,2.153-7.76,3.435-11.572,5.356-3.937,1.985-7.272,3.957-11.253,5.4,2.568.692,4.611,2.842,6.421,4.883,1.375,1.549,4.34,4.822,5.184,7.44l-.586.732c.37.514.49.919.754,1.26a13.737,13.737,0,0,0,4.612-2.267c2.558-1.7,1.841-2.082,1.279-4.924a11.276,11.276,0,0,0-.765-3.432,10.318,10.318,0,0,1-1.333-2.421c-.468-2.367,3.35-5.062,5.154-3.461.964.856,1,4.841,1.124,6.083.535,5.434,7.336,5.314,11.639,5.314H531.1a30.806,30.806,0,0,0,7.365-.613,8.41,8.41,0,0,0,4.579-4.274c.7-1.589.825-3.158,2.286-4.467,2.073-1.857,3.408-1.762,3.375-4.768-.037-3.352-3.42-7.491-.721-10.28,1.39-1.437,2.934-2.71,4.28-4.237.461-.522,1.877-2.609,2.556-2.516,1.037.143,1.278,2.676,1.667,3.447,1.05,2.077,2.831,1.856,2.1,4.7-.571,2.21-1.66,3.662.977,4.948,1.988.97,4.47,1.3,6.615,1.976a37.121,37.121,0,0,0,5.5,1.471c2.3.325,4.054-.3,6.063-.953a18.9,18.9,0,0,1,6.642-.565c2.5.169,4.753.882,7.348.758,2.846-.136,5.633-.469,8.431-.768,2.521-.27,3.4-.468,3.165-3.027-.208-2.3-.5-3.656,1.514-5.115,2.178-1.581,5.084-1.767,7.677-2.3,4.4-.9,7.521-2.361,11.355.933,2.177,1.871,5.7,4.2,7.355,6.495,1.366,1.9,1.736,2.746,4.159,3.164a106.032,106.032,0,0,0,12.5,1.394c.9,3.7,2.191,4.905,5.852,5.875A26.124,26.124,0,0,1,666-980.294c1.376,1.422,2.148,3.523,2.99,5.267,1.116,2.311,2.4,2.925,4.782,3.52,3.457.862,7.8.569,11.018,2.273a18.951,18.951,0,0,1,4.57,3.753,2.183,2.183,0,0,1-.111,2.818c1.591-.528,3.726-3.724,5.132-5.048,1.644-1.549,3.782-2.745,5.227-4.376C701.31-974.006,703.2-980.013,701.451-982.363Z" transform="translate(-69.944 0)" fill="#fff" stroke="#fff" stroke-miterlimit="10" stroke-width="1" opacity="0.8"/>
    <path id="Path_96" data-name="Path 96" d="M804.18-867.054c.022-4.012-2.309-1.773-4.693-.093-1.073.755-5.352,4.12-6.515,3.879-1.389-.288-3.375-4.084-4.5-5.1-3.338-3.044-9.181-3.5-11.47-7.638-1.09-1.97-1.145-4.168-1.708-6.283-.6-2.268-1.494-3.688-1.487-6.254.022-8.264,2.638-15.971,1.125-24.3-.44-2.422-.283-5.379-1.889-7.213-1.555-1.776-3.123-2.944-4.361-5.123-2.051-3.611-5.245-5.778-7.4-9.158a21.54,21.54,0,0,0-4.864-5.04c-1.648-1.383-2.591-3.281-3.949-5a7.468,7.468,0,0,0-2.615-2.518c-.09-.047-.176-.089-.263-.132.216,1.729-1.927,2.92-3.293,4.01-2.885,2.3-5.38,6.449-4.565,10.439.509,2.492,2.016,1.805,3.458,3.222a11.623,11.623,0,0,1,1.578,2.183c-.07-.018-.141-.033-.21-.051.46.115.919.242,1.38.4a17.67,17.67,0,0,0,.067,2.654,3.045,3.045,0,0,1,.379.345c2.094,2.3,3.151,7.417,4.28,10.544,1.309,3.622,2.523,7.3,3.778,11.009,1.132,3.344,2.084,7.307,1.433,11.073a21.077,21.077,0,0,1-2.7,7.136c-1.22,1.888-2.177,2.031-3.682,3.484a69.024,69.024,0,0,0-7.01,8.739c-1.9,2.594-2.165,7.288-5.911,8.019-.346,5.871,1.457,10.716,6.08,14.567,3.9,3.246,7.95,9.284,13.213,6.181,2.8-1.654,2.911-3.405,6.45-3.332,2.751.057,3.733,1.49,5.593,3.121,4.362,3.825,7.42,4.851,13.681,4.851-1.59-.129-3.85.837-6.15,2.082l.093-.006c5.665-.459,13.908-2.023,14.305-8.672.131-2.184,1.022-2.647,3.032-3.422a38.766,38.766,0,0,1,4.764-1.2c2.507-.616,2.151-1.07,2.263-3.543.2-4.321,3.717-5.609,5.072-9.325C804.353-862.16,804.17-865.246,804.18-867.054Z" transform="translate(-129.734 -17.329)" fill="#fff" stroke="#fff" stroke-miterlimit="10" stroke-width="1" opacity="0.5"/>
    <path id="Path_97" data-name="Path 97" d="M813.892-879.207c-.162-1.858-2.545-2.561-3.842-3.981a21.1,21.1,0,0,1-3.328-4.708,68.743,68.743,0,0,1-5.318-12.253,46.633,46.633,0,0,0-1.41-5.39,22.067,22.067,0,0,1-1.892-5.788c-1.073-7.316.128-15.771.792-23.1.216-2.389.242-5.3-1.277-7.263-1-1.3-2.774-1.936-3.946-3.155-.748-.78-1.313-1.5-2.076-2.292-2.177-2.274-4.372-1.1-7.174-1.515-2.763-.409-4.013-2.043-6.13-3.6-1.607-1.184-3.221-2.2-3.65-4.435-.447-2.329.351-3.712-1.455-5.646-1.575-1.688-4.663-5.289-7.555-6.591.579,2.79-.979,7.285-2.407,8.9-1.445,1.632-3.583,2.827-5.227,4.376-.982.925-2.319,2.76-3.579,3.965a9.97,9.97,0,0,1,1.857,2.035c1.358,1.719,2.311,3.618,3.959,5a21.564,21.564,0,0,1,4.869,5.04c2.158,3.38,5.354,5.548,7.405,9.158,1.238,2.179,2.807,3.347,4.362,5.123,1.606,1.834,1.449,4.791,1.89,7.213,1.513,8.327-1.1,16.035-1.124,24.3-.008,2.566.882,3.987,1.487,6.254.563,2.115.618,4.313,1.708,6.283,2.289,4.135,8.133,4.595,11.47,7.638,1.12,1.021,3.107,4.816,4.5,5.1,1.162.242,5.442-3.123,6.515-3.879,2.385-1.679,4.715-3.919,4.693.093-.011,1.808.172,4.894,2.795,4.527-.025.067-.055.128-.08.193l.133-.022C810.55-871.488,814.227-875.374,813.892-879.207Z" transform="translate(-133.559 -12.056)" fill="#fff" stroke="#fff" stroke-miterlimit="10" stroke-width="1" opacity="0.8"/>
    <path id="Path_98" data-name="Path 98" d="M803.208-797.472c.165,3.181.4,4.81,2.026,7.53,1.51,2.519,2.975,5.308,4.6,7.912,3.162,5.056,8.558,7.792,13.623,10.378,5.165,2.637,13.141,4.887,17.017,9.615,2.483,3.03,4.955,6.563,7.968,9.618,3.5,3.553,5.928,8.109,9.482,11.563,3.025,2.938,5.925,6.115,8.8,9.034,3.485,3.542,6.078,8.178,9.622,11.465,8.154-5.972,13.974-14.812,21.357-21.814-.114-.046-.226-.093-.343-.131-5.7-1.852-14.971,4.513-15.639-4.884-3.867-3.2-9.479-18.159-4.1-22.078,1.192-.868,3.777-.06,4.59-.808.772-.711-.219-2.006.308-2.6.931-1.048,2.089-1.487,3.394-2.659,1.5-1.348,5.527-7.652,5.7-9.832-9.747.282-.37-8.936,2.7-11.426a55.343,55.343,0,0,0,6.074-5.734c1.36-1.477,1.725-.815,1.991-3.167.221-1.95-.681-3.4.143-5.5-5.263,2.694-7.88,5.939-11.541,10.591-2.542,3.231-8.133,11.851-12.932,11.34.315-7.57-4.3-3.12-6.881-.219-2.395,2.694-4.659,8.563-9.063,7.432-.023-2.264-1.331-4.053-1.252-6.345-1.814.432-2.615,2.547-4.869,2.267,1.054,1.055,1,1.981,1.08,3.318-4.611.241-7.788-.317-11.337-3.359-2-1.714-6.475-9.322-8.038-6.9-4.551,1.313-10.775-9.281-13.6-12a29.238,29.238,0,0,1-5.781-7.815c-1.68-3.223-2.181-5.433-4-6.261-.139.039-.288.078-.45.118a38.774,38.774,0,0,0-4.764,1.2c-2.01.774-2.9,1.238-3.032,3.422-.272,4.55-4.219,6.718-8.5,7.781.843.758,1.7,1.415,2.158,1.839C802.129-802.365,803.032-800.85,803.208-797.472Z" transform="translate(-143.946 -48.174)" fill="#fff" stroke="#fff" stroke-miterlimit="10" stroke-width="1" opacity="0.5"/>
    <path id="Path_99" data-name="Path 99" d="M910.2-823.283c-5.751-.84-9.435.62-13.559,4.253-4.63,4.081-7.69,7.332-14.228,7.332-3.054,0-6.108-.011-9.161,0-3,.011-4.891-1.014-7.467-2.328-5.191-2.647-10.06-7.361-15.465-9.369-3.095-1.149-6.173-1.311-8.768-3.5-1.786-1.507-3.115-4.016-4.425-6.034-2.915-4.487-.635-10.421-3.282-14.722a10.71,10.71,0,0,0-4.249-3.033c.3,3.817-3.343,7.686-3.042,11.529l-.133.022c.026-.065.055-.126.08-.193-1.355,3.716-4.875,5-5.072,9.325-.106,2.313.2,2.86-1.814,3.425h0c1.824.828,2.325,3.038,4,6.261A29.241,29.241,0,0,0,829.4-812.5c2.825,2.718,9.049,13.311,13.6,12,1.563-2.425,6.039,5.184,8.039,6.9,3.549,3.042,6.725,3.6,11.336,3.359-.075-1.338-.026-2.263-1.08-3.318,2.253.28,3.055-1.835,4.869-2.267-.079,2.292,1.229,4.082,1.252,6.345,4.4,1.131,6.668-4.738,9.063-7.432,2.578-2.9,7.2-7.351,6.881.219,4.8.512,10.391-8.108,12.932-11.34,3.662-4.652,6.279-7.9,11.541-10.591-.824,2.093.078,3.545-.143,5.5-.266,2.352-.632,1.69-1.991,3.167a55.342,55.342,0,0,1-6.074,5.734c-3.07,2.49-12.446,11.708-2.7,11.426-.173,2.18-4.2,8.483-5.7,9.832-1.3,1.172-2.463,1.61-3.394,2.659-.528.593.464,1.888-.308,2.6-.813.748-3.4-.06-4.59.808-5.381,3.919.231,18.875,4.1,22.078a6.9,6.9,0,0,0,1.093,3.624c1.117.53,2.174,1.118,3.247,1.638,3.347.289,7.941-1.468,11.3-.377a.1.1,0,0,0,.018.007c.181-2.595,1.911-5.1,2.744-7.347.865-2.341.763-4.682.772-7.326.02-5.809-4.143-10.173-2.194-16.292,1.022-3.211,3.2-5.532,4.281-8.795.859-2.589,1.941-5.014,2.932-7.516,1.938-4.888,4.327-9.364,4.851-15C916.537-817.206,915.9-822.45,910.2-823.283Z" transform="translate(-149.256 -40.528)" fill="#fff" stroke="#fff" stroke-miterlimit="10" stroke-width="1" opacity="0.8"/>
    <path id="Path_100" data-name="Path 100" d="M932.938-685.152a14.965,14.965,0,0,1,3.195,7.623c.134,1.428.1,2.884.1,4.331,0,1.473-.424,3.959,0,5.352.621,2.043,8.07,1.156,10.1.77,7.738-1.474,16.016,1.1,23.616-.862a48.808,48.808,0,0,0,5.941-2.055c2.656-1.06,5.482-.978,8.35-.978a46.374,46.374,0,0,0,6.434-.383c1.351-.188,3.423.082,4.4-1.123.967-1.189,1.141-3.833,1.611-5.32.02-.064.036-.128.055-.191a3.783,3.783,0,0,0-2.459.188,19.588,19.588,0,0,0-3.631,2.143c-1.188.894-2.24,1.816-2.538-.126a16.788,16.788,0,0,1,0-1.9c-.045-1.25.175-.573-.642-1.354-.982-.941-2.766-1.176-3.779-2.158-1.219-1.181-.619-2.163-2.662-2.182-1.4-.014-3.265.453-4.182-.633-.575-.681-.422-1.769-1.515-2.165a7.542,7.542,0,0,0-2.19.014c-2.045.136-3.728,1.115-5.884,1.012-2.918-.14-6.449-1.313-8.253-3.485a2.756,2.756,0,0,1-2.91,1.967c-.746-.077-1.45-.611-2.129-.607-.784.005-.634.454-1.177.853a5.76,5.76,0,0,1-4.393,1.178c-3.209-.31-3.927-2.786-2.951-5.633.207-.608.475-1.07.659-1.642.228-.707,0-.874.5-1.487s1.045-.546,1.145-1.487a4.6,4.6,0,0,0-.667-2.2c-1.083-2.563.042-5.16-.364-7.785-1.928-.576-3.7,1.694-5.727.906a4.571,4.571,0,0,1-.807-.424c-2.279.7-4.056,1.556-5.381,4.039-2.037,3.814-2.838,5.859-6.159,8.731a9.03,9.03,0,0,1-1.141.83c.923,1.206,1.841,2.417,2.793,3.616C931.046-686.82,932.192-686.106,932.938-685.152Z" transform="translate(-175.234 -75.472)" fill="#fff" stroke="#fff" stroke-miterlimit="10" stroke-width="1" opacity="0.5"/>
    <path id="Path_101" data-name="Path 101" d="M1002.612-683.855a12.373,12.373,0,0,0,1.294-4.949c-2.742-1.792-6.793-1.493-9.645-2.836-3.095-1.457-6.877-1.987-10.306-2.5-6.84-1.015-12.784-3.749-19.3-5.922a7.646,7.646,0,0,1-3.027-1.386,11.814,11.814,0,0,1-2-3.669,25.739,25.739,0,0,0-2.284-4.242,6.937,6.937,0,0,1-1.025-2.963c-1.3.651-2.688,2.139-3.936,3.023a20.851,20.851,0,0,1-3.579,1.926,3.232,3.232,0,0,0-1.527,1.277c1.427-.3,2.772-1.432,4.2-1,.405,2.625-.719,5.222.364,7.785a4.6,4.6,0,0,1,.667,2.2c-.1.941-.65.881-1.145,1.487s-.273.78-.5,1.487c-.184.572-.452,1.034-.659,1.642-.976,2.847-.258,5.323,2.951,5.633a5.76,5.76,0,0,0,4.393-1.178c.543-.4.392-.847,1.177-.853.679,0,1.383.529,2.129.607a2.756,2.756,0,0,0,2.91-1.967c1.8,2.173,5.335,3.346,8.253,3.486,2.156.1,3.839-.876,5.884-1.012a7.542,7.542,0,0,1,2.19-.014c1.093.4.94,1.484,1.515,2.165.916,1.086,2.779.619,4.182.633,2.044.019,1.443,1,2.662,2.182,1.014.982,2.8,1.217,3.779,2.158.817.781.6.1.642,1.354a16.788,16.788,0,0,0,0,1.9c.3,1.942,1.35,1.02,2.538.126a19.588,19.588,0,0,1,3.631-2.143,3.822,3.822,0,0,1,2.227-.231C1000.989-680.78,1002.211-682.939,1002.612-683.855Z" transform="translate(-179.996 -73.846)" fill="#fff" stroke="#fff" stroke-miterlimit="10" stroke-width="1" opacity="0.8"/>
    <path id="Path_102" data-name="Path 102" d="M1094.035-669.945c-1.688-.052-3.267-.395-4.955-.474-1.665-.078-3.334.092-4.774-.687a6.033,6.033,0,0,1-2.225-2.309c-.333-.541-.616-1.179-1.214-1.376-.583-.191-.991.207-1.467.276-1.417.2-1.458-.326-2.07-1.262-.646-.987-1.92-1.2-3.042-1.546-.824-.257-3.431-1.184-4.174-.44-.979.979,1.228,1.985,1.425,2.464-.77.116-2.472-.929-2.759-.27-.292.675,1.058,1.49,1.151,2.111.2,1.285-1.089,1.461-2.183,1.521-1.386.075-1.6-.568-2.65-1.044-.034-.015-.081-.025-.118-.039a2.028,2.028,0,0,0,.654,1.1,10.1,10.1,0,0,0,2.114,1.581,10.126,10.126,0,0,0,3.987-.074c.806-.138,2.3-.777,3.1-.471,1.928.739.966,4.681,2.773,5.4.81.325,2.061-.019,2.78.276.284.117.278.348.736.365a3.424,3.424,0,0,0,.743-.266,4.215,4.215,0,0,0,1.039-1.111c1.4-1.772,2.969-3.161,5.525-3.159,1.056,0,2.095.014,3.136.1a14.049,14.049,0,0,1,1.679.334,3.371,3.371,0,0,0,.532.054c.091-.462.154-.859.157-.963Z" transform="translate(-208.338 -82.098)" fill="#fff" stroke="#fff" stroke-miterlimit="10" stroke-width="1" opacity="0.5"/>
    <path id="Path_103" data-name="Path 103" d="M1090.01-667.745c-1.042-.087-2.08-.1-3.136-.1-2.556,0-4.13,1.387-5.526,3.159a4.213,4.213,0,0,1-1.039,1.111,3.426,3.426,0,0,1-.743.266c-.459-.017-.453-.248-.736-.365-.719-.295-1.969.049-2.779-.276-1.807-.724-.844-4.666-2.773-5.4-.8-.307-2.3.333-3.1.471a10.125,10.125,0,0,1-3.987.074,10.1,10.1,0,0,1-2.114-1.581,2.028,2.028,0,0,1-.654-1.1c-.923-.345-2.808-.27-3.4.415-.418.487-.5,1.136-.864,1.641-.286.393-.715.506-.659,1.1.1,1.02.573.216,1.138.493.588.287.468.436.474,1.161a8.208,8.208,0,0,1,0,1.42c-.137.755-.691,1.345-.56,2.152.733.169.776-.618,1.122-1.047a3.013,3.013,0,0,1,1.4-.86,5.35,5.35,0,0,0,2.107-2.171,12.62,12.62,0,0,1,.39-1.5,2.692,2.692,0,0,1-.39,1.5,9.2,9.2,0,0,0-.183,1.536,18.026,18.026,0,0,1,.1,3.034,14.344,14.344,0,0,0-.666,2.581,3.463,3.463,0,0,0,.875,2.252c.652,1,1.661,1.528,2.348,2.447.34.455.711,2.753,1.618,2.246a9.068,9.068,0,0,0,.853-2.51c.146-.774-.27-1.963.112-2.653.507-.913,1.906-.536,2.735-.495a25.546,25.546,0,0,0,3.725-.264c.752-.071,2.643.25,3.306-.088.394-.2.705-.767,1.2-1.03a9.483,9.483,0,0,0,1.644-.972,11.958,11.958,0,0,1,3.437-2.136c1.032-.38,2.093-.448,3.085-.9.553-.254,1.052-.548,1.611-.787.342-.147,1.484-.355,1.736-.65a6.839,6.839,0,0,0,.506-1.773,3.371,3.371,0,0,1-.532-.054A14.042,14.042,0,0,0,1090.01-667.745Z" transform="translate(-206.777 -83.629)" fill="#fff" stroke="#fff" stroke-miterlimit="10" stroke-width="1" opacity="0.5"/>
    <path id="Path_104" data-name="Path 104" d="M1098.185-675.727c-1.184-.353-2.4-.305-3.606-.551a19.338,19.338,0,0,1-2.937-1.045c-1.294-.472-2.753-.478-4.085-.826a7.793,7.793,0,0,1-2.95-1.925c-.876-.726-1.9-1.118-2.816-1.8a10.671,10.671,0,0,0-2.788-1.737,19.867,19.867,0,0,0-6.8-1.3,13.087,13.087,0,0,0-3.164,0c-1.132.33-1.536,1.36-2.168,2.139-.831,1.024-1.638,1.2-1.829,2.609a16.7,16.7,0,0,0-.077,4.087,4.975,4.975,0,0,0,.512,1.632,3.151,3.151,0,0,0,2.242.829c1.093-.059,2.378-.235,2.183-1.521-.093-.62-1.443-1.436-1.151-2.111.287-.659,1.989.386,2.759.27-.2-.479-2.4-1.485-1.425-2.464.743-.744,3.35.183,4.174.44,1.122.35,2.4.559,3.042,1.546.613.935.654,1.463,2.07,1.262.475-.068.884-.467,1.467-.276.6.2.881.835,1.214,1.376a6.033,6.033,0,0,0,2.225,2.309c1.439.779,3.109.609,4.774.687,1.688.08,3.268.422,4.955.474l-.095.095c0,.09-.052.408-.125.792l.409.252c1.66,0,3.273.149,4.92.085C1099.788-672.228,1100.759-674.961,1098.185-675.727Z" transform="translate(-208.313 -80.417)" fill="#fff" stroke="#fff" stroke-miterlimit="10" stroke-width="1" opacity="0.8"/>
    <path id="Path_105" data-name="Path 105" d="M367.2-590.136c-.4-3.712-1.3-8.323-4.731-10.245-2.049-1.149-4.033-.756-6.018-1.556-2.424-.976-1.786-2.748-.683-4.3,7.445-10.471-3.754-20.531-3.754-20.531-.831-1.1-.709-2.908-1.124-4.144-.466-1.383-1.027-3.107-1.533-4.383a26.347,26.347,0,0,0-5.651-8.98c-2.177-2.024-5.2-3.264-7.3-5.5-2.5-2.665-4.732-5.685-4.722-9.413-3.6-1.226-7.626-1.11-11.337-1.733-1.29-.216-3.6-.948-5.011-.364-1.446.6-2.979,2.851-4.316,3.824a14.558,14.558,0,0,1-5.126,2.615c-1.948.5-4.167-.031-6.077.6-1.99.659-2.952,2.4-4.652,3.574-1.947,1.348-4.261,2.439-6.211,3.545-3.738,2.118-6.328,4.362-7.6,8.445s-3.306,7.629-4.886,11.525c-3.164,7.8,3.049,15.226,6.025,21.918,1.839,4.132,5.157,6.469,8.922,9.026a13.924,13.924,0,0,0,2.262,1.206,19.3,19.3,0,0,0,5.214-2.251,2.27,2.27,0,0,1,.971-.428c.121-2.008.235-4.067.424-6.134.16-1.751.062-5.99,1.783-6.852,1.149-.576,3.715-.572,4.949-.733a27.28,27.28,0,0,1,3.435,0c3.053,0,4.105-.746,5.016-3.372,2.224,1.543,1.987,4.051,5.163,4.783,2.269.523,4.066.3,5.721-1.222,2.161-1.982,2.5-1.881,4.031,1,1.2,2.256,2.048,2.449,3.943,4.186,1.431,1.311,1.956,3.29,4.125,3.951.865.263,1.845-.115,2.7.235,1.232.508,1.042,1.169,1.833,2.009,3.024,3.209,7.835.842,10.681,3.584,1.749,1.685,2.778,2.492,5.436,2.389a21.97,21.97,0,0,1,2.98-.4c1.524.29,1.2.774,1.789,2.173.814,1.922,2.684,2.842,3.394,4.643.484,1.23.192,2.294,1.386,3.278.137.113.3.231.465.348-.007-.079-.011-.16-.021-.24C368.852-586.265,367.441-587.9,367.2-590.136Z" transform="translate(-18.263 -86.08)" fill="#fff" stroke="#fff" stroke-miterlimit="10" stroke-width="1" opacity="0.8"/>
    <path id="Path_106" data-name="Path 106" d="M373-572.629c-.71-1.8-2.58-2.721-3.394-4.643-.593-1.4-.264-1.883-1.789-2.173a21.98,21.98,0,0,0-2.98.4c-2.658.1-3.687-.7-5.436-2.389-2.846-2.742-7.657-.375-10.681-3.584-.79-.84-.6-1.5-1.833-2.009-.851-.351-1.831.028-2.7-.235-2.169-.661-2.694-2.64-4.125-3.951-1.895-1.737-2.745-1.931-3.943-4.186-1.532-2.883-1.87-2.984-4.031-1-1.655,1.518-3.452,1.745-5.721,1.222-3.177-.732-2.939-3.24-5.163-4.783-.911,2.626-1.963,3.376-5.016,3.372a27.268,27.268,0,0,0-3.435,0c-1.234.161-3.8.158-4.949.733-1.722.862-1.623,5.1-1.783,6.852-.19,2.067-.3,4.126-.424,6.134a2.27,2.27,0,0,0-.971.428,19.294,19.294,0,0,1-5.214,2.251c2.893,1.259,6.33,1.918,9.155,3.212,8.054,3.689,10.052,13.011,16.524,18.743,5.525,4.892,13.918,7.674,21.121,8.931a48.586,48.586,0,0,0,13.049.9c4.6-.437,6.445-3.084,9.253-6.41,2.371-2.808,4.544-5.519,5.784-8.949a12.379,12.379,0,0,0,.547-5.237c-.169-.117-.328-.235-.465-.348C373.194-570.335,373.486-571.4,373-572.629Z" transform="translate(-23.999 -100.901)" fill="#fff" stroke="#fff" stroke-miterlimit="10" stroke-width="1" opacity="0.8"/>
    <path id="Path_107" data-name="Path 107" d="M475.644-962c-4.306,6.758,15.783,14.593,20.527,12.112.686,6.191,8.5,12.785,12.183,18.352,1.495,2.257,4.275,7.824,7.064,5.153,2.659-2.546-1.073-7.863,3.123-9.83,1.624-.761,5.448.039,7.21.027,2.949-.019,4.529-.66,7.121-1.223a16.58,16.58,0,0,1,11.156,1.5c4.171,2.108,5.032,4.769,5.26,9.216.245,4.785-2.008,6.281-3.794,9.868-.553,1.11-.9,3.081-1.437,4.365-.934,2.22-1.461,3.019-1.6,5.5-.157,2.817,1.755,8.2.322,10.656-1.124,1.922-2.708.164-3.357,3.776a16.477,16.477,0,0,0,0,5.78c1.846,5.6,4.807-2.314,6.055-4.584,1.8-3.269,5.937-5.113,5.722-.718-.042.839-2.145,3.027-1.09,4.857.431.749,3.246,1.6,4.129,2.612,4.632,5.3,2.854,14.931,4.546,21.192.876,3.244,5.163,5.905,4.991,9.51,3.722,1.734,5.74,1.291,7.155,5.465.308.909-.292,2.063.056,2.98.259.683,1.812,1.127,2.167,1.879.645,1.375,1.974,3.941,1.127,5.523-.9,1.671-3.746.936-5.163,1.673-2.013,1.047-2.06,2.519-3.485,4.194-3.142,3.693-6.048,3.965-10.544,3.454-.154,1.527.219,3.433-.1,4.98-.406,1.949-1.436,2.568-2.38,4.378-1.506,2.886.414,7.41-1.112,9.953-1.714,2.857-6.072.746-8.557,3a36.222,36.222,0,0,0-5.78,8c-1.294,2.4-1.542,6.3-3.116,8.645-1.978,2.949-6.17,3.448-8.738,5.39-3.17,2.4-5.341,3.047-9.369,3.447a25.575,25.575,0,0,0-10.621,3.469c-.811,1.808-2.029,4.017-4.164,4.454-1.688-6-3.613-6.425-9.271-7.84-3.063-.767-9.432-4.416-8.685-7.99-2.3-1.228-3.923-1.739-5.645-3.112-1.168-.932-.781-1.493-2.469-2.285-1.43-.671-2.743.118-4.28-.836-2.632-1.635-2.054-2.841-5.4-3.332a7.113,7.113,0,0,0-6.862,2.284c-.036-3.677-2.195-1.319-3.469-2.62-1.405-1.433-1.669-3.081-3.232-4.5-2.4-2.183-7.944-.62-9.527-2.746-2.686-3.607,4.147-4.5,4.517-7.967.429-4.006-4.157-5.2-6.957-6.853,3.464-2.607,2.209-6.686,2.432-10.94,3.8-.2,5.439-.317,8.7-2.05a10.422,10.422,0,0,1,3.407-1.445c1.682-.436,2.873.148,4.953-1.231,5.746-3.806-.6-9.624.4-15.414,3.154-.506.465,3.317,3.68,2.961-.276-.9.024-2.434-.263-3.33,2.9.32,7.124.282,5.958-4.158-1.564-.405-2.64-1.479-4.014-1.973-1.323-.475-4.143-.156-5.131-.742-4-2.38,1.326-4.555.79-7.2-.7-3.436-6.4-3.783-9.05-3.816-4.192-.051-6.688-.305-10.167-2.332-1.582-.922-2.32-1.868-4.64-2.221-2.12-.323-3.508-.257-5.394-1.14-3.375-1.581-6.475-3.284-9.683-5.135a24.409,24.409,0,0,0-10.394-2.773c-1.491,0-2.231,1.131-4.505.777-1.937-.3-3.138-1.582-5.28-1.288-1.323-1.518-2.776-1.882-4.6-2.591-.73-.283-1.895.393-2.571-.029-1.219-.761-.794-2.561-1.692-3.386-2.921-2.686-8.447-.258-11.7-2.281-4.267-2.651,4.335-5.39,6.506-7.3,1.938-1.707.5-2.113,3.678-2.647,2.195-.369,5.211.274,7.658.378,8.188.347,17.529-1.566,22.33-8.827a61.437,61.437,0,0,0,3.814-5.725c.815-1.676.26-4.283,1.189-6.093,1-1.949,1.973-2.158,2.673-4.324.684-2.117.1-4.038,1.437-6.134a19.538,19.538,0,0,1,9.1-7.456c4.176-1.776,7.539-4.843,11.737-6.717,4.069-1.818,8.05-4,11.875-5.774,3.677-1.706,8.568-3.671,11.028-6.944Z" transform="translate(-43.386 -13.725)" fill="none" stroke="#fff" stroke-miterlimit="10" stroke-width="1" fill-rule="evenodd"/>
    <path id="Path_108" data-name="Path 108" d="M505.883-962l-.368.461c.015.048.036.1.05.146A4.1,4.1,0,0,1,505.883-962Z" transform="translate(-73.625 -13.725)" fill="#fff" stroke="#fff" stroke-miterlimit="10" stroke-width="1" opacity="0.5"/>
    <path id="Path_109" data-name="Path 109" d="M702.615-929.894c-7.607-2.572-15.292.828-20.906-5.743-2.58-3.019-2.8-6.646-4.914-9.426-2.629-3.457-6.516-3.879-10.564-3.87-8.1.017-15.405-.229-22.4-4.1-7.887-4.37-14.214-4.938-23.463-5.39-3.609-.176-7.874-1.9-11.453-1.136-1.865.4-2.688,1.5-4.555,2.286-1.956.821-4.529.252-6.554.731-4.2.993-8.131,2.314-12.463,2.693-4.075.356-7.531.383-11.182,1.937-7.07,3.007-14.8,6.726-19.536,12.85a22.828,22.828,0,0,0-4.33,9.536c1.571,2.522,3.853,5.875,6.142,3.684,2.659-2.547-1.074-7.863,3.123-9.83,1.624-.761,5.448.039,7.21.027,2.949-.019,4.529-.66,7.121-1.223a16.579,16.579,0,0,1,11.156,1.5c4.171,2.108,5.032,4.769,5.26,9.216.245,4.785-2.008,6.281-3.794,9.868-.553,1.11-.9,3.081-1.437,4.365-.934,2.22-1.461,3.019-1.6,5.5-.157,2.817,1.755,8.2.322,10.656-1.124,1.922-2.708.164-3.357,3.776a16.476,16.476,0,0,0,0,5.78c1.846,5.6,4.807-2.314,6.055-4.584,1.8-3.269,5.937-5.113,5.722-.718-.042.839-2.145,3.027-1.09,4.857.431.749,3.246,1.6,4.129,2.612,4.632,5.3,2.854,14.931,4.546,21.192.876,3.244,5.163,5.905,4.991,9.51,3.722,1.734,5.74,1.292,7.155,5.465.308.909-.292,2.063.056,2.98.259.683,1.812,1.127,2.167,1.879.633,1.348,1.919,3.841,1.168,5.428a9.022,9.022,0,0,1,.784.635l.38-1.518c2.158-3.2,3.854-7.714,7.585-9.594,3.555-1.792,8.13-.9,11.84-2.251,5.071-1.846,7.374-5.286,7.12-9.782-.231-4.065-.585-6.273,1.99-9.576,4.5-5.773,10.274-10.579,15.132-16.236,2.8-3.261,5.95-3.243,8.783-5.717,3.211-2.8,3.486-5.84,4.935-9.5,2.41-6.089,7.229-8.046,13.137-9.09,5.1-.9,10.414.8,15.205-.066C706.874-916.994,702.224-922.674,702.615-929.894Z" transform="translate(-84.409 -14.266)" fill="none" stroke="#fff" stroke-miterlimit="10" stroke-width="1"/>
    <path id="Path_110" data-name="Path 110" d="M742.211-836.044c-1.86-1.632-2.843-3.064-5.593-3.121-3.539-.073-3.647,1.679-6.45,3.332-5.262,3.1-9.317-2.936-13.213-6.181-4.623-3.851-6.426-8.7-6.08-14.567,3.747-.73,4.014-5.425,5.911-8.019a69.038,69.038,0,0,1,7.01-8.739c1.505-1.453,2.462-1.6,3.682-3.484a21.079,21.079,0,0,0,2.7-7.136c.651-3.766-.3-7.729-1.433-11.073-1.255-3.708-2.469-7.386-3.778-11.009-1.129-3.126-2.187-8.24-4.28-10.544a3,3,0,0,0-.383-.349c.567,6.011,3.614,11.093-.449,16.965-4.791.868-10.1-.836-15.205.066-5.907,1.044-10.726,3-13.137,9.09-1.449,3.659-1.724,6.695-4.935,9.5-2.833,2.474-5.985,2.456-8.783,5.717-4.857,5.658-10.631,10.463-15.132,16.236-2.574,3.3-2.221,5.511-1.99,9.576.254,4.5-2.049,7.937-7.12,9.782-3.71,1.351-8.285.459-11.84,2.251-3.731,1.881-5.427,6.391-7.585,9.594l-.38,1.518a9.022,9.022,0,0,0-.784-.635c-.015.031-.024.064-.041.094-.9,1.671-3.746.936-5.163,1.672-2.013,1.047-2.06,2.519-3.485,4.194-.263.309-.524.586-.785.849,2.206.536,4.067,3.277,4.564,5.015.672,2.351-.77,5.353,2.981,5.286.723,2.565.513,5.543.436,8.255-.062,2.162-1.285,5.233-.758,7.178,1.662,6.134,12.015-.056,14.108,6.385,3.136-.67,4.307-5.592,7.89-5.649,1.805-.029,2.32,1.349,3.805,1.532,1.174.143,3.526-1.077,4.2-.785,2.82,1.233.323,1.78.815,3.431a33.817,33.817,0,0,0,1.908,3.878c1.3,2.909,1.052,6.891-3.082,7.871.525,1.834,2.926,2.02,2.625,4.194-.277,2.008-2.577,1.865-4.117,3.1-.189,3.91.8,4.475,2.2,7.444,1.215,2.584,1.278,6.273,1.1,9.518-5.174.358-11.72,8.016-10.516,13.294,7.049,1.162,13.865,5.392,20.81,5.363,3.168-.014,9.734-1.978,12.169-3.882,1.412-1.1,2.185-2.761,3.312-3.995,1.5-1.646,2.788-2.382,4-4.652,2.123-3.987,3.349-7.92,6.275-10.866,1.448-1.458,1.876-1.374,2.814-3.473a35.142,35.142,0,0,1,2.287-4.935c2.324-3.681,3.637-5.634,4.472-9.954.71-3.675,3.664-7.96,3.321-11.787-.2-2.245-2.274-3.605-1.795-5.986,5.57-.643,6.657-6.347,10.589-9.946,1.928-1.764,5.014-2.16,6.777-3.74,1.554-1.394,3.116-4.135,4.93-5.836,3.584-3.361,6.162-8.391,10.618-10.545,3.213-1.554,10.117-6.732,13.672-6.443C749.631-831.193,746.573-832.219,742.211-836.044Z" transform="translate(-102.032 -24.577)" fill="none" stroke="#fff" stroke-miterlimit="10" stroke-width="1"/>
    <path id="Path_111" data-name="Path 111" d="M878.112-732.27c-2.156-1.9-3.929-4.879-6.553-5.929-7.383,7-13.2,15.842-21.357,21.814-3.544-3.287-6.137-7.923-9.622-11.465-2.871-2.918-5.771-6.1-8.8-9.034-3.554-3.454-5.977-8.01-9.482-11.563-3.013-3.054-5.484-6.588-7.968-9.618-3.876-4.728-11.852-6.979-17.017-9.615-5.065-2.587-10.461-5.323-13.623-10.378-1.629-2.6-3.094-5.393-4.6-7.912-1.63-2.72-1.86-4.349-2.026-7.53-.175-3.378-1.079-4.893-3.493-7.1-.463-.424-1.316-1.08-2.158-1.839a36.661,36.661,0,0,1-5.806.891l-.093.006c-2.842,1.539-5.746,3.5-7.522,4.362-4.457,2.155-7.034,7.184-10.618,10.546-1.814,1.7-3.375,4.442-4.93,5.836-1.763,1.58-4.849,1.975-6.777,3.74-3.932,3.6-5.019,9.3-10.589,9.946-.479,2.381,1.594,3.741,1.795,5.986.343,3.827-2.611,8.112-3.321,11.787-.836,4.32-2.149,6.273-4.472,9.954a35.147,35.147,0,0,0-2.287,4.935c-.938,2.1-1.367,2.015-2.814,3.473-2.926,2.946-4.152,6.878-6.275,10.866-1.209,2.27-2.494,3.006-4,4.652-1.127,1.234-1.9,2.891-3.312,3.995-1.823,1.425-5.959,2.884-9.253,3.533-1.406,5.078,3.792,11.594,1.058,16.241-2.47,4.2-5.718,5.649-.165,7.945,2.083.862,2.713-.237,4.2,1.966.452.668.761,3.213,1.109,4.177,2.071,5.734,4.839,10.8,10.26,14.348a16.2,16.2,0,0,1,5.768,5.76c1.825,3.064.808,6.136,1.883,9.46,1.758-.3,3.487,1.153,4.826.812,2.3-.585,2.464-2.521,4.179-4.18,1.8-1.741,5.116-2.768,6.906-4.859.982-1.149,1.272-3.714,2.234-4.628,2.01-1.911,8.082-1.474,11-1.91,1.566-.233,3.945.093,5.416-.448,2.013-.739,3.119-2.78,4.76-4.086a22.612,22.612,0,0,1,10.7-4.586c2.168-.2,4.247.6,6.481.4,2.347-.209,3.63-1.271,5.768-1.906,3.867-1.147,8.269.381,11.694-1.778,1.794-1.13,1.954-2.652,3.4-3.854,1.646-1.367,3.685-1.11,5.208-1.989,2.114-1.221,3.525-3.461,5.9-4.23,1.945-.629,4.3-.289,6.348-.289,4.428,0,7.572-.553,11.2-2.931,1.4-.918,2.922-3.253,4.284-3.93,1.8-.9,3.879.143,5.872.026,4.151-.244,6.4-3.176,9.776-5.3,1.891-1.193,3.855-2.748,5.6-3.729,1.935-1.089,3.839-1.045,5.8-2.038,4.412-2.238,2.95-5.836,7.594-7.559,3.548-1.316,8.342-2.207,11.009-4.513,3.322-2.872,4.122-4.917,6.159-8.731,1.709-3.2,4.166-3.691,7.487-4.65C882.732-730.545,880.41-730.242,878.112-732.27Z" transform="translate(-117.802 -52.146)" fill="none" stroke="#fff" stroke-miterlimit="10" stroke-width="1"/>
    <path id="Path_112" data-name="Path 112" d="M1071.646-648.606c-.622-3-.32-4.418-3.492-4.675-2.278-.185-5.229,1.759-7.6,2.009-4.493.474-9.814.188-13.892-1.5-.334,4.116,4.537,5.554,4.126,9.83-.182,1.9-.254,4.1-3.035,2.981-2.742-1.1-.863-3.423-2.614-4.581a8.281,8.281,0,0,0-.1-1.759c-.569-.022-1.218-.129-1.784-.114a6,6,0,0,0-.115-1.4c-2.231-.172-2.28,2.089-4.573,1.754-3.212-.469-1.822-2.581-2.667-5.174-1.348-4.139-3.848-6.408-7.99-7.057-2.256-.352-5.151-.549-7.119-1.816-1.594-1.026-2.146-3.353-3.915-4.055a4.021,4.021,0,0,0-4.465,1.147c-.538.533-1.421,1.16-1.633,1.928-.125.453.03,2.162.777,2.149-1.735.031-3.6-.758-5.187.125-1.225.681-2.657,3.188-4.033,4.2a28.68,28.68,0,0,1-5.447,3.4c-1.967.832-4.6.361-5.9,2.538a5.06,5.06,0,0,1,3.588,1.165,3.132,3.132,0,0,1-2.976,1.594c.871,1.248,2.436,1.365,4,1.111,1.016,3.878-4.2,2.275-6.374,3.35-3.667,1.816-7.68,5.289-10.962,7.682a39.858,39.858,0,0,0-8.626,8.3c-1.524,2.106-2.381,5.039-4.217,6.881a2,2,0,0,1-3.306-2.174,52.139,52.139,0,0,0,1.764-5.089,14.46,14.46,0,0,1,2.109-4.425c.193-.309,1.138-1.745,1.042-2.065-.218-.726-1.193-.15-1.619-.41-.538-.329-.464-.551-.693-1.114-.56-1.378-.948-2.779-1.6-4.15-.384-.807-1.378-1.294-1.559-2.184-.251-1.237.848-2.665,2.085-2.127,2.432,1.056,1.805,5.161,4.9,5.846,2.93.648,4.239-.982,6.321-2.376,1.2-.807,2.476-1.035,3.52-2.057,1.358-1.33,6.312-6.431,3.3-8.177-1.32-.766-3.041.132-4.323.469-1.44.38-1.748.3-1.966-1.173a9.72,9.72,0,0,1-.094-2.588c2.241-.6,8.287-1.61,6.415-5.294-2.138-4.207-6.84,1.438-9.064,2.209-1.859.645-3.611,1.449-3.1-2.116.341-2.377,2.184-2.611,4.143-3.586,2.728-1.356,8.123-1.2,9.521-3.794a4.891,4.891,0,0,0-3.361-.893c-.446-2.557,2.426-2.855,4.11-3.762-.832-.657-1.8.032-2.625.384-1.427.612-3.158,1.5-4.706,2.007-1.409.462-3.411.121-4.91.121a20.817,20.817,0,0,1-4.225-.377,16.9,16.9,0,0,1-5.17-2.053c-1.121-.847-1.346-2.215-2.247-3.142a3.049,3.049,0,0,0-1.392-.813c-.019.064-.035.128-.055.191-.47,1.487-.644,4.131-1.611,5.32-.98,1.2-3.052.935-4.4,1.123a46.373,46.373,0,0,1-6.433.383c-2.868,0-5.693-.082-8.35.978a48.812,48.812,0,0,1-5.941,2.055c-7.6,1.965-15.878-.613-23.616.862-2.026.386-9.476,1.273-10.1-.77-.424-1.392,0-3.879,0-5.352,0-1.447.035-2.9-.1-4.331a14.966,14.966,0,0,0-3.195-7.623c-.746-.954-1.891-1.668-2.647-2.621-.952-1.2-1.87-2.41-2.793-3.616-2.751,1.714-6.781,2.537-9.867,3.683-4.643,1.723-3.182,5.321-7.594,7.559-1.958.994-3.862.95-5.8,2.038-1.744.981-3.709,2.536-5.6,3.729-3.372,2.128-5.625,5.06-9.776,5.3-1.993.117-4.067-.924-5.872-.027-1.362.677-2.885,3.012-4.284,3.93-3.625,2.378-6.769,2.931-11.2,2.931-2.043,0-4.4-.34-6.348.289-2.376.768-3.787,3.009-5.9,4.23-1.523.879-3.562.622-5.208,1.989-1.447,1.2-1.607,2.723-3.4,3.854-3.425,2.159-7.827.631-11.694,1.778-2.138.635-3.421,1.7-5.768,1.906-2.234.2-4.312-.6-6.481-.4a24.713,24.713,0,0,0-11.272,4.586,40.691,40.691,0,0,1-3.894,3.258v.147a18.19,18.19,0,0,0,12.62,15.637c8.17,2.442,15.088,3.3,17.451,12.456.433,1.672.428,3.617.859,5.285.58,2.246,1.988,3.955,2.7,5.787,1.377,3.53.427,7.814,1.993,11.341,1.291,2.908,4.294,5.655,5.439,8.713a12.1,12.1,0,0,1,.686,6.937c-.429,1.9-2.33,2.885-1.464,5.191a14.73,14.73,0,0,0,2.984,4.194c2.736,2.965,5.811,4.621,8.467,7.621,2.4,2.713,5.579,4.622,8.326,6.32,1.922,1.189,4.607,1.736,6.47,2.912,1.576,1,2.207,3.02,3.665,4.12,2.024,1.528,7.632,5.144,9.889,5.313,4.877.364,6.467-7.178,11.018-7.72,6.64-.792.187,6.859-.3,8.557-1.309,4.6.753,7.11,3.044,10.366,1.928,2.741,3.257,7.619,6.277,9.315,1.706.958,3.76.013,5.491.684,2.178.844,3.626,2.249,5.99,2.991,1.934.608,4.293.483,6.064,1.234,2.256.957,2.685,2.628,4.64,3.632,1.745.9,4.258-.642,5.988-.3,1.555.307,2.436,1.464,4.149,1.9,4.56,1.172,8.124-2.549,12.528-1.45,4.8,1.2,5.725,5.277,7.979,8.729,1.95,2.989,5.888,6.746,9.5,7.9,2.7.864,2.713-.335,4.576,1.973,1.228,1.523,1.259,3.3,3.006,4.768,3.684,3.1,5.715,3.631,9.862,2.417,4.662-1.366,5.9-1.162,10.182.7a11.885,11.885,0,0,0,10.334-.008c3.241-1.416,5.032-5.989,8.657-7.885,1.644-.86,3.791-.711,5.419-1.224,1.653-.52,3.7-1.972,5.314-1.887,3.973.208,3.5,4.776,8.12,3.877,3.515-.684,6.257-5.1,9.044-7.3,1.672-1.32,3.356-2.272,4.873-3.443,2.021-1.561,1.322-.164,2.6-3.019,1.638-3.641,3.84-6.4,5.583-9.483-3.5-4-5.718-9.28-9.665-12.894-4.246-3.89-13.128-.864-16.4-5.8-3.29-4.967-.723-12.663-1.14-18.023-.26-3.338-1.674-4.545-.955-8.14.6-3,4.033-9.485,2.717-12.09-1.285-2.545-6.27-1.824-7.556-4.829-1.127-2.633,1.843-11.982-3.259-10.672-.613,1.156-2.987,3.729-4.646,3.129-.837-.3-1.824-3.8-2.6-4.617,3.476-1.676,6.719-.423,10.213-.837,3.184-.378,2.906-2.01,5.258-3.47a30.507,30.507,0,0,1,5.3-1.936c3.993-1.165,7.526,1.6,11.462-1.889,2.675-2.373,5.277-6.552,5.75-10.118,4.283-.775,5.263,2.555,8.676,3.674,3.02.991,6.852-.629,9.954.066,3.763.843,3.858,3.158,6.368,6.094,3.52,4.12,4.149,1.771,7.972.457,2.893-.995,7.086.744,8.821-1.9.376-.575,1.379-7.62,1.372-7.749-.246-4.337-2.439-1.784-5.266-4.029-2.2-1.746-2.786-6.282-1.852-8.8,2.824-.117,4.857,2,7.071,3.11a66.635,66.635,0,0,1,8.294,4.841c.819-2.158,2.134-4.637,1.908-6.905-.143-1.431-1.628-1.137-1.689-2.66-.024-.588,1.27-2.443,1.46-3.322.614-2.846-.538-4.948-1.509-7.222-1.143-2.675-1.612-3.4-1.49-6.756,4.351-.588,1.414-6.353,1.482-8.806A7.906,7.906,0,0,1,1071.646-648.606Z" transform="translate(-137.19 -79.968)" fill="none" stroke="#fff" stroke-miterlimit="10" stroke-width="1"/>
    <path id="Path_113" data-name="Path 113" d="M478.775-750.842c-1.688-6-3.613-6.425-9.271-7.84-3.063-.767-9.432-4.416-8.685-7.99-2.3-1.228-3.923-1.739-5.645-3.112-1.168-.932-.781-1.493-2.469-2.285-1.43-.671-2.743.118-4.28-.836-2.632-1.635-2.054-2.841-5.4-3.332a7.113,7.113,0,0,0-6.862,2.284c-.036-3.677-2.195-1.319-3.469-2.62-1.405-1.433-1.669-3.081-3.232-4.5-2.4-2.183-7.944-.62-9.527-2.746-2.686-3.607,4.147-4.5,4.517-7.967.429-4.006-4.157-5.2-6.957-6.853,3.464-2.607,2.209-6.686,2.432-10.94,3.8-.2,5.439-.317,8.7-2.05a10.422,10.422,0,0,1,3.407-1.445c1.682-.436,2.873.148,4.953-1.231,5.746-3.806-.6-9.624.4-15.414,3.154-.506.465,3.317,3.68,2.961-.276-.9.024-2.434-.263-3.33,2.9.32,7.124.282,5.958-4.158-1.564-.405-2.64-1.479-4.014-1.973-1.323-.475-4.143-.156-5.131-.742-4-2.38,1.326-4.555.79-7.2-.7-3.436-6.4-3.783-9.05-3.816-4.192-.051-6.688-.305-10.167-2.332-1.582-.922-2.32-1.868-4.64-2.221-2.12-.323-3.508-.257-5.394-1.14-3.375-1.581-6.475-3.284-9.683-5.135a24.409,24.409,0,0,0-10.394-2.773c-1.491,0-2.231,1.131-4.505.777-1.937-.3-3.138-1.582-5.28-1.288-1.323-1.518-2.776-1.882-4.6-2.591-.73-.283-1.895.393-2.571-.029-1.219-.761-.794-2.561-1.692-3.386-2.646-2.433-7.422-.682-10.717-1.829L357.869-870c1.685,7.336-8.832,9.6-7.516,17.6.191,1.159,2.221,1.567,2.479,3.533a11.633,11.633,0,0,1-1.011,4.189c-2,3.455-5.132,2.16-8.045,4.636.293,4.167,1.609,7.657-.058,12.04-.639,1.682-2.358,6.264-3.667,7.641-1.975,2.078-5.142,1.415-6.881,2.985-1.656,1.5-.525,3.126-1.7,4.466-1.323,1.512-3.656,2.262-5.068,3.662a42.062,42.062,0,0,0-5.232,6.018c-1.806,2.808-2.055,5.3-3.788,8.048-.7,1.1-2.836.572-3.527,1.711-.477.785.43,2.193-.011,2.944a48.864,48.864,0,0,1-3.024,5.052c-1.8,2.449-3.306,3.3-4.09,6.579-.366,1.536.241,4.675-.1,5.68-2.615,7.777-15.373,4.864-19.6,12.562,2.742,1.145,5.2.79,8.045,1.5,1.7.424,3.111-.717,4.12.992a1.6,1.6,0,0,1-.594,2.531c4.295-.115,5.16.851,8.114,4.463,3.139,3.837,7.161,4.891,11.67,6.176,4.9,1.4,10.5,1.187,15.183,3.667,4.567,2.421,9.167,5.778,13.282,8.406,16.589,10.6,26.7,32.523,26.7,52.736,0,7.5,2.267,11.46,3.933,18.207,1.487,6.025,1.191,11.863,3.8,17.6.627-5.809,4.9-8.316,5.431-14.057.588-6.362,2.587-9.126,6.566-13.626,4.389-4.961,8.864-9.77,12.655-15.125,1.666-2.354,3.123-4.639,4.962-6.8,2.432-2.861,3.108-1.938,5.789-3.381,10.192-5.488,9.881-19.865,20.171-25.762,2.152-1.233,5.454-2.142,6.849-4.479.759-1.272-.357-2.957.177-4.214.86-2.029,1.739-2.334,2.949-4.091.605-.88,3.524-5.614,4.049-5.608-.5-.006,3.9,4.15,4.781,4.614,2.613,1.375,4.929.861,7.6,1.149,3.145.341,7.667,2.767,10.515,2.453,6.41-.707,6.67-7.014,7.15-11.983.222-2.3,1.324-2.611.6-5.741-.111-.473-.224-.919-.339-1.345A4.374,4.374,0,0,1,478.775-750.842Z" transform="translate(-21.018 -35.878)" fill="none" stroke="#fff" stroke-miterlimit="10" stroke-width="1"/>
    <path id="Path_114" data-name="Path 114" d="M259.455-577.615c-.031-.087-.062-.175-.091-.258-.042-.12-.08-.235-.112-.343-.574-1.917-.431-4.2-.7-6.19-.247-1.849-.15-3.687-.244-5.57-.083-1.692-.957-4.171-.247-5.79,1.141-2.606,7.073-5.274,9.61-6.623,2.779-1.477,3.107.512,5.428.856a6.632,6.632,0,0,0,2.32-.348,13.923,13.923,0,0,1-2.262-1.206c-3.765-2.556-7.083-4.894-8.922-9.026-2.976-6.692-9.189-14.114-6.025-21.918,1.58-3.9,3.623-7.454,4.886-11.525s3.858-6.327,7.6-8.445c1.95-1.105,4.264-2.2,6.211-3.545,1.7-1.178,2.663-2.915,4.652-3.574,1.91-.633,4.129-.1,6.077-.6a14.558,14.558,0,0,0,5.126-2.615c1.337-.973,2.871-3.225,4.316-3.824,1.408-.583,3.721.148,5.011.364,3.711.623,7.737.507,11.337,1.733-.011,3.728,2.222,6.749,4.722,9.413,2.1,2.238,5.122,3.478,7.3,5.5a26.347,26.347,0,0,1,5.651,8.98c.506,1.275,1.067,3,1.533,4.383.415,1.236.294,3.04,1.124,4.144,0,0,11.2,10.06,3.754,20.531-1.1,1.553-1.742,3.325.683,4.3,1.985.8,3.968.407,6.018,1.556,3.427,1.922,4.329,6.532,4.731,10.245.242,2.235,1.653,3.871,1.9,6.072.009.08.014.541.021.62.911.635,2.2,1.659,3.132,1.659h.2c0-3.8-1.474-7.608-2.737-10.835-.667-1.711-1.653-3.565-2.386-5.233-.875-1.991-1.75-4.136-2.645-6.087-3.364-7.323-3.383-16.189-7.187-23.357-1.663-3.133-5.027-6.924-5.784-10.374-.966-4.4-2.065-8.382-4.579-12.15-2.133-3.2-6.256-5.945-9.175-8.383-1.755-1.467-3.651-2.621-5.367-4.085-1.686-1.439-3.424-3.35-5.342-4.286-1.738-.849-4-1.152-5.884-1.994a16.857,16.857,0,0,0-4.758-1.451c-3.095-.456-8.212-3.009-9.943-5.819-.893-1.449-.127-3.337-.572-4.944-.613-2.209-2.531-2.47-4.6-2.382a13.11,13.11,0,0,0-3.387.852c-.721.2-2.221.035-2.792.34-1.238.66-1.685,3.694-2.98,4.992a49.318,49.318,0,0,1-4.838,3.579,24.081,24.081,0,0,0-3.939,4.618,59.1,59.1,0,0,1-8.365,9.086c-3.284,2.759-6.438,5.644-10.022,8.115-2,1.381-3.9,2.973-5.74,4.5-2.386,1.979-2.338,2.365-.632,5.032a9.938,9.938,0,0,1,1.8,6.308c-1.23-.374-2.276-3.789-3.359-4.971-1.91-2.085-3.558-1.157-5.6.36A112.9,112.9,0,0,1,221.873-640c-3.372,1.925-7.114,4.52-10.969,5.932-3.634,1.331-7.41,2.539-11.116,3.656-.3,2.171,1.288,3.344,2.162,5.139.888,1.824,1.012,3.7,1.939,5.412,1.748,3.232,4.024,6.079,5.941,9.158.992,1.591,2,2.962,3,4.381.869,1.228,1.866,3.414,3.017,4.4,1.559,1.341,3.124.8,3.947,3.022.977,2.646.309,2.987,3.6,3.174.83,2.171,1.712,2.667,3.374,4.321a8.354,8.354,0,0,0,2.247,2.036c.884.4,2.19-.219,3.022.186,1.033.5,1.351,3.054,1.745,4.389.421,1.424.62,1.3-.354,2.805-.443.686-1.838,1.588-1.4,2.586s1.745.411,2.511.588c1.764.408,1.147.33,1.844,1.639a4.7,4.7,0,0,0,1.808,2.1c.6.5,1.447.96,1.745,1.684.452,1.1.2,2.156.749,3.3.525,1.109,1.156,2.1,1.721,3.221.921,1.827,2.524,3.6,2.951.6.232-1.631-.475-3.706-.367-5.471,1.3,1.637,1.822,3.709,2.512,5.64.509,1.422,2.515,3.892,2.245,5.4-.224,1.253-1.118,1.048-1.389,2.168.752.079.961.5,1.414.839a4.856,4.856,0,0,0-.411.767c1.312.085,1.13,1.043,0,1.254.727,1.573,2.032.962,3.331.4a1.386,1.386,0,0,1-1.742,1.6c.783,1.24.28,2.427.183,3.918-.081,1.245-.3,2.955-.418,4.006-.152,1.4.144,2.851.014,4.254-.187,2.026-1.675,2.7-2.028,4.316-.248.015-.484,0-.728-.01-.279-1.272-.295-2.74-1.477-3.567.126-.146.292-.232.377-.335-.842-1.7-1.606-.815-2.74-1.873.007.5.28,1.982.391,2.779-.939-.218-3.977-1.254-4.616-.771-2.026,1.533,2.327,2.465,2.279,3.772.285.112,1.185.322,1.366.573.1.139.5.942.6,1.045.735.8.461,1.112,1.919,1.414a5.754,5.754,0,0,1,.029,2.317c-.354.9-1.36,1.06-1.763,2.049-.479,1.179.418,3.808,1.623,3.966.148-.443-.036-1.436.181-1.823.4-.708.96-.775,1.554-1.535.729-.934,1.89-3.114,1.728-4.091.6,3.012.916,4.786,4.665,4.449.054-1.191-.83-1.658-1.17-2.6a9.132,9.132,0,0,1-.166-3.319c.3.22.817.18,1.167.6.871-.864,1.8-2.59,3.167-2.455-1.111-1.446-1.637-2.647.619-3.358,2.1-.661,3.47-.005,3.776-2.954-1.286-.457-2.559-.311-3.756-.867-.31-1.885.093-5.381,2.612-4.318.247-1.2,1.288-1.621,1.556-2.814.233-1.038-.191-2.139-.178-3.168.535.088,1.257-.155,1.75-.106.121-3.03-1.99-2.984-2.562-5.447-.426-1.835.343-2.255-.982-4.055-.739-1-1.594-1.954-2.248-3.006a3.574,3.574,0,0,1,2.617,1.022v-.2c-.759-1.06.428-2.707-.238-3.832-.413-.7-1.155-.758-1.567-1.49a7.556,7.556,0,0,1-.247-2.825c2.172.345,2.009-1.118,1.534-2.561-.109-.333-.208-.663-.319-.972C259.449-577.565,259.464-577.59,259.455-577.615Z" transform="translate(0 -79.207)" fill="none" stroke="#fff" stroke-miterlimit="10" stroke-width="1"/>
    <path id="Path_115" data-name="Path 115" d="M393.886-486.97c-1.317-.395-1.149-1.19-1.686-2.167a4.792,4.792,0,0,0-1.891-2.221c-1.7-1.19-2.981-1.348-4.936-1.954-1.74-.54-2.981-1.634-4.717-2.026a18.61,18.61,0,0,1-5.866-2.631,18.81,18.81,0,0,1-8.953-17.626c-.73,1.14-2.03,2.936-1.5,4.5.117.346.929.383,1.134.987a6.564,6.564,0,0,1-.024,1.276c.078.963.307,2.18-.731,2.5a6.025,6.025,0,0,0-.033,1.628c.023.068.05.133.073.2,1.765-.288,3.263,1.814,2.939,3.432-2.657.421-2.3-1.257-2.86-3.208-.023-.077-.055-.147-.079-.224-.017,0-.033,0-.049.005-.01-.064-.015-.139-.023-.208-.516-1.526-1.31-2.826-1.846-4.3-.758-2.094.707-3.487,1.324-5.519.52-1.715,1.212-3.467,1.846-5.106.8-2.061,1.286-4.048,1.953-6.138a11.515,11.515,0,0,1,.662-2.389c.664-.829,1.259-.7,2.14-1.167,1.216-.638,4.737-2.5,5.355-3.564.907-1.561.167-.676-.768-1.366-.774-.571-1.542-1.166-2.31-1.816a15.389,15.389,0,0,1-3.976-4.419c-.508.7-1.307,2.931-2.283,3.285-1.792.651-.583-1.3-.236-2.08.506-1.137,1.1-2.247,1.509-3.364.475-1.288.359-2.6.787-3.827.6-1.73,1.272-1.582,1.352-3.528a17.735,17.735,0,0,1,.185-3.993c.6-2.146,3.373-3.276,3.715-5.475a1.734,1.734,0,0,0-.282-1.537c-.292-.347-.743-.616-1.23-1.192l-.005.373a7.58,7.58,0,0,1,.02.8h-.2c-.927,0-2.221-1.023-3.132-1.659a11.511,11.511,0,0,1-.547,5.047c-1.241,3.43-3.413,6.046-5.784,8.854-2.808,3.326-4.654,5.926-9.253,6.363a48.619,48.619,0,0,1-13.049-.919c-7.2-1.256-15.6-4.05-21.121-8.943-6.472-5.732-8.47-15.06-16.524-18.75-2.824-1.294-6.262-1.956-9.155-3.214a6.642,6.642,0,0,1-2.32.347c-2.32-.344-2.649-2.335-5.428-.856-2.537,1.349-8.469,4.016-9.61,6.622-.71,1.619.164,4.1.247,5.79.094,1.883,0,3.72.244,5.57.267,1.992.124,4.273.7,6.19.032.108.071.223.112.343.029.083.06.17.091.258.009.025.017.05.028.077.111.308.233.639.343.972l0,.011a4.038,4.038,0,0,1,2.365,3.262c.169.762.581,1.321.731,1.9a32.838,32.838,0,0,1,.6,4.189c.174,1.323.028,3.205,2.068,2.244.008,0,.745-1.342.831-1.451.313-.392.853-.086,1.037-.487a1.893,1.893,0,0,1,.049-.648,1.271,1.271,0,0,1-.049.648,1.384,1.384,0,0,0,1.16,1.24c.064,1.118-.574,3.468,1.1,3.222-.061.324.18.917.095,1.282a2.929,2.929,0,0,0,1.229,0c-.335-2.049.727-1.3,1.4-.171a8.136,8.136,0,0,1,.948,3.415c.038,1.2-.5,1.276.343,2.654.667,1.092,1.287,1.858,2.732,1.143-.141-.054-.411-.141-.585-.217-.154-1.133.707-2.586,1.88-1.717,1.031.765-.1,1.391-.4,2.458-.383,1.369-1.01,4.437-.138,5.546-2.385-1.811-4.907-8.6-9.1-7.777.933-.105,1.123.6.93,1.447.834.047,2.136,1.983,2.628,2.729,1.052,1.594.739,1.818-.552,3.2,2.139.15,1.61-.113,2.493,1.5a6.791,6.791,0,0,1,1.087,2.883c-.858.659-1.915.888-2.824,1.484-1.581,1.036-1.206.774-.954,2.471.055.372-.11.818-.008,1.181.116.419.68.792.73,1.13.147.992-.352,1.895-.166,2.851a8.479,8.479,0,0,0,3.62,4.542c.627.345,1.616.238,2.24.764.277.235-.037.938.4,1.308a11.9,11.9,0,0,0,1.285.79,17.8,17.8,0,0,0,2.676-3.18,9.25,9.25,0,0,1-.342,2.49,8.3,8.3,0,0,0-.394,1.835c0,.349.435.493.383.99-.327,3.113-2.076.316-3.345-.271.07-.37-.2-1.045-.1-1.458-2.177-.348-3.4-3.864-5.437-4.364-.446,1.215-.188,2.65-.255,3.933-2.457,1.023-3.167-2.492-4.665-3.773-1.18-1.009-4.68-1.963-4.787-3.573.339.087.824.008,1.15.1-.14-1-.986-1.315-1.891-1.054.21,1.48-1.359,1.159-2.4,1.1,1.427,1.2,1.211,2.129,1.6,3.666.378,1.477,1.679,2.8.257,4.29a10.475,10.475,0,0,0,3.506.408c-.527.167-.376.291-.706.546,2.316-.073-.861,2.461-1.149,3.253-.2.548-.068,1.616-.408,2.1-.4.563-1.646.837-2.192,1.286,2.565.148,3.421-.137,5.266-1.66-.031,2.04,1.984,1.085,3.373,1.095.131-.366.463-.7.565-1.053-.27,2.34,1.161,2.27,2.886,2.6a3.732,3.732,0,0,1,1.945.792c.237.157.381.818.708,1.067.306.234.929.01,1.29.229,1.256.761,2.285,2.565,3.445,3.643a15.707,15.707,0,0,1,2.116,1.87c.545.717.705,1.677,1.547,2.277,1.353.964,3.715,1.451,5.309,2.079a12.067,12.067,0,0,0,5.661.526,61.809,61.809,0,0,1,11.574-.527c3.466.311,2.582,2.41,4.123,4.794,1.19,1.842,1.146.93,2.9.475,1.829-.475,1.767.065,2.893,1.332A4.209,4.209,0,0,0,337.4-470.3c1.55.013,2.685-1.128,2.433-2.24-.221-.975-2.318-1.283-.155-2.334.984-.478,3.407.832,3.022-1.286,2.22-.352,1.974,1.583,3.953-.2-1.222-2.523,3.522-.884,4.6-2.286a.56.56,0,0,1,.125-.181.56.56,0,0,0-.125.181c-.583,1.182-.774,6.711-.435,7.786.875,2.776,3.834,2.078,5.346,3.412-.3.165-.591.607-.971.754,1.079,1.08,3.747,5.791,5.134,3.467.312-.522-.163-1.405.024-1.767.291-.562.75-.68,1.148-1.173a4.8,4.8,0,0,0,1.463-2.938c1.018.156,2.23,1.133,3.254.531.369-.217.559-1.326.88-1.716.554-.676,1.281-.959,1.814-1.534.794-.856,1.03-1.938,1.833-2.791a17.949,17.949,0,0,1,3.388-2.75c2.266-1.333,4.676-.541,6.695.985a8.728,8.728,0,0,1,2.467,2.092c.51.933-.021,2.476,1.671,2.06a3.255,3.255,0,0,0,.616-2.029c2.011.2,2.051-1.08,3.545-1.951,1.589-.926,1.989-.121,2.13-2.439.087-1.446-.141-2.929,0-4.37.134-1.376,1.064-2.357.787-3.723C392.722-486.153,394.523-484.63,393.886-486.97Z" transform="translate(-18.406 -106.84)" fill="none" stroke="#fff" stroke-miterlimit="10" stroke-width="1"/>
  </g>
</svg>
