<svg xmlns="http://www.w3.org/2000/svg" width="137.136" height="101.484" viewBox="0 0 137.136 101.484">
  <g id="map-hover2" transform="translate(-2132.142 674.884)">
    <path id="Path_92" data-name="Path 92" d="M475.644-962c-4.306,6.758,15.783,14.593,20.527,12.112-1.938,1.014,7.079,11.946,7.841,12.85,1.256,1.49,4.434,4.19,4.847,6.115.449,2.092-2.095,4.413-3.113,6.125-1.1,1.856-2.07,4.179-3.22,6.112-2.931,4.927-6.383,6.979-11.7,8.622-3.581,1.107-4.484,2.348-5.807,5.327-1.009,2.273-3,4.488-4.019,6.5-1.517,3-1.557,4.919-4.485,7.19-2.453,1.9-5.247,2.663-8.034,3.9-1.4.62-2.761,1.66-4.24,2.163-1.6.545-3.608.321-5.1,1.19-2.088,1.216-4.09,3.821-6.028,5.435-2.171,1.808-3.776,3.432-6.575,4.12a26.624,26.624,0,0,1-15.016-1.584c-3.374-1.581-6.471-3.283-9.678-5.133a24.409,24.409,0,0,0-10.394-2.773c-1.491,0-2.231,1.131-4.505.777-1.937-.3-3.138-1.582-5.28-1.288-1.323-1.518-2.776-1.882-4.6-2.591-.73-.283-1.895.393-2.571-.029-1.219-.761-.794-2.561-1.692-3.386-2.921-2.686-8.447-.258-11.7-2.281-4.267-2.651,4.335-5.39,6.506-7.3,1.938-1.707.5-2.113,3.678-2.647,2.195-.369,5.211.274,7.658.378,8.188.347,17.529-1.566,22.33-8.827a61.437,61.437,0,0,0,3.814-5.725c.815-1.676.26-4.283,1.189-6.093,1-1.949,1.973-2.158,2.673-4.324.684-2.117.1-4.038,1.437-6.134a19.538,19.538,0,0,1,9.1-7.456c4.176-1.776,7.539-4.843,11.737-6.717,4.069-1.818,8.05-4,11.875-5.774,3.677-1.706,8.568-3.671,11.028-6.944Z" transform="translate(1759.881 299.688)" fill="#e8a6c3" stroke="#fff" stroke-miterlimit="10" stroke-width="1" fill-rule="evenodd"/>
    <path id="Path_93" data-name="Path 93" d="M378.829-896.37c-4.267-2.651,4.335-5.39,6.506-7.3,1.938-1.707.5-2.113,3.678-2.647,2.195-.369,5.211.274,7.658.378,8.188.347,17.529-1.566,22.33-8.827a61.436,61.436,0,0,0,3.814-5.725c.815-1.676.26-4.283,1.189-6.094,1-1.949,1.973-2.158,2.673-4.324.684-2.117.1-4.038,1.437-6.134a19.538,19.538,0,0,1,9.1-7.456c4.176-1.776,7.539-4.843,11.737-6.717,4.069-1.818,8.05-4,11.875-5.774,3.677-1.706,8.568-3.671,11.028-6.944l1.15-1.437c-.844-2.618-3.809-5.891-5.184-7.44-2.468-2.783-5.364-5.781-9.442-4.987-4.613.9-10.113,3.7-14.1,5.883-3.886,2.126-7.541,3.361-10.911,6.278a95.217,95.217,0,0,1-10.727,8.209c-3.757,2.407-6.8,6.134-10.245,9.026-3.657,3.071-6.016,6.779-10.008,9.486-4.409,2.99-6.56,7.033-9.643,11.234-2.622,3.574-6.756,5.582-9.684,8.732-3.071,3.3-6.374,6.462-9.444,9.533-1.2,1.2-3.2,3.571-3.129,5.418.034.954.787,1.639,1.185,2.455.472.966.494,1.99.906,2.913.865,1.936,2.229,1.524,3.813,2.254,1.048.484,1.074.939,2.266,1.152a15.537,15.537,0,0,0,3.646-.042c.576-.043,1.162-.112,1.751-.2C382.15-895.452,380.267-895.476,378.829-896.37Z" transform="translate(1762.156 303.524)" fill="#ea82b0" stroke="#fff" stroke-miterlimit="10" stroke-width="1"/>
  </g>
</svg>
