<svg xmlns="http://www.w3.org/2000/svg" width="140.525" height="45.385" viewBox="0 0 140.525 45.385">
  <g id="map-hover6" transform="translate(-2554.798 473.494)">
    <g id="Group_4187" data-name="Group 4187">
      <path id="Path_100" data-name="Path 100" d="M932.938-685.152a14.965,14.965,0,0,1,3.195,7.623c.134,1.428.1,2.884.1,4.331,0,1.473-.424,3.959,0,5.352.621,2.043,8.07,1.156,10.1.77,7.738-1.474,16.016,1.1,23.616-.862a48.808,48.808,0,0,0,5.941-2.055c2.656-1.06,5.482-.978,8.35-.978a46.374,46.374,0,0,0,6.434-.383c1.351-.188,3.423.082,4.4-1.123.967-1.189,1.141-3.833,1.611-5.32.02-.064.036-.128.055-.191a3.783,3.783,0,0,0-2.459.188,19.588,19.588,0,0,0-3.631,2.143c-1.188.894-2.24,1.816-2.538-.126a16.788,16.788,0,0,1,0-1.9c-.045-1.25.175-.573-.642-1.354-.982-.941-2.766-1.176-3.779-2.158-1.219-1.181-.619-2.163-2.662-2.182-1.4-.014-3.265.453-4.182-.633-.575-.681-.422-1.769-1.515-2.165a7.542,7.542,0,0,0-2.19.014c-2.045.136-3.728,1.115-5.884,1.012-2.918-.14-6.449-1.313-8.253-3.485a2.756,2.756,0,0,1-2.91,1.967c-.746-.077-1.45-.611-2.129-.607-.784.005-.634.454-1.177.853a5.76,5.76,0,0,1-4.393,1.178c-3.209-.31-3.927-2.786-2.951-5.633.207-.608.475-1.07.659-1.642.228-.707,0-.874.5-1.487s1.045-.546,1.145-1.487a4.6,4.6,0,0,0-.667-2.2c-1.083-2.563.042-5.16-.364-7.785-1.928-.576-3.7,1.694-5.727.906a4.571,4.571,0,0,1-.807-.424c-2.279.7-4.056,1.556-5.381,4.039-2.037,3.814-2.838,5.859-6.159,8.731a9.03,9.03,0,0,1-1.141.83c.923,1.206,1.841,2.417,2.793,3.616C931.046-686.82,932.192-686.106,932.938-685.152Z" transform="translate(1628.033 237.941)" fill="#e8a6c3" stroke="#fff" stroke-miterlimit="10" stroke-width="1"/>
      <path id="Path_101" data-name="Path 101" d="M1002.612-683.855a12.373,12.373,0,0,0,1.294-4.949c-2.742-1.792-6.793-1.493-9.645-2.836-3.095-1.457-6.877-1.987-10.306-2.5-6.84-1.015-12.784-3.749-19.3-5.922a7.646,7.646,0,0,1-3.027-1.386,11.814,11.814,0,0,1-2-3.669,25.739,25.739,0,0,0-2.284-4.242,6.937,6.937,0,0,1-1.025-2.963c-1.3.651-2.688,2.139-3.936,3.023a20.851,20.851,0,0,1-3.579,1.926,3.232,3.232,0,0,0-1.527,1.277c1.427-.3,2.772-1.432,4.2-1,.405,2.625-.719,5.222.364,7.785a4.6,4.6,0,0,1,.667,2.2c-.1.941-.65.881-1.145,1.487s-.273.78-.5,1.487c-.184.572-.452,1.034-.659,1.642-.976,2.847-.258,5.323,2.951,5.633a5.76,5.76,0,0,0,4.393-1.178c.543-.4.392-.847,1.177-.853.679,0,1.383.529,2.129.607a2.756,2.756,0,0,0,2.91-1.967c1.8,2.173,5.335,3.346,8.253,3.486,2.156.1,3.839-.876,5.884-1.012a7.542,7.542,0,0,1,2.19-.014c1.093.4.94,1.484,1.515,2.165.916,1.086,2.779.619,4.182.633,2.044.019,1.443,1,2.662,2.182,1.014.982,2.8,1.217,3.779,2.158.817.781.6.1.642,1.354a16.788,16.788,0,0,0,0,1.9c.3,1.942,1.35,1.02,2.538.126a19.588,19.588,0,0,1,3.631-2.143,3.822,3.822,0,0,1,2.227-.231C1000.989-680.78,1002.211-682.939,1002.612-683.855Z" transform="translate(1623.271 239.567)" fill="#ea82b0" stroke="#fff" stroke-miterlimit="10" stroke-width="1"/>
    </g>
    <path id="Path_102" data-name="Path 102" d="M1094.035-669.945c-1.688-.052-3.267-.395-4.955-.474-1.665-.078-3.334.092-4.774-.687a6.033,6.033,0,0,1-2.225-2.309c-.333-.541-.616-1.179-1.214-1.376-.583-.191-.991.207-1.467.276-1.417.2-1.458-.326-2.07-1.262-.646-.987-1.92-1.2-3.042-1.546-.824-.257-3.431-1.184-4.174-.44-.979.979,1.228,1.985,1.425,2.464-.77.116-2.472-.929-2.759-.27-.292.675,1.058,1.49,1.151,2.111.2,1.285-1.089,1.461-2.183,1.521-1.386.075-1.6-.568-2.65-1.044-.034-.015-.081-.025-.118-.039a2.028,2.028,0,0,0,.654,1.1,10.1,10.1,0,0,0,2.114,1.581,10.126,10.126,0,0,0,3.987-.074c.806-.138,2.3-.777,3.1-.471,1.928.739.966,4.681,2.773,5.4.81.325,2.061-.019,2.78.276.284.117.278.348.736.365a3.424,3.424,0,0,0,.743-.266,4.215,4.215,0,0,0,1.039-1.111c1.4-1.772,2.969-3.161,5.525-3.159,1.056,0,2.095.014,3.136.1a14.049,14.049,0,0,1,1.679.334,3.371,3.371,0,0,0,.532.054c.091-.462.154-.859.157-.963Z" transform="translate(1594.929 231.314)" fill="#e8a6c3" stroke="#fff" stroke-miterlimit="10" stroke-width="1"/>
    <path id="Path_104" data-name="Path 104" d="M1098.185-675.727c-1.184-.353-2.4-.305-3.606-.551a19.338,19.338,0,0,1-2.937-1.045c-1.294-.472-2.753-.478-4.085-.826a7.793,7.793,0,0,1-2.95-1.925c-.876-.726-1.9-1.118-2.816-1.8a10.671,10.671,0,0,0-2.788-1.737,19.867,19.867,0,0,0-6.8-1.3,13.087,13.087,0,0,0-3.164,0c-1.132.33-1.536,1.36-2.168,2.139-.831,1.024-1.638,1.2-1.829,2.609a16.7,16.7,0,0,0-.077,4.087,4.975,4.975,0,0,0,.512,1.632,3.151,3.151,0,0,0,2.242.829c1.093-.059,2.378-.235,2.183-1.521-.093-.62-1.443-1.436-1.151-2.111.287-.659,1.989.386,2.759.27-.2-.479-2.4-1.485-1.425-2.464.743-.744,3.35.183,4.174.44,1.122.35,2.4.559,3.042,1.546.613.935.654,1.463,2.07,1.262.475-.068.884-.467,1.467-.276.6.2.881.835,1.214,1.376a6.033,6.033,0,0,0,2.225,2.309c1.439.779,3.109.609,4.774.687,1.688.08,3.268.422,4.955.474l-.095.095c0,.09-.052.408-.125.792l.409.252c1.66,0,3.273.149,4.92.085C1099.788-672.228,1100.759-674.961,1098.185-675.727Z" transform="translate(1594.954 232.995)" fill="#ea82b0" stroke="#fff" stroke-miterlimit="10" stroke-width="1"/>
  </g>
</svg>
