<svg xmlns="http://www.w3.org/2000/svg" width="72.545" height="128.823" viewBox="0 0 72.545 128.823">
  <g id="map-hover4" transform="translate(-2411.571 668.432)">
    <path id="Path_96" data-name="Path 96" d="M804.18-867.054c.022-4.012-2.309-1.773-4.693-.093-1.073.755-5.352,4.12-6.515,3.879-1.389-.288-3.375-4.084-4.5-5.1-3.338-3.044-9.181-3.5-11.47-7.638-1.09-1.97-1.145-4.168-1.708-6.283-.6-2.268-1.494-3.688-1.487-6.254.022-8.264,2.638-15.971,1.125-24.3-.44-2.422-.283-5.379-1.889-7.213-1.555-1.776-3.123-2.944-4.361-5.123-2.051-3.611-5.245-5.778-7.4-9.158a21.54,21.54,0,0,0-4.864-5.04c-1.648-1.383-2.591-3.281-3.949-5a7.468,7.468,0,0,0-2.615-2.518c-.09-.047-.176-.089-.263-.132.216,1.729-1.927,2.92-3.293,4.01-2.885,2.3-5.38,6.449-4.565,10.439.509,2.492,2.016,1.805,3.458,3.222a11.623,11.623,0,0,1,1.578,2.183c-.07-.018-.141-.033-.21-.051.46.115.919.242,1.38.4a17.67,17.67,0,0,0,.067,2.654,3.045,3.045,0,0,1,.379.345c2.094,2.3,3.151,7.417,4.28,10.544,1.309,3.622,2.523,7.3,3.778,11.009,1.132,3.344,2.084,7.307,1.433,11.073a21.077,21.077,0,0,1-2.7,7.136c-1.22,1.888-2.177,2.031-3.682,3.484a69.024,69.024,0,0,0-7.01,8.739c-1.9,2.594-2.165,7.288-5.911,8.019-.346,5.871,1.457,10.716,6.08,14.567,3.9,3.246,7.95,9.284,13.213,6.181,2.8-1.654,2.911-3.405,6.45-3.332,2.751.057,3.733,1.49,5.593,3.121,4.362,3.825,7.42,4.851,13.681,4.851-1.59-.129-3.85.837-6.15,2.082l.093-.006c5.665-.459,13.908-2.023,14.305-8.672.131-2.184,1.022-2.647,3.032-3.422a38.766,38.766,0,0,1,4.764-1.2c2.507-.616,2.151-1.07,2.263-3.543.2-4.321,3.717-5.609,5.072-9.325C804.353-862.16,804.17-865.246,804.18-867.054Z" transform="translate(1673.533 296.083)" fill="#e8a6c3" stroke="#fff" stroke-miterlimit="10" stroke-width="1"/>
    <path id="Path_97" data-name="Path 97" d="M813.892-879.207c-.162-1.858-2.545-2.561-3.842-3.981a21.1,21.1,0,0,1-3.328-4.708,68.743,68.743,0,0,1-5.318-12.253,46.633,46.633,0,0,0-1.41-5.39,22.067,22.067,0,0,1-1.892-5.788c-1.073-7.316.128-15.771.792-23.1.216-2.389.242-5.3-1.277-7.263-1-1.3-2.774-1.936-3.946-3.155-.748-.78-1.313-1.5-2.076-2.292-2.177-2.274-4.372-1.1-7.174-1.515-2.763-.409-4.013-2.043-6.13-3.6-1.607-1.184-3.221-2.2-3.65-4.435-.447-2.329.351-3.712-1.455-5.646-1.575-1.688-4.663-5.289-7.555-6.591.579,2.79-.979,7.285-2.407,8.9-1.445,1.632-3.583,2.827-5.227,4.376-.982.925-2.319,2.76-3.579,3.965a9.97,9.97,0,0,1,1.857,2.035c1.358,1.719,2.311,3.618,3.959,5a21.564,21.564,0,0,1,4.869,5.04c2.158,3.38,5.354,5.548,7.405,9.158,1.238,2.179,2.807,3.347,4.362,5.123,1.606,1.834,1.449,4.791,1.89,7.213,1.513,8.327-1.1,16.035-1.124,24.3-.008,2.566.882,3.987,1.487,6.254.563,2.115.618,4.313,1.708,6.283,2.289,4.135,8.133,4.595,11.47,7.638,1.12,1.021,3.107,4.816,4.5,5.1,1.162.242,5.442-3.123,6.515-3.879,2.385-1.679,4.715-3.919,4.693.093-.011,1.808.172,4.894,2.795,4.527-.025.067-.055.128-.08.193l.133-.022C810.55-871.488,814.227-875.374,813.892-879.207Z" transform="translate(1669.708 301.356)" fill="#ea82b0" stroke="#fff" stroke-miterlimit="10" stroke-width="1"/>
  </g>
</svg>
