<svg xmlns="http://www.w3.org/2000/svg" width="94.598" height="99.377" viewBox="0 0 94.598 99.377">
  <g id="map-hover1" transform="translate(-2060.112 434.645)">
    <path id="Path_105" data-name="Path 105" d="M367.2-590.136c-.4-3.712-1.3-8.323-4.731-10.245-2.049-1.149-4.033-.756-6.018-1.556-2.424-.976-1.786-2.748-.683-4.3,7.445-10.471-3.754-20.531-3.754-20.531-.831-1.1-.709-2.908-1.124-4.144-.466-1.383-1.027-3.107-1.533-4.383a26.347,26.347,0,0,0-5.651-8.98c-2.177-2.024-5.2-3.264-7.3-5.5-2.5-2.665-4.732-5.685-4.722-9.413-3.6-1.226-7.626-1.11-11.337-1.733-1.29-.216-3.6-.948-5.011-.364-1.446.6-2.979,2.851-4.316,3.824a14.558,14.558,0,0,1-5.126,2.615c-1.948.5-4.167-.031-6.077.6-1.99.659-2.952,2.4-4.652,3.574-1.947,1.348-4.261,2.439-6.211,3.545-3.738,2.118-6.328,4.362-7.6,8.445s-3.306,7.629-4.886,11.525c-3.164,7.8,3.049,15.226,6.025,21.918,1.839,4.132,5.157,6.469,8.922,9.026a13.924,13.924,0,0,0,2.262,1.206,19.3,19.3,0,0,0,5.214-2.251,2.27,2.27,0,0,1,.971-.428c.121-2.008.235-4.067.424-6.134.16-1.751.062-5.99,1.783-6.852,1.149-.576,3.715-.572,4.949-.733a27.28,27.28,0,0,1,3.435,0c3.053,0,4.105-.746,5.016-3.372,2.224,1.543,1.987,4.051,5.163,4.783,2.269.523,4.066.3,5.721-1.222,2.161-1.982,2.5-1.881,4.031,1,1.2,2.256,2.048,2.449,3.943,4.186,1.431,1.311,1.956,3.29,4.125,3.951.865.263,1.845-.115,2.7.235,1.232.508,1.042,1.169,1.833,2.009,3.024,3.209,7.835.842,10.681,3.584,1.749,1.685,2.778,2.492,5.436,2.389a21.97,21.97,0,0,1,2.98-.4c1.524.29,1.2.774,1.789,2.173.814,1.922,2.684,2.842,3.394,4.643.484,1.23.192,2.294,1.386,3.278.137.113.3.231.465.348-.007-.079-.011-.16-.021-.24C368.852-586.265,367.441-587.9,367.2-590.136Z" transform="translate(1785.004 227.332)" fill="#ea82b0" stroke="#fff" stroke-miterlimit="10" stroke-width="1"/>
    <path id="Path_106" data-name="Path 106" d="M373-572.629c-.71-1.8-2.58-2.721-3.394-4.643-.593-1.4-.264-1.883-1.789-2.173a21.98,21.98,0,0,0-2.98.4c-2.658.1-3.687-.7-5.436-2.389-2.846-2.742-7.657-.375-10.681-3.584-.79-.84-.6-1.5-1.833-2.009-.851-.351-1.831.028-2.7-.235-2.169-.661-2.694-2.64-4.125-3.951-1.895-1.737-2.745-1.931-3.943-4.186-1.532-2.883-1.87-2.984-4.031-1-1.655,1.518-3.452,1.745-5.721,1.222-3.177-.732-2.939-3.24-5.163-4.783-.911,2.626-1.963,3.376-5.016,3.372a27.268,27.268,0,0,0-3.435,0c-1.234.161-3.8.158-4.949.733-1.722.862-1.623,5.1-1.783,6.852-.19,2.067-.3,4.126-.424,6.134a2.27,2.27,0,0,0-.971.428,19.294,19.294,0,0,1-5.214,2.251c2.893,1.259,6.33,1.918,9.155,3.212,8.054,3.689,10.052,13.011,16.524,18.743,5.525,4.892,13.918,7.674,21.121,8.931a48.586,48.586,0,0,0,13.049.9c4.6-.437,6.445-3.084,9.253-6.41,2.371-2.808,4.544-5.519,5.784-8.949a12.379,12.379,0,0,0,.547-5.237c-.169-.117-.328-.235-.465-.348C373.194-570.335,373.486-571.4,373-572.629Z" transform="translate(1779.268 212.512)" fill="#e8a6c3" stroke="#fff" stroke-miterlimit="10" stroke-width="1"/>
  </g>
</svg>
