<svg xmlns="http://www.w3.org/2000/svg" width="214.101" height="75.781" viewBox="0 0 214.101 75.781">
  <g id="map-hover3" transform="translate(-2221.89 706.088)">
    <path id="Path_94" data-name="Path 94" d="M690.133-957.353c1.644-1.312,4.422-2.766,2.852-5.13a18.951,18.951,0,0,0-4.57-3.753c-3.22-1.7-7.56-1.411-11.018-2.273-2.383-.594-3.666-1.209-4.782-3.52-.842-1.745-1.614-3.845-2.99-5.267a26.123,26.123,0,0,0-12.273-6.81c-3.661-.97-4.952-2.18-5.852-5.875a106.019,106.019,0,0,1-12.5-1.394c-2.423-.418-2.793-1.266-4.159-3.164-1.651-2.3-5.179-4.624-7.355-6.495-3.833-3.294-6.952-1.834-11.355-.933-2.593.531-5.5.717-7.677,2.3-2.01,1.459-1.722,2.814-1.514,5.115.232,2.559-.644,2.757-3.165,3.027-2.8.3-5.586.632-8.431.768-2.595.124-4.846-.59-7.348-.758a18.9,18.9,0,0,0-6.642.565c-2.009.651-3.767,1.278-6.063.953a37.218,37.218,0,0,1-5.5-1.471c-2.145-.673-4.627-1.008-6.615-1.977-2.637-1.286-1.548-2.74-.977-4.949.734-2.841-1.047-2.622-2.1-4.7-.389-.771-.63-3.308-1.667-3.451-.679-.093-2.095,1.985-2.556,2.507-1.346,1.527-2.89,2.782-4.28,4.219-2.7,2.789.684,6.892.721,10.245.033,3.006-1.3,2.839-3.375,4.7-1.461,1.309-1.587,2.735-2.286,4.324-.729,1.659-2.722,4.053-4.579,4.558a30.8,30.8,0,0,1-7.365.613h-7.389c-4.3,0-11.1.121-11.639-5.314-.122-1.242-.16-4.942-1.124-5.8-1.8-1.6-5.621.951-5.153,3.319.18.908.918,1.527,1.333,2.35a11.052,11.052,0,0,1,.765,3.4c.563,2.843,1.279,3.2-1.279,4.906a13.125,13.125,0,0,1-4.963,2.341c.981,6,16.921,11.746,21.078,9.572-.565.3-.194,1.437.629,2.926.208.317.427.688.682,1.129.03.053.056.108.086.162a97.789,97.789,0,0,0,6.444,8.629c1.256,1.49,4.434,4.19,4.847,6.115a2.341,2.341,0,0,1,.046.362,1.456,1.456,0,0,0,.476.036,22.782,22.782,0,0,1,4.225-9.078c4.733-6.125,12.466-9.843,19.536-12.85,3.651-1.553,7.107-1.581,11.182-1.937,4.332-.379,8.267-1.7,12.463-2.693,2.025-.479,4.6.089,6.554-.731,1.867-.783,2.69-1.888,4.555-2.286,3.58-.765,7.844.96,11.453,1.136,9.249.452,15.575,1.02,23.463,5.39,6.99,3.873,14.3,4.119,22.4,4.1,4.048-.009,7.935.413,10.564,3.87,2.114,2.779,2.334,6.406,4.914,9.426,5.326,6.235,12.517,3.5,19.736,5.4a11.626,11.626,0,0,0-1.578-2.183c-1.443-1.417-2.95-.73-3.458-3.222C684.753-950.9,687.248-955.051,690.133-957.353Z" transform="translate(1729.7 310.415)" fill="#ec6aa4" stroke="#fff" stroke-miterlimit="10" stroke-width="1" opacity="0.5"/>
    <path id="Path_95" data-name="Path 95" d="M701.451-982.363c-.881-1.181-3.918-2.354-5.237-3.051a19.358,19.358,0,0,0-5.2-2.273c-3.881-.721-8.3.083-11.781-1.694-3.539-1.8-7.2-4.509-10.748-6.633-1.841-1.1-4.125-1.959-5.856-3.088-1.476-.964-2.64-2.488-4.023-3.569-3.634-2.842-8.959-4.162-13.152-6.117-2.045-.953-3.843-2.326-5.791-3.3-2.017-1.011-4.148-1.586-6.116-2.727s-3.075-1.911-5.565-1.9c-1.98.007-3.99.1-5.966,0-4.341-.22-7.7-2.283-12.156-2.278-4.983.006-8.2,2.1-12.386,4.208-4.048,2.038-6.637,3.324-11.186,1.625-2.486-.928-5.082-.914-7.594-1.472-2.092-.465-4.115-.567-6.3-.955-4.472-.794-8.4-1.7-13.267-1.7-4.588,0-9.175,1.18-13.537,2.416-4.572,1.3-9.227,2.153-13.36,4.469-3.347,1.877-6.412,3.473-9.579,5.421-3.265,2.01-6.222,4.639-9.6,6.643-3.633,2.153-7.76,3.435-11.572,5.356-3.937,1.985-7.272,3.957-11.253,5.4,2.568.692,4.611,2.842,6.421,4.883,1.375,1.549,4.34,4.822,5.184,7.44l-.586.732c.37.514.49.919.754,1.26a13.737,13.737,0,0,0,4.612-2.267c2.558-1.7,1.841-2.082,1.279-4.924a11.276,11.276,0,0,0-.765-3.432,10.318,10.318,0,0,1-1.333-2.421c-.468-2.367,3.35-5.062,5.154-3.461.964.856,1,4.841,1.124,6.083.535,5.434,7.336,5.314,11.639,5.314H531.1a30.806,30.806,0,0,0,7.365-.613,8.41,8.41,0,0,0,4.579-4.274c.7-1.589.825-3.158,2.286-4.467,2.073-1.857,3.408-1.762,3.375-4.768-.037-3.352-3.42-7.491-.721-10.28,1.39-1.437,2.934-2.71,4.28-4.237.461-.522,1.877-2.609,2.556-2.516,1.037.143,1.278,2.676,1.667,3.447,1.05,2.077,2.831,1.856,2.1,4.7-.571,2.21-1.66,3.662.977,4.948,1.988.97,4.47,1.3,6.615,1.976a37.121,37.121,0,0,0,5.5,1.471c2.3.325,4.054-.3,6.063-.953a18.9,18.9,0,0,1,6.642-.565c2.5.169,4.753.882,7.348.758,2.846-.136,5.633-.469,8.431-.768,2.521-.27,3.4-.468,3.165-3.027-.208-2.3-.5-3.656,1.514-5.115,2.178-1.581,5.084-1.767,7.677-2.3,4.4-.9,7.521-2.361,11.355.933,2.177,1.871,5.7,4.2,7.355,6.495,1.366,1.9,1.736,2.746,4.159,3.164a106.032,106.032,0,0,0,12.5,1.394c.9,3.7,2.191,4.905,5.852,5.875A26.124,26.124,0,0,1,666-980.294c1.376,1.422,2.148,3.523,2.99,5.267,1.116,2.311,2.4,2.925,4.782,3.52,3.457.862,7.8.569,11.018,2.273a18.951,18.951,0,0,1,4.57,3.753,2.183,2.183,0,0,1-.111,2.818c1.591-.528,3.726-3.724,5.132-5.048,1.644-1.549,3.782-2.745,5.227-4.376C701.31-974.006,703.2-980.013,701.451-982.363Z" transform="translate(1733.323 313.413)" fill="#ec6aa4" stroke="#fff" stroke-miterlimit="10" stroke-width="1" opacity="0.8"/>
  </g>
</svg>
