<svg xmlns="http://www.w3.org/2000/svg" width="114.855" height="124.108" viewBox="0 0 114.855 124.108">
  <g id="map-hover5" transform="translate(-2455.843 578.58)">
    <path id="Path_98" data-name="Path 98" d="M803.208-797.472c.165,3.181.4,4.81,2.026,7.53,1.51,2.519,2.975,5.308,4.6,7.912,3.162,5.056,8.558,7.792,13.623,10.378,5.165,2.637,13.141,4.887,17.017,9.615,2.483,3.03,4.955,6.563,7.968,9.618,3.5,3.553,5.928,8.109,9.482,11.563,3.025,2.938,5.925,6.115,8.8,9.034,3.485,3.542,6.078,8.178,9.622,11.465,8.154-5.972,13.974-14.812,21.357-21.814-.114-.046-.226-.093-.343-.131-5.7-1.852-14.971,4.513-15.639-4.884-3.867-3.2-9.479-18.159-4.1-22.078,1.192-.868,3.777-.06,4.59-.808.772-.711-.219-2.006.308-2.6.931-1.048,2.089-1.487,3.394-2.659,1.5-1.348,5.527-7.652,5.7-9.832-9.747.282-.37-8.936,2.7-11.426a55.343,55.343,0,0,0,6.074-5.734c1.36-1.477,1.725-.815,1.991-3.167.221-1.95-.681-3.4.143-5.5-5.263,2.694-7.88,5.939-11.541,10.591-2.542,3.231-8.133,11.851-12.932,11.34.315-7.57-4.3-3.12-6.881-.219-2.395,2.694-4.659,8.563-9.063,7.432-.023-2.264-1.331-4.053-1.252-6.345-1.814.432-2.615,2.547-4.869,2.267,1.054,1.055,1,1.981,1.08,3.318-4.611.241-7.788-.317-11.337-3.359-2-1.714-6.475-9.322-8.038-6.9-4.551,1.313-10.775-9.281-13.6-12a29.238,29.238,0,0,1-5.781-7.815c-1.68-3.223-2.181-5.433-4-6.261-.139.039-.288.078-.45.118a38.774,38.774,0,0,0-4.764,1.2c-2.01.774-2.9,1.238-3.032,3.422-.272,4.55-4.219,6.718-8.5,7.781.843.758,1.7,1.415,2.158,1.839C802.129-802.365,803.032-800.85,803.208-797.472Z" transform="translate(1659.322 265.238)" fill="#e8a6c3" stroke="#fff" stroke-miterlimit="10" stroke-width="1"/>
    <path id="Path_99" data-name="Path 99" d="M910.2-823.283c-5.751-.84-9.435.62-13.559,4.253-4.63,4.081-7.69,7.332-14.228,7.332-3.054,0-6.108-.011-9.161,0-3,.011-4.891-1.014-7.467-2.328-5.191-2.647-10.06-7.361-15.465-9.369-3.095-1.149-6.173-1.311-8.768-3.5-1.786-1.507-3.115-4.016-4.425-6.034-2.915-4.487-.635-10.421-3.282-14.722a10.71,10.71,0,0,0-4.249-3.033c.3,3.817-3.343,7.686-3.042,11.529l-.133.022c.026-.065.055-.126.08-.193-1.355,3.716-4.875,5-5.072,9.325-.106,2.313.2,2.86-1.814,3.425h0c1.824.828,2.325,3.038,4,6.261A29.241,29.241,0,0,0,829.4-812.5c2.825,2.718,9.049,13.311,13.6,12,1.563-2.425,6.039,5.184,8.039,6.9,3.549,3.042,6.725,3.6,11.336,3.359-.075-1.338-.026-2.263-1.08-3.318,2.253.28,3.055-1.835,4.869-2.267-.079,2.292,1.229,4.082,1.252,6.345,4.4,1.131,6.668-4.738,9.063-7.432,2.578-2.9,7.2-7.351,6.881.219,4.8.512,10.391-8.108,12.932-11.34,3.662-4.652,6.279-7.9,11.541-10.591-.824,2.093.078,3.545-.143,5.5-.266,2.352-.632,1.69-1.991,3.167a55.342,55.342,0,0,1-6.074,5.734c-3.07,2.49-12.446,11.708-2.7,11.426-.173,2.18-4.2,8.483-5.7,9.832-1.3,1.172-2.463,1.61-3.394,2.659-.528.593.464,1.888-.308,2.6-.813.748-3.4-.06-4.59.808-5.381,3.919.231,18.875,4.1,22.078a6.9,6.9,0,0,0,1.093,3.624c1.117.53,2.174,1.118,3.247,1.638,3.347.289,7.941-1.468,11.3-.377a.1.1,0,0,0,.018.007c.181-2.595,1.911-5.1,2.744-7.347.865-2.341.763-4.682.772-7.326.02-5.809-4.143-10.173-2.194-16.292,1.022-3.211,3.2-5.532,4.281-8.795.859-2.589,1.941-5.014,2.932-7.516,1.938-4.888,4.327-9.364,4.851-15C916.537-817.206,915.9-822.45,910.2-823.283Z" transform="translate(1654.011 272.884)" fill="#ea82b0" stroke="#fff" stroke-miterlimit="10" stroke-width="1"/>
  </g>
</svg>
