<svg xmlns="http://www.w3.org/2000/svg" width="342.44" height="69.932" viewBox="0 0 342.44 69.932">
  <g id="LOGO-white" transform="translate(-15.872 0)">
    <path id="Path_1" data-name="Path 1" d="M390.7,94.052a1.4,1.4,0,0,0,1.323-.544c.39-.387.816-.736,1.231-1.105-.243.341-.487.673-.707,1.023a1.666,1.666,0,0,0-.089,1.563c.285-.235.637-.362.711-.58.178-.629.259-1.289.381-1.949-.105-.017-.212-.028-.317-.045a2.86,2.86,0,0,0,.52-1.733c.109-3.333.252-6.663.345-10a1.2,1.2,0,0,1,.808-1.263A25.675,25.675,0,0,0,397.384,78a5.432,5.432,0,0,1,3.054-.748c.114.008.21.029.352.053a9.758,9.758,0,0,1,.589,3.212,38.887,38.887,0,0,1-.252,5.951,65.917,65.917,0,0,0-.573,8.8c.037.787.089,1.571.167,2.359a.791.791,0,0,1-.446.885,2.53,2.53,0,0,0-.784,3.832,5.328,5.328,0,0,0,5.916,2.1c1.429-.443,1.733-.873,1.563-2.372-.078-.617-.138-1.222-.187-1.839-.025-.263,0-.544,0-.949.285.158.459.223.6.321a5.537,5.537,0,0,1,2.038,5.075,5.057,5.057,0,0,0-.081.584.781.781,0,0,1-.61.8,9.551,9.551,0,0,1-7.746-.163,5.906,5.906,0,0,1-3.626-5.083,7.134,7.134,0,0,1,.528-3.114c.118-.308.223-.609.333-.913-.045-.041-.089-.081-.129-.122a3.936,3.936,0,0,0-.711.5c-.734.8-1.494,1.6-2.156,2.453-.856,1.116-1.583,2.318-2.428,3.434a12.137,12.137,0,0,1-1.684,1.733,1.543,1.543,0,0,1-1.848.211,5.843,5.843,0,0,0,1.6-1.68,7.183,7.183,0,0,0-3.3-.967,1.543,1.543,0,0,0,.041-1.907,4.3,4.3,0,0,1-.321-1.165c-.86.234-1.7.434-2.53.666a4.749,4.749,0,0,0-1.011.409,1.363,1.363,0,0,0-.723,1.247c-.013.63.235.971.856,1.023a9.2,9.2,0,0,0,1.421-.052c.59-.037,1.17-.082,1.759-.127a.629.629,0,0,1-.37.735,6.785,6.785,0,0,1-1.039.553c-.431.183-.89.321-1.324.5a2.006,2.006,0,0,0-1.36,1.685c-.016.134-.048.263-.093.524a3.108,3.108,0,0,1-1.408-2.14,10.08,10.08,0,0,1,.243-3.825c.215-1.193.511-2.367.665-3.552a23.045,23.045,0,0,0,.082-2.85,4.678,4.678,0,0,0-.2-.909,3.266,3.266,0,0,0-1.763,1.081c-.71.755-1.347,1.583-2.045,2.346a12.147,12.147,0,0,1-1.56,1.51,1.683,1.683,0,0,1-2.163.081c.264-1.006,1.136-1.843.816-3.012a2.568,2.568,0,0,1,.491-.081,3.459,3.459,0,0,0,2.785-1.141,16.871,16.871,0,0,0,1.629-1.924c.694-.951,1.3-1.97,2.005-2.9a22.959,22.959,0,0,1,2.022-2.346,1.033,1.033,0,0,0,.33-1.048,2.674,2.674,0,0,0-.33-.852c-.872-1.181-1.685-1.247-2.639-.532a4.752,4.752,0,0,0-.994,1.112c-.341.512-.556,1.1-.889,1.624a6.306,6.306,0,0,1-1.088,1.36,1.344,1.344,0,0,1-2.31-.645,5.3,5.3,0,0,1-.053-2.883c.361,0,.724.008,1.076,0a4.939,4.939,0,0,0,2.733-.967c.519-.377,1.035-.768,1.575-1.112a4.107,4.107,0,0,1,3.679-.492v2.282c1.58,0,2.526-1.433,2.2-3.228h-1.246c.849-.853,1.542-1.612,2.306-2.282a1.3,1.3,0,0,1,1.426-.036c.618.252,1.213.536,1.876.827-.174.261-.353.509-.5.768a32.474,32.474,0,0,0-1.705,3.086,5.7,5.7,0,0,0,.747,5.956c.178.24.366.491.536.743,0,.012-.017.045-.033.146h-2.087a1.608,1.608,0,0,0,.528,2.493,8.757,8.757,0,0,1,1.055.914,1.85,1.85,0,0,0-1.709,1.538.93.93,0,0,0,.864,1.195c.236.024.475.007.808.007-.089.219-.106.414-.211.516-.272.272-.589.507-.885.752a1.466,1.466,0,0,0-.073,2.476,12.769,12.769,0,0,0,1.629,1,1.024,1.024,0,0,0,1.039,0,4.9,4.9,0,0,0,1.993-1.754c.82-1.23,1.6-2.493,2.383-3.761a.834.834,0,0,0,.122-.462.463.463,0,0,0-.67-.385,1.535,1.535,0,0,0-.479.324,3.5,3.5,0,0,0-1.015,1.71c-.089.357-.053.809-.593,1.052a2.574,2.574,0,0,0-1.425-1.531A2.768,2.768,0,0,1,390.7,94.052Zm8.582-6.131c0-1.413.013-2.944-.012-4.474a42.543,42.543,0,0,0-.077-4.557,4.448,4.448,0,0,0-4.348,3.476,3.917,3.917,0,0,0-.024,1.251c.158.9.581,1.177,1.474,1.023.418-.077.812-.2,1.218-.284.28-.049.581-.1.662.328a3.4,3.4,0,0,1-2.265,1.661c-.731.125-1.039.671-1.043,1.507a1.14,1.14,0,0,0,1.665,1.185c.183-.076.353-.174.54-.243C397.725,88.521,398.4,88.262,399.279,87.921Zm-11.969,6.131c-.174-.334-.265-.524-.382-.72a2.923,2.923,0,0,1-.155-2.8,5.569,5.569,0,0,0,.329-.862,3.508,3.508,0,0,0-.577-3.158c-.792.853-1.53,1.637-2.261,2.431a7.108,7.108,0,0,0-.82,1.052,5.091,5.091,0,0,0-.414,4.057Zm8.449-.037c.312-.263.572-.52.86-.727s.625-.377.921-.58a2.021,2.021,0,0,0,.963-2.372c-.122-.544-.325-.694-.86-.678a3.354,3.354,0,0,0-2.8,2.1A1.692,1.692,0,0,0,395.76,94.015ZM385.1,98.306a2.08,2.08,0,0,0,2.111-1.039c.252-.512.183-.771-.281-1.06a3.227,3.227,0,0,0-2.322-.487,1.806,1.806,0,0,0-1.478,1.079.68.68,0,0,0,.312,1A2.9,2.9,0,0,0,385.1,98.306Z" transform="translate(-237.567 -51.135)" fill="#fff" fill-rule="evenodd"/>
    <path id="Path_2" data-name="Path 2" d="M131.358,101.992a2.972,2.972,0,0,0-2.891,1.507,8.774,8.774,0,0,0-.877,2.164c-.3,1.117-.43,2.258-.707,3.371a13.3,13.3,0,0,1-.816,2.459,1.314,1.314,0,0,1-2.262.1,2.925,2.925,0,0,1-.162-.292c-.349-.492-.69-.978-1.157-1.645.215-1.322.471-2.869.7-4.416a51.051,51.051,0,0,0,.743-8.36c-.008-.39-.049-.788-.06-1.177a1.816,1.816,0,0,0-.634-1.316c-.3-.288-.613-.592-.933-.856a1.553,1.553,0,0,1-.471-1.888,12.638,12.638,0,0,1,.605-1.255c.369.361.678.621.95.921.633.706,1.275,1.413,1.859,2.153a6.547,6.547,0,0,1,1.153,3.211,13.343,13.343,0,0,1,.02,3.691,5.392,5.392,0,0,0-.007.853c.462.081.629-.244.747-.533.247-.591.435-1.209.649-1.818.159-.463.309-.938.468-1.405a1.08,1.08,0,0,1,.174.029c-.073,1.335-.15,2.675-.227,4.148.455-.141.776-.227,1.077-.332a15.577,15.577,0,0,0,6.731-4.865,37.74,37.74,0,0,0,4.239-6.557c1.13-2.1,2.245-4.2,3.366-6.3a2.892,2.892,0,0,0,.178-.459,1.057,1.057,0,0,0-1.323-.149,7,7,0,0,0-2.526,1.9c-.5.565-.947,1.185-1.409,1.782-.223.285-.443.564-.658.84a.672.672,0,0,1-.678-.673,8.918,8.918,0,0,1-.069-1.831c.1-.889.3-1.767.458-2.648.042-.19.07-.378.138-.7-.567.036-1.043.057-1.521.086a3.056,3.056,0,0,1,3.171-2.047,1.282,1.282,0,0,1,1.291,1.206,17.683,17.683,0,0,1,.105,1.77,3.12,3.12,0,0,0,1.507-.527,5.665,5.665,0,0,1,2.367-.8c.438-.024.872-.012,1.291-.012a2.573,2.573,0,0,1-.147,2.145c-.393.751-.845,1.461-1.287,2.176-.654,1.072-1.352,2.118-1.969,3.219a9.462,9.462,0,0,0-.653,1.717,1.2,1.2,0,0,0,.523,1.531c.6.36,1.194.738,1.815,1.055.8.4,1.625.731,2.416,1.149a3.237,3.237,0,0,1,1.754,1.961A9.728,9.728,0,0,1,148.65,98c.02.3,0,.614,0,.943a28.6,28.6,0,0,1,2.9.234c.963.176,1.884.516,2.875.788a1.285,1.285,0,0,1-.78,1.193,3.542,3.542,0,0,1-1.275.33c-1.458.025-2.915.021-4.376-.033a1.813,1.813,0,0,0-1.73.755c-.324.427-.755.764-1.048,1.2a6.231,6.231,0,0,0-.734,1.4,1.777,1.777,0,0,0,.41,2.011c.62.609,1.262,1.2,1.884,1.811a22.571,22.571,0,0,1,1.88,1.916,6.338,6.338,0,0,1,.812,1.718,1.546,1.546,0,0,1-.056.82.382.382,0,0,1-.577.293c-.824-.472-1.616-.992-2.424-1.5a.3.3,0,0,1-.1-.216c.049-1.014-.738-1.6-1.271-2.279a13.057,13.057,0,0,0-1.888-1.766,1.292,1.292,0,0,0-.872-.154,24.7,24.7,0,0,1-5.027.228,7.557,7.557,0,0,1-3.231-.792,10.433,10.433,0,0,1-1.535-1.028,2.675,2.675,0,0,1-1.133-2.716A6.551,6.551,0,0,0,131.358,101.992Zm6.976,2.9a2.586,2.586,0,0,0,2.484-.763,7.775,7.775,0,0,0,1.835-2.976,4.673,4.673,0,0,0,.111-.679h-1.653a1.39,1.39,0,0,0-1.1.52,7.857,7.857,0,0,0-1.6,3.02A5.107,5.107,0,0,0,138.334,104.9Zm3.507-11.763a2.262,2.262,0,0,0-1.75.24c-.845.491-.82,1.4-.958,2.184A4.475,4.475,0,0,0,136.9,99a1.83,1.83,0,0,0,2.432-1.51,6.438,6.438,0,0,0,.1-1.251c.02-.7.02-.723.674-.963.292-.1.6-.166.885-.276C141.915,94.664,142.126,94.209,141.842,93.132Zm2.745,3.119a6.407,6.407,0,0,0-.357-1.3.878.878,0,0,0-1.571-.053,4.305,4.305,0,0,0-.418,2.359,1.115,1.115,0,0,0,1.291.943c.613-.02.828-.236.942-.954C144.517,96.978,144.537,96.693,144.586,96.251Zm-7.69,4.807a2.775,2.775,0,0,0-1.9.125,4.4,4.4,0,0,0-1.718,2.006,1.091,1.091,0,0,0-.016.783.768.768,0,0,0,.9.261,2.737,2.737,0,0,0,1.5-.885A7.956,7.956,0,0,0,136.9,101.058Z" transform="translate(-70.061 -52.746)" fill="#fff" fill-rule="evenodd"/>
    <path id="Path_3" data-name="Path 3" d="M213.677,55.274a3,3,0,0,0-2.691-.195c-1.023.353-2.046.772-3.049,1.193a13.3,13.3,0,0,1-3.829,1.166,3.76,3.76,0,0,1-2.124-.491,8.554,8.554,0,0,1,.707-.553,15.743,15.743,0,0,1,5.177-2.145c2.229-.52,4.483-.937,6.731-1.364a43.78,43.78,0,0,0,7.662-1.839,25.3,25.3,0,0,0,2.874-1.363,2.432,2.432,0,0,1,3,.317c.435.393.869.779,1.34,1.2a2.948,2.948,0,0,1-1.441,1.026,15.884,15.884,0,0,1-3.143.873c-2.1.261-4.239.337-6.354.549-1.141.118-2.265.337-3.4.531a3.526,3.526,0,0,0-.6.216,3.524,3.524,0,0,0,2.356,3.211,6.573,6.573,0,0,0,3.487.227c1.84-.337,3.67-.754,5.493-1.14.666-.134,1.315-.3,1.973-.406a5.49,5.49,0,0,1,.9-.008c.186,1.007,0,1.507-.825,1.9-.455.227-.938.358-1.4.553a1.907,1.907,0,0,0-1.307,2.542,11.582,11.582,0,0,0,.41,1.364,1.416,1.416,0,0,0,1.543,1.03,12.563,12.563,0,0,0,1.494-.239c.548-.114,1.084-.264,1.628-.374a2.5,2.5,0,0,1,.671-.021c.751.106,1.186.472,1.267,1.016a1.551,1.551,0,0,1-.852,1.831,6.021,6.021,0,0,1-1.714.353c-.812.049-1.62-.016-2.428-.02-.281,0-.544,0-.918,0v1c0,1.908.041,3.809-.016,5.712a21.865,21.865,0,0,1-.983,6.293,8.939,8.939,0,0,1-1.506,2.936,3.2,3.2,0,0,1-1.264-1.718,8.569,8.569,0,0,1-.442-3.99c.264-2.222.56-4.434.832-6.663.062-.407.045-.837.1-1.258a.924.924,0,0,0-.658-1.033,3.769,3.769,0,0,0-1.966-.3c-.946.1-1.9.183-2.841.24a2.323,2.323,0,0,1-1.685-.666.9.9,0,0,1-.049-1.5,2.255,2.255,0,0,1,1.6-.617c1.259-.008,2.521.016,3.792,0a6.943,6.943,0,0,0,1.409-.166c1-.216,1.242-.537,1.242-1.551,0-.707-.025-1.4,0-2.1a1.181,1.181,0,0,0-.893-1.26,4.051,4.051,0,0,0-1.154-.208c-.812-.021-1.624.024-2.435.049-.227,0-.451.025-.67.025a3.212,3.212,0,0,1-2.61-.784,12.345,12.345,0,0,0-.914,1.027c-1.035,1.473-2.034,2.961-3.053,4.434-1.141,1.66-2.225,3.361-3.455,4.958a11.973,11.973,0,0,1-4.954,3.759,3.645,3.645,0,0,1,.285-.645c.95-1.364,1.875-2.732,2.838-4.065,1.311-1.814,2.712-3.577,3.962-5.432a18.159,18.159,0,0,0,2.679-6.4C213.583,55.968,213.621,55.635,213.677,55.274Z" transform="translate(-123.212 -32.646)" fill="#fff" fill-rule="evenodd"/>
    <path id="Path_4" data-name="Path 4" d="M525.063,163.363a3.069,3.069,0,0,1,1.449,2.456,8.833,8.833,0,0,1-.417,3.058c-.337,1.241-.7,2.481-1,3.736a11.067,11.067,0,0,0-.154,1.574,20.985,20.985,0,0,0,3.24.183,47.984,47.984,0,0,0,11.064-1.779c3.374-.917,6.715-1.951,10.061-2.93a5.221,5.221,0,0,0,.564-.236c-.216-.548-.418-1.076-.637-1.661.791-.105,1.323.475,2,.609a3,3,0,0,0,.167-2.135,11.768,11.768,0,0,0-.5-1.507,4.2,4.2,0,0,1-.37-2.188,2.8,2.8,0,0,1,.557.056c.686.239,1.376.467,2.042.751a7,7,0,0,1,4.337,6.38c0,.057,0,.11,0,.165.3,1.543-.622,2.413-1.8,3.075-.776.426-1.62.755-2.436,1.109a3.157,3.157,0,0,1-.674.2,3.367,3.367,0,0,1-.312-.6,1.554,1.554,0,0,0-1.4-1.136,2.539,2.539,0,0,0-.5-.074c-2.456-.008-4.908-.492-7.377-.151a8.306,8.306,0,0,0-2.932.973c-1.128.615-2.212,1.309-3.325,1.95-.966.575-1.908,1.177-2.919,1.669a5.214,5.214,0,0,1-4.991-.016,10.987,10.987,0,0,0-1.323-.533,4.533,4.533,0,0,0-3.97.31,2.257,2.257,0,0,1-.747.361,4.421,4.421,0,0,1-1.471.194c-1.116-.12-1.425-.5-1.258-1.615a10.8,10.8,0,0,1,.589-2.091,21.944,21.944,0,0,1,1.015-2.2A34.1,34.1,0,0,0,525.063,163.363Z" transform="translate(-333.743 -107.608)" fill="#fff" fill-rule="evenodd"/>
    <path id="Path_5" data-name="Path 5" d="M308.511,83.162c-.849-.524-.954-.905-.423-1.571a7.956,7.956,0,0,1,1.125-1.125,29.436,29.436,0,0,1,6.751-4.04,4.354,4.354,0,0,1,2.859-.341c.954.219,1.3.647,1.072,1.616a7.826,7.826,0,0,1-.694,1.973c-.743,1.373-1.576,2.7-2.359,4.055-.2.334-.39.671-.561.979a1.2,1.2,0,0,0,1.032.475,7.521,7.521,0,0,1,1.5.171,4.142,4.142,0,0,1,1.19.565A1.139,1.139,0,0,1,320.5,87a6.828,6.828,0,0,1-1.088,3.4c-.386.646-.791,1.288-1.128,1.957-.43.849-.426.943.337,1.547.707.549,1.494,1,2.213,1.519a17.374,17.374,0,0,1,1.864,1.425,3.9,3.9,0,0,1,1.14,2.8c-.531-.415-.957-.808-1.454-1.124-1.587-1.024-3.191-2.055-4.815-3.046a11.653,11.653,0,0,0-1.684-.731,1.065,1.065,0,0,0-1.231.3c-.28.3-.568.613-.84.925a1.265,1.265,0,0,1-1.117.455c-.727-.069-1.454-.122-2.184-.167a5.192,5.192,0,0,0-.917-.007c-.816.093-.824.129-1.016.941a7.268,7.268,0,0,1-.275.784,2.1,2.1,0,0,1-1.36-2.015c-.033-1.14-.033-2.286-.049-3.43-.009-.447,0-.881,0-1.364-.337-.065-.662-.134-1.012-.2,0-.865.909-.878,1.239-1.3.645,0,1.267.053,1.884.011a1.947,1.947,0,0,0,1.518-.934c.718-1.039,1.474-2.045,2.152-3.1.8-1.226,1.518-2.488,2.3-3.719.272-.422.593-.8.961-1.29.134.275.232.446.31.616.089-.021.158,0,.187-.04.71-.792,1.449-1.572,2.107-2.391.62-.8.414-1.438-.544-1.714a3.362,3.362,0,0,0-3.188.443,51.07,51.07,0,0,0-5.806,5.087C308.844,82.8,308.7,82.967,308.511,83.162Zm5.318,2.871c-.065-.029-.125-.074-.19-.109-.414.787-.82,1.571-1.226,2.355a9.8,9.8,0,0,0-1.19,2.419,4.145,4.145,0,0,1,2.733,1.012,2.5,2.5,0,0,0,.714.439,5.441,5.441,0,0,0,1.3.243.716.716,0,0,0,.544-.285c.524-.689,1.019-1.392,1.527-2.094a4.608,4.608,0,0,0,.946-2.818c0-.768-.186-.93-.954-.918a3.214,3.214,0,0,0-2.188.942c-.357.312-.666.669-1.023.995-.272.26-.6.441-.971.19a.851.851,0,0,1-.4-1.011c.069-.24.151-.484.211-.736C313.715,86.458,313.768,86.251,313.829,86.032Zm.033,8.044a16.27,16.27,0,0,0-2.111-1,4.282,4.282,0,0,0-1.482-.069.721.721,0,0,0-.45.313,11.422,11.422,0,0,0-.674,1.349c-.236.507-.109.743.435.932a2.95,2.95,0,0,0,1.81-.024A3.744,3.744,0,0,0,313.862,94.076Zm-6.537-2.847a5.848,5.848,0,0,0,.264,2.278.857.857,0,0,0,.475.422.511.511,0,0,0,.5-.125,3.588,3.588,0,0,0,.451-2.091c-.451-.178-.9-.361-1.36-.536C307.584,91.152,307.492,91.2,307.325,91.229Z" transform="translate(-191.999 -50.299)" fill="#fff" fill-rule="evenodd"/>
    <path id="Path_6" data-name="Path 6" d="M22.965,66.931c-1.336,0-2.5.045-3.666-.012A4.154,4.154,0,0,1,16.765,65.9a2.28,2.28,0,0,1-.893-1.571,7.315,7.315,0,0,1,1.076-.354c1.7-.28,3.414-.548,5.128-.817.682-.117.833-.324.545-.95a5.017,5.017,0,0,0-.727-1.015c-.248-.292-.545-.553-.5-1,1.3-.158,2.574-.341,3.853-.439a3.669,3.669,0,0,1,2.107.281,17.174,17.174,0,0,1-.394,3.475c-.309,1.385-.7,2.765-.995,4.17a7.911,7.911,0,0,0-.069,2.6,2.876,2.876,0,0,0,2.3-.256c.439-.247.828-.56,1.259-.832a1.593,1.593,0,0,1,.877-.248,3.943,3.943,0,0,1-.2.414,112.27,112.27,0,0,1-6.894,9.116c-1.092,1.271-.946,1.429-2.692.4a5.978,5.978,0,0,1-2.509-2.636,3.4,3.4,0,0,1-.244-.628c-.171-.609-.114-.7.5-.89.909-.276,1.835-.515,2.72-.856a2.968,2.968,0,0,0,2.269-3.382C23.245,69.289,23.074,68.091,22.965,66.931Z" transform="translate(0 -39.54)" fill="#fff" fill-rule="evenodd"/>
    <path id="Path_7" data-name="Path 7" d="M72.107,55.216a2.7,2.7,0,0,1,1.912-1.5,9.088,9.088,0,0,1,3-.263,2.884,2.884,0,0,1,.389,1.522c.036.958.167,1.108,1.149,1.12.861.009,1.738-.016,2.611-.016,1.864,0,2.249.263,2.935,1.993.183.447.33.905.5,1.385a3.106,3.106,0,0,1-1.738.187c-1.441-.154-2.9-.317-4.341-.446a1.479,1.479,0,0,0-1.8,1.238,9.561,9.561,0,0,0-.26,3.578c.057,1.12.171,2.236.24,3.357a2.853,2.853,0,0,0,2.241,2.68,7.741,7.741,0,0,0,2.834.105c1.2-.137,2.395-.276,3.585-.4a3.642,3.642,0,0,1,.836,0,4.294,4.294,0,0,0,2.927-.166c-.435.734-.845,1.474-1.3,2.187a4.983,4.983,0,0,1-2.383,1.926,19.433,19.433,0,0,1-4.45,1.141c-1.506.244-1.506.223-2.554-.942a13.885,13.885,0,0,1-3.6-9.273c-.041-1.839.1-3.69.142-5.534.02-.99.02-1.964-.012-2.947-.036-1.129-.381-1.4-1.469-1.206C73.037,55.03,72.573,55.127,72.107,55.216Z" transform="translate(-37.229 -35.355)" fill="#fff" fill-rule="evenodd"/>
    <path id="Path_8" data-name="Path 8" d="M478.893,118.329c.589-.11,1.022-.183,1.454-.268a24.132,24.132,0,0,0,5.96-2.226c2.2-1.1,4.368-2.26,6.573-3.362a22.068,22.068,0,0,1,6.375-2.3,16.743,16.743,0,0,1,2.159-.141c.273-.008.646-.045.695.312a1.64,1.64,0,0,1-.163.946,1.559,1.559,0,0,1-.649.5c-.431.2-.873.369-1.312.556a13.31,13.31,0,0,0-4.62,3.147c-.154.159-.288.332-.446.508a.961.961,0,0,0,1,.617,10.977,10.977,0,0,1,1.837.175,2.978,2.978,0,0,1,2.545,2.928c.062,1.275-.032,2.566-.065,3.856a6.192,6.192,0,0,1-.081.832,1.927,1.927,0,0,0,.694,1.949,1.616,1.616,0,0,1,.305.393.773.773,0,0,1-.622,1.215,2.4,2.4,0,0,1-1.258-.35,6.2,6.2,0,0,0-4.56-.994c-.008-.058-.021-.11-.028-.167.642-.175,1.282-.346,1.989-.532a3.438,3.438,0,0,0-.841-1.385,5.925,5.925,0,0,1-1.254-2.253,2.046,2.046,0,0,1-.032-.223c.865.244,1.71.479,2.546.723a.64.64,0,0,0,.836-.341,5.375,5.375,0,0,0,.78-3.544,1.64,1.64,0,0,0-1.576-1.563,1.9,1.9,0,0,0-.332-.045,2.115,2.115,0,0,0-2.55,1.421c-.325.67-.544,1.409-.829,2.1a20.139,20.139,0,0,1-.978,2.132,2.289,2.289,0,0,1-2.213,1.153,2.391,2.391,0,0,1-.138-2.188,7.362,7.362,0,0,1,.929-1.673c.658-.877,1.38-1.689,2.091-2.525a18.221,18.221,0,0,0,2.644-4.358,6.569,6.569,0,0,0,.275-.84,9.692,9.692,0,0,0-1.2.065,11.811,11.811,0,0,0-4.069,1.742c-1.388.9-2.717,1.889-4.093,2.8a35.844,35.844,0,0,1-3.086,1.856,3.947,3.947,0,0,1-2.838.459A3.821,3.821,0,0,1,478.893,118.329Z" transform="translate(-306.534 -72.843)" fill="#fff" fill-rule="evenodd"/>
    <path id="Path_9" data-name="Path 9" d="M221.144,13.325c.26-.093.365-.1.458-.15a5.018,5.018,0,0,1,3.065-.662,1.293,1.293,0,0,0,1.393-.78,26.163,26.163,0,0,0,3.228-8.607c.15-.768.235-1.539.37-2.323.032-.243.105-.47.186-.8a6.925,6.925,0,0,1,2.989,2.939,1.247,1.247,0,0,1-.062.954,37.807,37.807,0,0,1-1.879,3.642c-.763,1.231-1.685,2.368-2.542,3.553-.207.284-.54.576-.252.967.272.357.662.194,1.016.1.706-.187,1.388-.443,2.1-.569a3.768,3.768,0,0,1,1.4,0,1.628,1.628,0,0,0,2.087-1.068c.247-.6.414-1.215.646-1.819a1.7,1.7,0,0,1,1.291-1.19c.515-.109.646-.065.841.43a3.481,3.481,0,0,1-.268,3.293A6.27,6.27,0,0,1,235,13.378a8.236,8.236,0,0,1-2.453,1.064c.379-.8.682-1.429,1.036-2.185a2.941,2.941,0,0,0-.776-.174,18.361,18.361,0,0,0-2.408.328c-3.045.707-6.086,1.442-9.127,2.18-.7.176-1.393.394-2.1.582a2.745,2.745,0,0,1-.65.085c-.995,0-1.474-.646-1.1-1.547a5.058,5.058,0,0,1,1.006-1.425c.662-.707,1.384-1.369,2.14-2.108.39.073.455.487.508.857a9.3,9.3,0,0,1,.06,1.258C221.144,12.594,221.144,12.9,221.144,13.325Z" transform="translate(-133.346)" fill="#fff" fill-rule="evenodd"/>
    <path id="Path_10" data-name="Path 10" d="M565.339,125.72a1.116,1.116,0,0,1,1.47-.455,15.821,15.821,0,0,1,1.485.767c.869.507,1.718,1.05,2.68,1.644-.041-.09,0-.045,0,.012.114,3.082.252,6.152.313,9.237a17.337,17.337,0,0,1-.483,4.668,4.905,4.905,0,0,1-1.357,2.606,2.069,2.069,0,0,1-1.023-1.169,9.368,9.368,0,0,1-.665-2.327,35.173,35.173,0,0,1-.118-3.775c0-2.1.069-4.206.065-6.309a8.962,8.962,0,0,0-.239-1.819A4.325,4.325,0,0,0,565.339,125.72Z" transform="translate(-363.764 -82.848)" fill="#fff" fill-rule="evenodd"/>
    <path id="Path_11" data-name="Path 11" d="M389.722,57.369c.8.584,1.478,1.075,2.14,1.583a4.619,4.619,0,0,1,1.958,3.984,3.558,3.558,0,0,0,.012.417,1.143,1.143,0,0,0,.154.248,20.816,20.816,0,0,0,1.572-3.091c-.381-.186-.694-.352-1.1-.559.21-.126.368-.223.511-.317a2.114,2.114,0,0,0,.593-3.515c-.212-.252-.426-.513-.711-.841a2.683,2.683,0,0,1,.772-1.308,1.641,1.641,0,0,1,1.608-.5,5.416,5.416,0,0,1,2.383,1.206c-.146.519-.308,1.019-.434,1.529a2.832,2.832,0,0,0-.13.748.888.888,0,0,0,.979,1c.662.024,1.328.008,2.038.008a1.405,1.405,0,0,1-1.128,1.258,13.735,13.735,0,0,1-1.9.309,1.256,1.256,0,0,0-1.064.544c-.666.893-1.336,1.791-2.018,2.684a13.389,13.389,0,0,1-1.007,1.225c-.385.394-.528.37-.995.046a1.725,1.725,0,0,0-.524-.252,4.27,4.27,0,0,1-3.471-3.537A8.166,8.166,0,0,1,389.722,57.369Z" transform="translate(-247.473 -35.367)" fill="#fff" fill-rule="evenodd"/>
    <path id="Path_12" data-name="Path 12" d="M502.194,88.815a2.583,2.583,0,0,1-.589-2.794,8,8,0,0,1,.946-1.771c.455-.706.99-1.359,1.462-2.046a3.334,3.334,0,0,0,.71-1.616,2.45,2.45,0,0,0-1.733.029,9.7,9.7,0,0,0-1.677.5,5.91,5.91,0,0,1-2.985.175,20.14,20.14,0,0,1,12.145-4.057A56.5,56.5,0,0,0,502.194,88.815Z" transform="translate(-319.4 -51.132)" fill="#fff" fill-rule="evenodd"/>
    <path id="Path_13" data-name="Path 13" d="M519.858,98.4a5.876,5.876,0,0,1,.243-1.2,13.605,13.605,0,0,1,.877-1.617c.28-.491.606-.941.882-1.425a1.138,1.138,0,0,0-.046-1.333.639.639,0,0,1,.545-1.047,4.036,4.036,0,0,1,2.3.9c.122.077.13.357.122.54a5.22,5.22,0,0,1-.865,2.684A6.446,6.446,0,0,1,519.858,98.4Z" transform="translate(-333.654 -60.763)" fill="#fff" fill-rule="evenodd"/>
    <path id="Path_14" data-name="Path 14" d="M374.338,79.809a1.607,1.607,0,0,0,1.913.073,4.351,4.351,0,0,1,1.255-.267,5.192,5.192,0,0,1-.573,3.792c-.163.279-.41.251-.666.162a2.622,2.622,0,0,1-2.1-2.83c0-.194.017-.386.033-.58A3.193,3.193,0,0,1,374.338,79.809Z" transform="translate(-237.202 -52.708)" fill="#fff" fill-rule="evenodd"/>
    <path id="Path_15" data-name="Path 15" d="M135.922,93.111a2.415,2.415,0,0,1,.232-.289c.71-.621.718-.662.422-1.567-.077-.223-.13-.46-.2-.711a3.172,3.172,0,0,1,3.086,3.215c-.074.568-.308.808-.874.76A3.718,3.718,0,0,1,135.922,93.111Z" transform="translate(-79.477 -59.943)" fill="#fff" fill-rule="evenodd"/>
    <path id="Path_16" data-name="Path 16" d="M517.742,60.117a1.381,1.381,0,0,1,1.239-.767,2.884,2.884,0,0,1,2.453.812,1.367,1.367,0,0,1,.007,2,1.007,1.007,0,0,1-1.49-.036c-.2-.178-.374-.415-.564-.613a8.6,8.6,0,0,0-.744-.788A10.029,10.029,0,0,0,517.742,60.117Z" transform="translate(-332.253 -39.281)" fill="#fff" fill-rule="evenodd"/>
    <g id="Group_1" data-name="Group 1" transform="translate(235.38 12.429)">
      <path id="Path_17" data-name="Path 17" d="M676.068,61.367a22.88,22.88,0,0,0-5.469.516c-.49.1-.954.258-1.444.361a13.912,13.912,0,0,0-1.5.284c-.31.1-.619.361-.9.464-.206.051-.335-.129-.464-.258a29.229,29.229,0,0,1-.928-6.345c.026-1.238.077-8.8.31-9.415.129-.335.361-.1.593-.1a17.448,17.448,0,0,0,3.766-.645,37.738,37.738,0,0,1,6.165-1.084c.31,0,.748-.051,1.084-.051a5.565,5.565,0,0,1,2.992.567,4.111,4.111,0,0,1,1.264.619c.155.18,0,.593-.077.748a1.8,1.8,0,0,0-.335.825,8.26,8.26,0,0,0-.206,2.141c-.18,2.554.232,12.124,0,13.852A8.789,8.789,0,0,1,680.789,65,20.345,20.345,0,0,1,676.068,61.367Zm-9-6.139c.181.542-.077,1.264-.026,1.831a24.915,24.915,0,0,0,.31,3.225c.129.49,1.548.206,1.857.155,1.238-.284,1.393-.671,2.27-1.419.206-.181.438-.336.619-.516,1.341-1.264,1.625-2.528,2.5-4.05A6.868,6.868,0,0,0,674,53.035c-.568.31-.619,1.393-.928,1.935a14.847,14.847,0,0,0-2.683.877,2.97,2.97,0,0,1-.851.438c-.335-.129-1.728-2.915-1.522-3.2,1.341-.49,4.23-2.038,5.546-1.651-.1-.387-.026-.774-.309-1.109-1.135.232-2.193.748-3.276,1.084-.464.155-.851.464-1.316.593-.439-.129-.387-.645-.619-.98.051-.284-.258-.671.026-.9a12.442,12.442,0,0,0,3.379-.8,5.8,5.8,0,0,0,1.341-.619c-.206-.413-.387-1.393-.954-1.419a12.27,12.27,0,0,0-4.076,1.444,5.532,5.532,0,0,0-.516,2.554,10.039,10.039,0,0,1-.052,1.522A12.161,12.161,0,0,1,667.065,55.228Zm1.161,4.23a8.75,8.75,0,0,0-.671-1.6l.542-.258a20.8,20.8,0,0,0,4.8-2.038c.181.026.31.851.258,1.032A34.407,34.407,0,0,1,668.226,59.459Zm1.574-5.623c-.387,1.238,1.883,1.006,2.063-.464-.051-.129-.1-.567-.284-.593C671.012,53.035,670.032,53.087,669.8,53.835Zm5.572,2.012c-.258.516-.774.877-.619,1.5.051.18.258.464.18.7a17.546,17.546,0,0,1-2.038,1.367,2.271,2.271,0,0,0-1.032.645,2.479,2.479,0,0,1,.877-.1,6.723,6.723,0,0,0,.929-.206,28.114,28.114,0,0,0,2.915-.335l.181.155a6.532,6.532,0,0,1,.542,1.651c.825.1,1.393.413,1.625-.335.1-2.193.1-11.788-.7-13.568-.413-.9-1.7-.929-2.554-.929-.593.232-1.393.026-1.857.567a2.323,2.323,0,0,0,.155,1.109c.206.464.567-.052.954.155.051-.361-.026-.825.284-1.084a.491.491,0,0,1,.774.129c.464,1.058,1.083,1.238,1.341,1.754.129.284-.155.542-.31.722a16.061,16.061,0,0,1-1.908-.232c-.026.439-.619.232-.645.645a9.013,9.013,0,0,0,.9,2.657c.284-.671.361-1.471.645-2.115.31-.645.723.077,1.135.051.233.258.619.31.413.722a31.976,31.976,0,0,0-1.548,2.941,4.255,4.255,0,0,0,1.187,1.805,2.452,2.452,0,0,0,.361-1.135c.1-.232-.18-.825.206-.825.026.1.284.361.206.464a11.745,11.745,0,0,0,.31,1.367c0,.671.387,2.838-.051,3.353C677.1,59.149,675.965,56.9,675.372,55.847Z" transform="translate(-665.362 -42.278)" fill="#fff"/>
      <path id="Path_18" data-name="Path 18" d="M741.013,48.153a5.233,5.233,0,0,1-2.76-.593c.129-.1.077-.258.155-.413a9.976,9.976,0,0,1,2.27-2.889c.722-.232-.335,1.935.49,2.889a.209.209,0,0,0,.1.232A1.389,1.389,0,0,1,741.013,48.153ZM756.258,57.1c-.335-.1-.619.1-.98-.077-.9-.077-1.78-.284-2.683-.31-.207-.206-.181-.567-.232-.825-.387-1.831-2.4-2.579-3.818-3.482-.129.077-.206-.052-.284.1.052.31-.1.645.052.929a17.711,17.711,0,0,1-.542,6.6,9.607,9.607,0,0,1-1.418-.567c-1.573-.619-3.3-.9-4.488-2.27a4.316,4.316,0,0,1-2.786.645c-.181,0-.49-.052-.361-.335a7.127,7.127,0,0,1,1.393-.851c1.806-1.212,4.385-3.121,5.572-4.953-.052-.077-.026-.31-.155-.31-.49,0-2.425,1.831-3.147,2.192-.31.877-1.238.929-1.986,1.109-.233.051-.439.155-.645.206a1.29,1.29,0,0,1-.748-.18l-.1-.258a15.325,15.325,0,0,0,5.443-4.23.472.472,0,0,0,.077-.542c-.1-.129-.155.077-.284-.026a10.462,10.462,0,0,1-2.347,1.986,4.511,4.511,0,0,1-2.115.1c.026-.387.594-.593.9-.825a11.4,11.4,0,0,0,2.941-2.734c-.387-.413-.852-.98-.7-1.574.1-.387.361-.155.645-.232,2.167-.567,4.153-1.883,6.449-2.012a.347.347,0,0,1,.31.129c-.077.516-.516.9-.438,1.444-.206.335-.671.258-.98.438a33.661,33.661,0,0,0-3.044,1.935c-.078.077-.206.129-.155.258,1.161.722.954,1.006,1.754,1.935a21.8,21.8,0,0,0,3.534-3.534,2.517,2.517,0,0,1,1.032.619c.335.232,1.006.361,1.135.774-.258.284-.748.31-1.109.49a8.11,8.11,0,0,0-2.3,1.754c-.077.129-.026.207.051.31a14.328,14.328,0,0,0,5.237,3.766,35.275,35.275,0,0,1,3.688,1.444.379.379,0,0,1,.284.593A7.765,7.765,0,0,1,756.258,57.1Zm-.619-11.582a10.338,10.338,0,0,1-2.631.516,8.788,8.788,0,0,1-2.889-.464c.155-.387,1.806.077,2.683-1.444a1.214,1.214,0,0,0-.181-1.238c-.774-1.264-3.431-.284-4.411.18-.284.129-.619.18-.877.31-1.419.722-2.141.413-3.405.9a1.06,1.06,0,0,1-.722.335c-.077.206-.284.129-.361.335-.284.051-.413.335-.671.129-.439-.31-.233-.825-.413-1.238l.181-.155c3.353-.98,9.364-4.385,12.253-.877a17.6,17.6,0,0,1,1.7,2.322C755.923,45.29,755.742,45.419,755.639,45.523Zm-9.57,8.074a14.176,14.176,0,0,0-2.012,1.651c-.49.439-1.393.954-1.651,1.574.31.438.98.464,1.471.567.619.155,2.141.155,2.451-.567a14.51,14.51,0,0,0,.181-2.425C746.482,54.138,746.533,53.416,746.069,53.6Zm3.1-13.542c-.31.052-.671,0-.9.232-.387.026-.877-.18-1.212-.026-.413.026-.7-.31-1.135-.284a4.772,4.772,0,0,1-.31-2.941c1.032-.774,1.213.387,1.935.877.439.31.851.671,1.316.954.206.155.439.258.645.387a.348.348,0,0,1,.129.31C749.5,39.744,749.293,39.873,749.164,40.054Z" transform="translate(-713.618 -36.777)" fill="#fff"/>
      <path id="Path_19" data-name="Path 19" d="M831.483,64.6c-2.863-1.032-5.8-2.786-6.733-5.907a13.043,13.043,0,0,1-.387-3.612l-.284.284a4.976,4.976,0,0,0-1.547,2.708,3.314,3.314,0,0,0-2.115.155,3.106,3.106,0,0,0-.206,1.393c.567.438.954-.361,1.522-.232.18-.155.31.026.464-.077a1.9,1.9,0,0,1,1.573.593c.464.232.516.722.826,1.084.232.722.387,2.476-.232,3.07-.361.361-1.032-.439-1.471-.619l-1.083-1.6-.026-.335c.439.026,1.213.438,1.6.31.748-.258.851-2.218-1.444-1.677a2.569,2.569,0,0,0-.644,1.419c-.129.155-.284.284-.464.181-1.058.077-1.986.361-3.044.542-.748.1-1.444.464-2.192.567a3.065,3.065,0,0,1-.774-1.961c.748-.051,3.74-.232,3.9-1.109a2.863,2.863,0,0,0-.077-1.238c-.516-.052-1.161.335-1.677.413a33.062,33.062,0,0,1-1.573-2.992c-.18,0-.18.258-.207.387-.206.851-.98,1.986-.284,2.812-.233,1.316-3.56,3.07-4.824,2.786.026-.31,2.244-2.425,2.605-2.915,1.909-2.425,1.677-5.856,1.625-8.771-.18-.438-.1-.98-.361-1.393.258-.335.825-.052,1.109-.31,1.908-.31,3.714-1.058,5.623-1.316a25.656,25.656,0,0,0,3.431-.542,1.022,1.022,0,0,0,.619.026,6.854,6.854,0,0,1,3.018,1.212,11.364,11.364,0,0,1-.954,1.187c-.052.361-.49.877-.594,1.264-.619,1.806-.567,7.378.361,8.77.439.671,1.754,2.064,2.657,1.831,1.264-.335,1.006-3.379.8-4.333,0-.129-.1-.49-.051-.567a10.169,10.169,0,0,0,.748,1.393A3.5,3.5,0,0,0,831.1,58.7a44.974,44.974,0,0,1,.567,5.262A.833.833,0,0,1,831.483,64.6Zm-7.3-15.864c-.258-.31-.593-.722-1.057-.593-2.3.567-4.746.825-6.862,1.986-.232.284-.155.645-.31.98-.051,1.161-.284,2.322-.284,3.482a9.857,9.857,0,0,0,2.837-.542,4.115,4.115,0,0,0-.077-1.367c-.335-.155-.851.206-1.187,0a7.509,7.509,0,0,0-.516-1.625c1.471-.206,4.566-1.367,5.907-.98.31.1.284.516.31.774.129.051.078.232.078.335a3.516,3.516,0,0,1-2.141.929,2.085,2.085,0,0,0-.387,1.6c.051,0,.078-.026.129-.026a5.178,5.178,0,0,1,.671-.129,4.046,4.046,0,0,1,3.1.567C824.132,52.35,824.544,50.544,824.183,48.738Zm-5.52,6.707c-.026-.49-1.471.1-1.316.722.026.129.026.413.129.49a.517.517,0,0,0,.1.438,3.041,3.041,0,0,0,1.187-.077Zm1.728-.619a7.922,7.922,0,0,0-.077,1.754c.309-.077.748.026,1.006-.18.155-.335.542-.825.387-1.212C821.552,54.749,820.778,54.671,820.391,54.826Z" transform="translate(-761.165 -43.346)" fill="#fff"/>
      <path id="Path_20" data-name="Path 20" d="M903.026,43.083c-1.032,2.27-1.935,5.21-3.018,5.21a3.5,3.5,0,0,1-1.212-.361h-.877c.077.516.309.851.051,1.419l1.083-.052c.722-.18,6.449-.671,6.449-.671.31.31.8,1.393,1.213,1.857.1.129.026,1.084-.18,1.084,0,0-2.605-.8-3.25-.877a26.856,26.856,0,0,0-3.818.052c-.284,0-2.838.361-2.838.361l-.929.1c-1.006.1-1.728.516-2.812.567-.026,0-5.211.98-5.262,1.006-.18.1-.542-.645-.774-1.47,1.445-.181,5.082-.748,7.223-1.161.877-.155,2.218-.207,2.167-.774a3.251,3.251,0,0,0-.49-.954c-.31.155-.619.464-.851.464-.078,0-2.786-3.018-2.786-5.391,0-.31.077.18,0-.516l7.636-1.316C900.679,41.794,903.181,42.748,903.026,43.083Zm-9.312,14.523c-.722,1.471-1.393,4.308-1.961,4.308-.129,0-2.167-.8-2.167-1.032,0-.774,1.419-1.444,3.766-3.276Zm8.616-4.669c0,.1-.7.954-.98,1.574-.7,1.522-.077,2.064-1.341,2.064h-.851c-.284,0-.774.516-.722,2.5l.1,4.127L897.4,63c-1.6-.619-2.657-.851-3.895-2.476l1.058.31a10.766,10.766,0,0,0,1.857.1c.1,0,.335-.155.31-.8L896.6,57.5c-.052-.877-.954-.361-1.419-.206-.051.026-2.5-2.115-2.5-4.179,0-.49,3.069-.774,5.314-1.393a6.262,6.262,0,0,1,1.7,0C900.266,51.725,902.329,52.215,902.329,52.937Zm-7.635-8.022c.206.1.722-.1.722-.1a18.584,18.584,0,0,1,2.657-.516c.387,0,.723.619.464.825-.671.567-3.2.8-3.457,1.47-.051.206.129.542.155.7h.49c.413-.284.929-.129,2.09-.567,1.418-.1,1.625,0,2.167-2.218a1.371,1.371,0,0,0-.464-1.367l-1.29-.051c-1.109.438-2.76.413-3.637,1.135C894.617,44.4,894.668,44.734,894.694,44.915Zm1.238,10.6c1.264,0,3.121-.335,3.173-.851v-.877a1.8,1.8,0,0,0-1.522-.619c-1.264,0-2.373.825-2.373,1.264C895.21,54.82,895.365,55.517,895.932,55.517Zm7.352,2.864c.98.258,1.212.413,1.187.954-.052,1.754,0,2.838-1.032,2.838-.568,0-.774-1.109-3.2-4.153.155-.077.155-.335.335-.335A23.178,23.178,0,0,1,903.284,58.38Z" transform="translate(-811.995 -40.013)" fill="#fff"/>
      <path id="Path_21" data-name="Path 21" d="M972.008,51.764c.026.8-.181,1.574-.155,2.373.026,1.212,0,2.451,0,3.663.284.645-.284,2.657.671,2.966a45.082,45.082,0,0,0,5.907-.722c2.321-.387,4.695-.31,7.016-.671.258.18.232.516.387.774.155.567.825.645.825,1.264,0,.31,0,.954-.258,1.135-.361-.077-.593-.413-1.006-.31a6.333,6.333,0,0,0-1.806-.413,20.052,20.052,0,0,0-5.417.026,21.123,21.123,0,0,1-2.167.18,3.971,3.971,0,0,0-1.548.232c-.722.232-2.554.438-2.94,1.084-.542-.155-.542-1.393-.852-1.857-.8-3.56-.206-7.4-.284-11.014l.155-.542a4.158,4.158,0,0,1,1.573.387C972.343,50.783,971.982,51.274,972.008,51.764Zm12.125-6.294c-.051.413.464,1.109-.129,1.29-1.857-.155-3.1-.413-4.927.155-1.806.567-3.353,0-5.133,1.058a1.489,1.489,0,0,1-.774.335c-.233-.18-.1-.439-.31-.645.026-.645-.568-.954-.439-1.548l.387-.155c3.07.1,5.907-1.212,8.951-1.238.438-.284.98-.18,1.418-.387l.361.1C983.771,44.747,983.849,45.134,984.133,45.47ZM974.51,58.858c-.568-1.058-1.754-2.631-1.444-3.869.078-.387,1.419-.593,1.754-.671a7.462,7.462,0,0,1,3.612-.129c-.49,1.238-.361,2.631-.671,3.9C977.477,58.342,975.155,58.625,974.51,58.858Zm8.565-9.416-.31.413a3.6,3.6,0,0,0-1.444,1.883,2.022,2.022,0,0,1-.232.542c-.129.18-.619.1-.825.129-1.29.206-2.5.49-3.74.748-.31-.18-.361-.593-.567-.851a6.021,6.021,0,0,1-1.29-2.4c.129-.31.542-.155.7-.387,1.264-.361,4.669-1.29,5.855-1.084a3.548,3.548,0,0,1,1.342.516C982.686,49.107,982.946,49.287,983.075,49.442Zm-8,7.739a3.43,3.43,0,0,0,1.161-.206c.284-.206.31-1.212.155-1.548-.206-.387-1.109-.026-1.418.077-.49.155-.026.619-.155.954C974.922,56.665,974.9,57.052,975.077,57.181Zm2.192-5.649a9.667,9.667,0,0,0,2.425-.361c.335-.1.335-.8.258-1.058-.181-.258-.258-.542-.645-.464a5.168,5.168,0,0,0-2.347.774A1.268,1.268,0,0,0,977.27,51.531Zm7.224,1.883a1.1,1.1,0,0,1,.929.335,1.088,1.088,0,0,1-.258.774,8.028,8.028,0,0,0-1.135,3.25c-.232.31-1.032.1-1.393.077a5.725,5.725,0,0,0-2.245.387c-.309-.1-.387-.671-.542-.929a13.092,13.092,0,0,1-.929-3.3c1.213-.335,3.483-1.084,4.669-.8A1.352,1.352,0,0,1,984.494,53.415ZM981.06,56.3c.413.232,1.161-.077,1.625-.155a1.716,1.716,0,0,0,.1-1.548c-.232-.542-1.548-.18-1.909.18A3.057,3.057,0,0,0,981.06,56.3Z" transform="translate(-867.202 -41.78)" fill="#fff"/>
    </g>
    <g id="Group_2" data-name="Group 2" transform="translate(237.461 42.333)">
      <path id="Path_22" data-name="Path 22" d="M671.52,125.257l5.071,5.213v-4.938h.936v7.176l-5.071-5.189v4.872h-.936Z" transform="translate(-671.52 -125.257)" fill="#fff"/>
      <path id="Path_23" data-name="Path 23" d="M692.434,135.18a2.213,2.213,0,0,1,.719-1.618,2.286,2.286,0,0,1,1.65-.708,2.324,2.324,0,0,1,1.674.7,2.2,2.2,0,0,1,.716,1.628,2.281,2.281,0,0,1-.7,1.65,2.212,2.212,0,0,1-1.623.713,2.368,2.368,0,0,1-1.709-.705A2.24,2.24,0,0,1,692.434,135.18Zm3.854,0a1.329,1.329,0,0,0-.431-.985,1.419,1.419,0,0,0-1.023-.418,1.455,1.455,0,0,0-1.047.423,1.356,1.356,0,0,0-.439,1.011,1.312,1.312,0,0,0,.444.981,1.466,1.466,0,0,0,1.042.421,1.4,1.4,0,0,0,1.018-.431A1.368,1.368,0,0,0,696.288,135.183Z" transform="translate(-685.366 -130.286)" fill="#fff"/>
      <path id="Path_24" data-name="Path 24" d="M710.773,132.978v.915a2.849,2.849,0,0,1,.611-.794,1.187,1.187,0,0,1,.778-.245,1.709,1.709,0,0,1,.388.065l-.286.937a2.351,2.351,0,0,0-.355-.054,1.061,1.061,0,0,0-.794.331,1.141,1.141,0,0,0-.32.826v2.46h-.937v-4.441h.915Z" transform="translate(-696.901 -130.286)" fill="#fff"/>
      <path id="Path_25" data-name="Path 25" d="M720.44,129.4h.937v1.292h.926v.856h-.926v3.585h-.937v-3.585H719.7v-.867h.737Z" transform="translate(-703.419 -127.998)" fill="#fff"/>
      <path id="Path_26" data-name="Path 26" d="M729.228,125.687h.936v3.273a3.176,3.176,0,0,1,.724-.649,1.57,1.57,0,0,1,.821-.2,1.305,1.305,0,0,1,.977.433,1.451,1.451,0,0,1,.412,1.036v3.1h-.937v-2.831a1.011,1.011,0,0,0-.213-.673.7.7,0,0,0-.562-.253,1.141,1.141,0,0,0-.864.382,1.306,1.306,0,0,0-.358.926v2.45h-.937v-6.988Z" transform="translate(-709.724 -125.542)" fill="#fff"/>
      <path id="Path_27" data-name="Path 27" d="M758.292,125.885v1.061a4.684,4.684,0,0,0-2.04-.544,2.825,2.825,0,0,0-2.014.772,2.6,2.6,0,0,0,.019,3.808,2.988,2.988,0,0,0,2.1.767,3.966,3.966,0,0,0,1.938-.576v1.071a4.232,4.232,0,0,1-2.019.5,3.8,3.8,0,0,1-2.724-1.078,3.465,3.465,0,0,1-1.131-2.6,3.419,3.419,0,0,1,1.112-2.56,3.731,3.731,0,0,1,2.678-1.065A5.354,5.354,0,0,1,758.292,125.885Z" transform="translate(-725.077 -125.374)" fill="#fff"/>
      <path id="Path_28" data-name="Path 28" d="M772.092,135.18a2.213,2.213,0,0,1,.719-1.618,2.286,2.286,0,0,1,1.65-.708,2.324,2.324,0,0,1,1.674.7,2.2,2.2,0,0,1,.716,1.628,2.282,2.282,0,0,1-.7,1.65,2.213,2.213,0,0,1-1.623.713,2.368,2.368,0,0,1-1.709-.705A2.241,2.241,0,0,1,772.092,135.18Zm3.854,0a1.329,1.329,0,0,0-.43-.985,1.42,1.42,0,0,0-1.023-.418,1.454,1.454,0,0,0-1.047.423,1.356,1.356,0,0,0-.439,1.011,1.312,1.312,0,0,0,.444.981,1.466,1.466,0,0,0,1.042.421,1.4,1.4,0,0,0,1.018-.431A1.368,1.368,0,0,0,775.946,135.183Z" transform="translate(-738.102 -130.286)" fill="#fff"/>
      <path id="Path_29" data-name="Path 29" d="M792.728,132.979h.936v4.441h-.936v-.883a2.005,2.005,0,0,1-1.7,1.007,1.948,1.948,0,0,1-1.5-.689,2.41,2.41,0,0,1-.622-1.674,2.357,2.357,0,0,1,.627-1.628,1.923,1.923,0,0,1,1.472-.7,1.877,1.877,0,0,1,.991.285,2.029,2.029,0,0,1,.727.743v-.9Zm.129,2.234a1.415,1.415,0,0,0-.437-1.042,1.47,1.47,0,0,0-2.082,0,1.369,1.369,0,0,0-.442,1.012,1.475,1.475,0,0,0,.431,1.071,1.409,1.409,0,0,0,1.046.441,1.495,1.495,0,0,0,1.483-1.48Z" transform="translate(-749.236 -130.287)" fill="#fff"/>
      <path id="Path_30" data-name="Path 30" d="M809.13,133.507l-.625.549a3.278,3.278,0,0,0-.42-.261.929.929,0,0,0-.42-.089q-.57,0-.57.42,0,.3.724.585a2.872,2.872,0,0,1,1.042.623,1.152,1.152,0,0,1,.318.817,1.282,1.282,0,0,1-.458.976,1.547,1.547,0,0,1-1.077.417,1.813,1.813,0,0,1-1.545-.872l.737-.355a1.158,1.158,0,0,0,.808.377.839.839,0,0,0,.509-.159.453.453,0,0,0,.218-.369q0-.371-.764-.668a3.041,3.041,0,0,1-1.058-.6,1.039,1.039,0,0,1-.293-.751,1.18,1.18,0,0,1,.417-.923,1.523,1.523,0,0,1,1.047-.369A2.308,2.308,0,0,1,809.13,133.507Z" transform="translate(-760.615 -130.288)" fill="#fff"/>
      <path id="Path_31" data-name="Path 31" d="M817.444,129.4h.936v1.292h.926v.856h-.926v3.585h-.936v-3.585h-.738v-.867h.738Z" transform="translate(-767.638 -127.998)" fill="#fff"/>
      <path id="Path_32" data-name="Path 32" d="M838.431,128.74l1.424,1.52.774-.85.662.592-.816.913,1.444,1.526h-1.226l-.816-.858a3.344,3.344,0,0,1-2.26,1.111,2.432,2.432,0,0,1-1.635-.59,1.787,1.787,0,0,1-.689-1.4,1.562,1.562,0,0,1,.306-.994,7.133,7.133,0,0,1,1.409-1.144q-.1-.151-.172-.242a3.419,3.419,0,0,1-.561-.885,1.7,1.7,0,0,1-.089-.5,1.541,1.541,0,0,1,.479-1.092,1.7,1.7,0,0,1,1.281-.5,1.647,1.647,0,0,1,1.19.474,1.537,1.537,0,0,1,.49,1.147A2.2,2.2,0,0,1,838.431,128.74Zm.828,2.178-1.608-1.706a5.748,5.748,0,0,0-1.156.888.94.94,0,0,0-.242.6.974.974,0,0,0,.4.778,1.481,1.481,0,0,0,.965.325,1.56,1.56,0,0,0,.794-.213A4.668,4.668,0,0,0,839.259,130.918Zm-1.462-2.832a4.355,4.355,0,0,0,.711-.576.779.779,0,0,0,.237-.538.673.673,0,0,0-.223-.528,1,1,0,0,0-1.19-.005.614.614,0,0,0-.229.49A2.012,2.012,0,0,0,837.8,128.086Z" transform="translate(-779.943 -125.319)" fill="#fff"/>
      <path id="Path_33" data-name="Path 33" d="M872.913,126.746l-.695.684a3.368,3.368,0,0,0-2.428-1.028,2.775,2.775,0,0,0-2.008.775,2.64,2.64,0,0,0-.024,3.767,2.825,2.825,0,0,0,2.146.815,2.4,2.4,0,0,0,2.579-1.782h-1.852v-.937h2.923a5.357,5.357,0,0,1-.094,1.123,3.292,3.292,0,0,1-.39.925,3.346,3.346,0,0,1-.789.906,3.106,3.106,0,0,1-1.055.573,4.629,4.629,0,0,1-1.343.172,3.721,3.721,0,0,1-2.835-1.116,3.608,3.608,0,0,1-1.058-2.553,3.473,3.473,0,0,1,1.082-2.574,3.6,3.6,0,0,1,2.622-1.063,4.821,4.821,0,0,1,1.671.277A4.571,4.571,0,0,1,872.913,126.746Z" transform="translate(-800.265 -125.374)" fill="#fff"/>
      <path id="Path_34" data-name="Path 34" d="M891.268,133.221h.937v2.5q0,1.157,1.017,1.158a.891.891,0,0,0,.716-.31,1.266,1.266,0,0,0,.264-.848v-2.5h.926v2.654a1.85,1.85,0,0,1-.544,1.373,2.068,2.068,0,0,1-2.783,0,1.912,1.912,0,0,1-.533-1.4Z" transform="translate(-817 -130.529)" fill="#fff"/>
      <path id="Path_35" data-name="Path 35" d="M909.627,132.979h.937v4.441h-.937v-.883a2.005,2.005,0,0,1-1.7,1.007,1.948,1.948,0,0,1-1.5-.689,2.409,2.409,0,0,1-.622-1.674,2.358,2.358,0,0,1,.627-1.628,1.923,1.923,0,0,1,1.472-.7,1.878,1.878,0,0,1,.991.285,2.029,2.029,0,0,1,.727.743v-.9Zm.129,2.234a1.415,1.415,0,0,0-.437-1.042,1.47,1.47,0,0,0-2.082,0,1.368,1.368,0,0,0-.442,1.012,1.475,1.475,0,0,0,.431,1.071,1.409,1.409,0,0,0,1.046.441,1.495,1.495,0,0,0,1.483-1.48Z" transform="translate(-826.627 -130.287)" fill="#fff"/>
      <path id="Path_36" data-name="Path 36" d="M923.522,137.42v-4.441h.915v.738a3.746,3.746,0,0,1,.732-.654,1.342,1.342,0,0,1,.732-.207,1.46,1.46,0,0,1,1.031.4,1.263,1.263,0,0,1,.428.958v3.208h-.937v-2.934a.816.816,0,0,0-.234-.6.8.8,0,0,0-.595-.237,1.031,1.031,0,0,0-.808.4,1.418,1.418,0,0,0-.339.955v2.417h-.926Z" transform="translate(-838.353 -130.287)" fill="#fff"/>
      <path id="Path_37" data-name="Path 37" d="M936.5,133.221h1.063l1.611,2.413,1.114-2.413h.966l-3,6.525h-.979l1.467-3.177Z" transform="translate(-846.947 -130.529)" fill="#fff"/>
      <path id="Path_38" data-name="Path 38" d="M953.149,127.5a.682.682,0,0,1,.216-.5.7.7,0,0,1,.511-.213.716.716,0,0,1,0,1.432.706.706,0,0,1-.511-.21A.679.679,0,0,1,953.149,127.5Zm.264,1.459h.926V133.4h-.926Z" transform="translate(-857.967 -126.269)" fill="#fff"/>
      <path id="Path_39" data-name="Path 39" d="M960.3,137.42v-4.441h.915v.738a3.748,3.748,0,0,1,.732-.654,1.342,1.342,0,0,1,.732-.207,1.459,1.459,0,0,1,1.031.4,1.263,1.263,0,0,1,.428.958v3.208H963.2v-2.934a.816.816,0,0,0-.234-.6.8.8,0,0,0-.595-.237,1.031,1.031,0,0,0-.808.4,1.417,1.417,0,0,0-.339.955v2.417H960.3Z" transform="translate(-862.701 -130.287)" fill="#fff"/>
      <path id="Path_40" data-name="Path 40" d="M977.095,133.507l-.625.549a3.291,3.291,0,0,0-.42-.261.931.931,0,0,0-.42-.089q-.57,0-.57.42,0,.3.724.585a2.87,2.87,0,0,1,1.042.623,1.152,1.152,0,0,1,.318.817,1.282,1.282,0,0,1-.458.976,1.547,1.547,0,0,1-1.077.417,1.813,1.813,0,0,1-1.545-.872l.737-.355a1.159,1.159,0,0,0,.808.377.838.838,0,0,0,.508-.159.453.453,0,0,0,.219-.369q0-.371-.765-.668a3.041,3.041,0,0,1-1.058-.6,1.038,1.038,0,0,1-.293-.751,1.179,1.179,0,0,1,.417-.923,1.523,1.523,0,0,1,1.047-.369A2.308,2.308,0,0,1,977.095,133.507Z" transform="translate(-871.813 -130.288)" fill="#fff"/>
      <path id="Path_41" data-name="Path 41" d="M985.356,125.687h.936v3.273a3.171,3.171,0,0,1,.724-.649,1.57,1.57,0,0,1,.821-.2,1.3,1.3,0,0,1,.977.433,1.451,1.451,0,0,1,.412,1.036v3.1h-.937v-2.831a1.01,1.01,0,0,0-.213-.673.7.7,0,0,0-.562-.253,1.141,1.141,0,0,0-.864.382,1.306,1.306,0,0,0-.358.926v2.45h-.937v-6.988Z" transform="translate(-879.289 -125.542)" fill="#fff"/>
      <path id="Path_42" data-name="Path 42" d="M1003.843,132.979h.936v4.441h-.936v-.883a2.006,2.006,0,0,1-1.7,1.007,1.948,1.948,0,0,1-1.5-.689,2.41,2.41,0,0,1-.622-1.674,2.358,2.358,0,0,1,.627-1.628,1.922,1.922,0,0,1,1.472-.7,1.878,1.878,0,0,1,.99.285,2.027,2.027,0,0,1,.727.743v-.9Zm.128,2.234a1.415,1.415,0,0,0-.437-1.042,1.47,1.47,0,0,0-2.082,0,1.369,1.369,0,0,0-.442,1.012,1.475,1.475,0,0,0,.431,1.071,1.408,1.408,0,0,0,1.046.441,1.495,1.495,0,0,0,1.483-1.48Z" transform="translate(-889.001 -130.287)" fill="#fff"/>
      <path id="Path_43" data-name="Path 43" d="M1017.74,137.42v-4.441h.915v.738a3.748,3.748,0,0,1,.732-.654,1.342,1.342,0,0,1,.732-.207,1.46,1.46,0,0,1,1.031.4,1.263,1.263,0,0,1,.428.958v3.208h-.937v-2.934a.815.815,0,0,0-.234-.6.8.8,0,0,0-.595-.237,1.032,1.032,0,0,0-.808.4,1.418,1.418,0,0,0-.339.955v2.417h-.926Z" transform="translate(-900.728 -130.287)" fill="#fff"/>
      <path id="Path_44" data-name="Path 44" d="M671.52,164.4l5.071,5.213v-4.938h.936v7.176l-5.071-5.19v4.872h-.936Z" transform="translate(-671.52 -151.172)" fill="#fff"/>
      <path id="Path_45" data-name="Path 45" d="M696.759,172.124h.936v4.441h-.936v-.883a2.006,2.006,0,0,1-1.7,1.007,1.948,1.948,0,0,1-1.5-.689,2.409,2.409,0,0,1-.622-1.674,2.358,2.358,0,0,1,.627-1.628,1.923,1.923,0,0,1,1.472-.7,1.877,1.877,0,0,1,.991.285,2.03,2.03,0,0,1,.727.743v-.9Zm.129,2.234a1.415,1.415,0,0,0-.437-1.042,1.47,1.47,0,0,0-2.082,0,1.369,1.369,0,0,0-.442,1.012,1.475,1.475,0,0,0,.431,1.071,1.408,1.408,0,0,0,1.046.441,1.495,1.495,0,0,0,1.483-1.48Z" transform="translate(-685.702 -156.202)" fill="#fff"/>
      <path id="Path_46" data-name="Path 46" d="M710.612,168.543h.937v1.292h.926v.856h-.926v3.585h-.937v-3.585h-.737v-.867h.737Z" transform="translate(-696.912 -153.914)" fill="#fff"/>
      <path id="Path_47" data-name="Path 47" d="M719.5,166.648a.683.683,0,0,1,.216-.5.7.7,0,0,1,.511-.213.716.716,0,0,1,0,1.432.706.706,0,0,1-.511-.21A.68.68,0,0,1,719.5,166.648Zm.264,1.459h.926v4.441h-.926Z" transform="translate(-703.281 -152.185)" fill="#fff"/>
      <path id="Path_48" data-name="Path 48" d="M726.425,174.325a2.213,2.213,0,0,1,.718-1.618,2.286,2.286,0,0,1,1.65-.708,2.324,2.324,0,0,1,1.674.7,2.2,2.2,0,0,1,.716,1.628,2.281,2.281,0,0,1-.7,1.65,2.213,2.213,0,0,1-1.623.713,2.368,2.368,0,0,1-1.709-.705A2.24,2.24,0,0,1,726.425,174.325Zm3.854,0a1.329,1.329,0,0,0-.431-.984,1.419,1.419,0,0,0-1.023-.418,1.455,1.455,0,0,0-1.047.423,1.356,1.356,0,0,0-.439,1.011,1.313,1.313,0,0,0,.444.981,1.465,1.465,0,0,0,1.042.421,1.4,1.4,0,0,0,1.018-.431A1.368,1.368,0,0,0,730.279,174.328Z" transform="translate(-707.869 -156.202)" fill="#fff"/>
      <path id="Path_49" data-name="Path 49" d="M742.958,176.565v-4.441h.915v.738a3.75,3.75,0,0,1,.732-.654,1.343,1.343,0,0,1,.732-.207,1.46,1.46,0,0,1,1.031.4,1.264,1.264,0,0,1,.428.958v3.208h-.937v-2.934a.816.816,0,0,0-.234-.6.8.8,0,0,0-.595-.237,1.032,1.032,0,0,0-.808.4,1.419,1.419,0,0,0-.339.955v2.417Z" transform="translate(-718.814 -156.202)" fill="#fff"/>
      <path id="Path_50" data-name="Path 50" d="M761.349,172.124h.936v4.441h-.936v-.883a2.005,2.005,0,0,1-1.7,1.007,1.948,1.948,0,0,1-1.5-.689,2.41,2.41,0,0,1-.622-1.674,2.358,2.358,0,0,1,.627-1.628,1.923,1.923,0,0,1,1.472-.7,1.877,1.877,0,0,1,.991.285,2.031,2.031,0,0,1,.727.743v-.9Zm.129,2.234a1.416,1.416,0,0,0-.437-1.042,1.47,1.47,0,0,0-2.082,0,1.369,1.369,0,0,0-.442,1.012,1.475,1.475,0,0,0,.431,1.071,1.408,1.408,0,0,0,1.046.441,1.495,1.495,0,0,0,1.483-1.48Z" transform="translate(-728.463 -156.202)" fill="#fff"/>
      <path id="Path_51" data-name="Path 51" d="M776.137,164.833h.937v6.988h-.937Z" transform="translate(-740.78 -151.458)" fill="#fff"/>
      <path id="Path_52" data-name="Path 52" d="M795.765,165.558l-.759.608a3.038,3.038,0,0,0-.545-.466,1.335,1.335,0,0,0-.706-.153,1.364,1.364,0,0,0-.819.228.7.7,0,0,0-.314.588.714.714,0,0,0,.275.55,3.756,3.756,0,0,0,.935.523,6.707,6.707,0,0,1,1.029.529,2.625,2.625,0,0,1,.6.541,2.132,2.132,0,0,1,.352.624,2.065,2.065,0,0,1,.116.694,1.954,1.954,0,0,1-.622,1.458,2.084,2.084,0,0,1-1.5.6,2.55,2.55,0,0,1-1.521-.471A2.954,2.954,0,0,1,791.27,170l.937-.264a1.664,1.664,0,0,0,1.567,1.157,1.221,1.221,0,0,0,.851-.306,1,1,0,0,0,.339-.773,1.046,1.046,0,0,0-.178-.561,1.585,1.585,0,0,0-.442-.464,4.735,4.735,0,0,0-.84-.419,5.929,5.929,0,0,1-.886-.433,2.278,2.278,0,0,1-.538-.468,1.986,1.986,0,0,1-.332-.541,1.565,1.565,0,0,1-.105-.576,1.611,1.611,0,0,1,.592-1.256,2.1,2.1,0,0,1,1.437-.519,2.914,2.914,0,0,1,1.136.242A2.333,2.333,0,0,1,795.765,165.558Z" transform="translate(-750.798 -151.289)" fill="#fff"/>
      <path id="Path_53" data-name="Path 53" d="M810.842,175.208v1.071a2.8,2.8,0,0,1-1.389.409,2.365,2.365,0,0,1-2.3-2.293,2.31,2.31,0,0,1,.689-1.715,2.358,2.358,0,0,1,1.728-.681,2.881,2.881,0,0,1,1.275.323v1.044a2.494,2.494,0,0,0-1.335-.452,1.441,1.441,0,0,0-1.017.409,1.275,1.275,0,0,0-.436.958,1.44,1.44,0,0,0,.409,1.042,1.341,1.341,0,0,0,1,.422A2.51,2.51,0,0,0,810.842,175.208Z" transform="translate(-761.31 -156.202)" fill="#fff"/>
      <path id="Path_54" data-name="Path 54" d="M824.8,174.526h-3.79a1.492,1.492,0,0,0,.563,1,1.6,1.6,0,0,0,.955.315,1.657,1.657,0,0,0,1.335-.662l.683.517a2.472,2.472,0,0,1-2.062,1,2.232,2.232,0,0,1-1.658-.678,2.307,2.307,0,0,1-.668-1.685,2.26,2.26,0,0,1,.676-1.634,2.291,2.291,0,0,1,3.292.011A2.466,2.466,0,0,1,824.8,174.526Zm-3.693-.749h2.713a1.434,1.434,0,0,0-1.335-.915A1.417,1.417,0,0,0,821.11,173.778Z" transform="translate(-769.925 -156.204)" fill="#fff"/>
      <path id="Path_55" data-name="Path 55" d="M836.569,176.565v-4.441h.915v.738a3.743,3.743,0,0,1,.732-.654,1.342,1.342,0,0,1,.732-.207,1.461,1.461,0,0,1,1.031.4,1.264,1.264,0,0,1,.428.958v3.208h-.936v-2.934a.815.815,0,0,0-.234-.6.8.8,0,0,0-.595-.237,1.032,1.032,0,0,0-.808.4,1.418,1.418,0,0,0-.339.955v2.417Z" transform="translate(-780.787 -156.202)" fill="#fff"/>
      <path id="Path_56" data-name="Path 56" d="M850.857,166.648a.682.682,0,0,1,.216-.5.7.7,0,0,1,.511-.213.716.716,0,0,1,0,1.432.706.706,0,0,1-.511-.21A.68.68,0,0,1,850.857,166.648Zm.264,1.459h.926v4.441h-.926Z" transform="translate(-790.246 -152.185)" fill="#fff"/>
      <path id="Path_57" data-name="Path 57" d="M861.144,175.208v1.071a2.8,2.8,0,0,1-1.389.409,2.365,2.365,0,0,1-2.3-2.293,2.31,2.31,0,0,1,.689-1.715,2.358,2.358,0,0,1,1.728-.681,2.882,2.882,0,0,1,1.276.323v1.044a2.494,2.494,0,0,0-1.335-.452,1.442,1.442,0,0,0-1.017.409,1.275,1.275,0,0,0-.436.958,1.44,1.44,0,0,0,.409,1.042,1.341,1.341,0,0,0,1,.422A2.511,2.511,0,0,0,861.144,175.208Z" transform="translate(-794.612 -156.202)" fill="#fff"/>
      <path id="Path_58" data-name="Path 58" d="M881.625,164.434l3.238,7.122h-.982l-.8-1.755h-2.91l-.787,1.755h-.974Zm0,2.141-1.1,2.446h2.206Z" transform="translate(-808.49 -151.193)" fill="#fff"/>
      <path id="Path_59" data-name="Path 59" d="M901.07,172.123v.915a2.852,2.852,0,0,1,.611-.794,1.187,1.187,0,0,1,.778-.245,1.707,1.707,0,0,1,.388.065l-.285.937a2.35,2.35,0,0,0-.355-.054,1.061,1.061,0,0,0-.794.331,1.141,1.141,0,0,0-.32.826v2.46h-.937v-4.441h.915Z" transform="translate(-822.883 -156.202)" fill="#fff"/>
      <path id="Path_60" data-name="Path 60" d="M914.67,174.526h-3.79a1.493,1.493,0,0,0,.563,1,1.6,1.6,0,0,0,.955.315,1.656,1.656,0,0,0,1.335-.662l.683.517a2.473,2.473,0,0,1-2.062,1,2.232,2.232,0,0,1-1.658-.678,2.307,2.307,0,0,1-.668-1.685,2.26,2.26,0,0,1,.676-1.634A2.291,2.291,0,0,1,914,172.7,2.466,2.466,0,0,1,914.67,174.526Zm-3.693-.749h2.713a1.434,1.434,0,0,0-1.335-.915A1.417,1.417,0,0,0,910.977,173.778Z" transform="translate(-829.42 -156.204)" fill="#fff"/>
      <path id="Path_61" data-name="Path 61" d="M930.541,172.124h.936v4.441h-.936v-.883a2.005,2.005,0,0,1-1.7,1.007,1.948,1.948,0,0,1-1.5-.689,2.409,2.409,0,0,1-.622-1.674,2.358,2.358,0,0,1,.627-1.628,1.923,1.923,0,0,1,1.472-.7,1.877,1.877,0,0,1,.991.285,2.028,2.028,0,0,1,.727.743v-.9Zm.129,2.234a1.415,1.415,0,0,0-.437-1.042,1.47,1.47,0,0,0-2.082,0,1.369,1.369,0,0,0-.442,1.012,1.475,1.475,0,0,0,.431,1.071,1.409,1.409,0,0,0,1.046.441,1.495,1.495,0,0,0,1.483-1.48Z" transform="translate(-840.473 -156.202)" fill="#fff"/>
    </g>
  </g>
</svg>
