<svg xmlns="http://www.w3.org/2000/svg" viewBox="0 0 768.54 768.1"><defs><style>.cls-1{fill:#30bceb;opacity:0.2;isolation:isolate;}.cls-1,.cls-2,.cls-3{stroke:#30bceb;}.cls-1,.cls-2,.cls-3,.cls-5,.cls-6{stroke-miterlimit:10;}.cls-2,.cls-5{fill:none;}.cls-2,.cls-3{stroke-width:3px;}.cls-3{fill:#fff;}.cls-4,.cls-6{fill:#040000;}.cls-5{stroke:#040000;}.cls-6{stroke:#fff;}</style></defs><title>資產 1</title><g id="圖層_2" data-name="圖層 2"><g id="圖層_1-2" data-name="圖層 1"><g id="background"><rect class="cls-1" x="36.46" y="34.66" width="695.62" height="697.88"/></g><g id="wireframe"><rect class="cls-2" x="36.46" y="36.57" width="695.62" height="697.88"/><rect class="cls-3" x="1.5" y="1.5" width="69.92" height="70.15"/><rect class="cls-3" x="697.12" y="1.5" width="69.92" height="70.15"/><rect class="cls-3" x="1.5" y="696.45" width="69.92" height="70.15"/><rect class="cls-3" x="697.12" y="696.45" width="69.92" height="70.15"/></g><g id="圖層_7" data-name="圖層 7"><polygon class="cls-4" points="345.92 573.71 238.94 573.71 84.33 194.4 188.97 194.4 345.92 573.71"/><polygon class="cls-4" points="607.52 573.71 500.53 573.71 345.92 194.4 450.56 194.4 607.52 573.71"/><path class="cls-5" d="M344.92,195.29h71V572.81h-28a93.09,93.09,0,0,0-15.12,0h-28V245.44c.14-3.31.14-6.89,0-10.89V195.29Z"/><line class="cls-5" x1="344.92" y1="509.89" x2="415.97" y2="509.89"/><line class="cls-5" x1="344.92" y1="446.97" x2="415.97" y2="446.97"/><path class="cls-5" d="M344.92,384.05H359a13.58,13.58,0,0,1,3.18.26c4.32,5.31,11.47,12.46,16.84,6.21,9.83-10.73,21.45-20.56,33.15-6.85a25.35,25.35,0,0,0,3.79.38"/><line class="cls-5" x1="344.92" y1="321.13" x2="415.97" y2="321.13"/><path class="cls-5" d="M344.92,258.21h8.4c.86,0,1.8,0,2.87.09,12.12,1.7,24.63,1.7,37.15-1.87,4.47-.9,8,1.79,11.54,1.78H416"/><path class="cls-5" d="M404.13,195.29V343.88c.82,4.62-4.54,8.2-2.76,11.77,8.05,21.46.9,42.91,2.81,64.48-.05,1.45-.05,2.77-.05,4.09V572.81"/><path class="cls-5" d="M392.32,195.29V339.92a15.38,15.38,0,0,1-.43,4c-3,7.3-8.36,14.45-7.47,21.61,0,2.68,8.05,2.68,9.83,6.25,5.37,11.62-2.68,22.35-2.68,31.29,0,12.52,3.58,26.82.75,40.77v77a6,6,0,0,1-.64,2.79c-1.8,2.27-2.69,5-6.27,5.84,8.94,10.73,12.52,25,7.44,38.45a12.74,12.74,0,0,0-.53,3.73v1.14"/><path class="cls-5" d="M380.45,195.29V216.2a21.63,21.63,0,0,1-.27,4.1c-5.62,2.16-10.09,6.63-8.31,12.89,2.69,8,11.63,8.94,16.1,14.3,4.47,6.26-1.79,12.51-7.11,16.18a8.43,8.43,0,0,0-.41,3.19v76a27.55,27.55,0,0,1-.17,3.7c-1.25,8.21-3,16.25-6.62,23.41-.89,4.47-.89,8.93,2.68,10.72,5.37,2.68,10.73,1.79,9.84,8.94-1.79,8.05-12.52,15.2-9.84,17.88,9.84,12.52,11.63,25.92,4.43,39.67a21.71,21.71,0,0,0-.32,3.51v65.07a30,30,0,0,1-.12,3.28c-3.89,6-20,8.68-11,15.83,4.47,3.57,12.52,1.78,17,8,6.25,10.73-.9,19.67-5.6,29.91"/><path class="cls-5" d="M368.61,195.29V212.4a7.53,7.53,0,0,1-.72,3.77c-4.95,4.5-10.32,12.55-6.74,19.7,4.47,7.15,14.3,9.83,19.66,16.09,6.26,6.26-9.83,5.36-12.2,11.67V364.47c0,1.21,0,2.42-.05,3.69-1.15,16.1-.26,31.3-2.05,47.39-.89,5.36,5.36,8,6.26,13.4.89,6.26-3.58,11.63-4.07,18.32-.09,1.11-.09,2.26-.09,3.41V519c-3.79,5.1-9.15,9.57-9.15,16.72.86,9.81,13.41,6.26,17.86,13.41,5.36,8.94-7.15,12.51-8.24,19.64a6.85,6.85,0,0,0-.49,2.9v1.11"/><path class="cls-5" d="M356.77,195.29V216.2c-7.24,14.3-1,25.93,7.06,38.44.89,1.79-6.26,1.79-7.05,5.83V518.56a18.29,18.29,0,0,1-.6,5.51c-6.54,11.68,3.29,21.51,4.18,32.24,0,1.79-3.57,3.58-3.58,5.83v10.67"/><rect class="cls-6" x="535.99" y="194.84" width="71.52" height="378.42"/></g></g></g></svg>