<svg xmlns="http://www.w3.org/2000/svg" width="282.802" height="177.993" viewBox="0 0 282.802 177.993">
  <g id="p2-5-map" transform="translate(-9684.785 334.463)">
    <g id="Group_4197" data-name="Group 4197" transform="translate(9485.529 685.037)">
      <path id="Path_92" data-name="Path 92" d="M416.633-962c-1.651,2.592,6.052,5.6,7.871,4.644-.743.389,2.714,4.581,3.007,4.927.482.571,1.7,1.607,1.858,2.345.172.8-.8,1.692-1.194,2.349-.423.711-.794,1.6-1.235,2.344a6.945,6.945,0,0,1-4.486,3.306,2.938,2.938,0,0,0-2.227,2.042c-.387.872-1.151,1.721-1.541,2.491-.582,1.15-.6,1.886-1.72,2.757a13.671,13.671,0,0,1-3.081,1.494c-.538.238-1.059.637-1.626.829a10.31,10.31,0,0,0-1.955.456,21.289,21.289,0,0,0-2.311,2.084,6.091,6.091,0,0,1-2.521,1.58,10.209,10.209,0,0,1-5.758-.608c-1.294-.606-2.481-1.259-3.711-1.968a9.36,9.36,0,0,0-3.986-1.063c-.572,0-.855.434-1.727.3-.743-.115-1.2-.607-2.024-.494a3.815,3.815,0,0,0-1.764-.994c-.28-.109-.727.151-.986-.011-.467-.292-.3-.982-.649-1.3-1.12-1.03-3.239-.1-4.486-.875-1.636-1.017,1.662-2.067,2.495-2.8.743-.654.19-.81,1.41-1.015a16.366,16.366,0,0,1,2.936.145c3.14.133,6.721-.6,8.562-3.385a23.562,23.562,0,0,0,1.463-2.2c.312-.642.1-1.642.456-2.336.384-.747.757-.827,1.025-1.658.262-.812.038-1.548.551-2.352a7.491,7.491,0,0,1,3.488-2.859c1.6-.681,2.891-1.857,4.5-2.576,1.56-.7,3.087-1.534,4.553-2.214,1.41-.654,3.286-1.407,4.228-2.663Z" transform="translate(-127.728 -40.406)" fill="#7ac4e0" stroke="#fff" stroke-miterlimit="10" stroke-width="1" fill-rule="evenodd"/>
      <path id="Path_93" data-name="Path 93" d="M373.685-946.658c-1.636-1.017,1.662-2.067,2.495-2.8.743-.654.19-.81,1.41-1.015a16.365,16.365,0,0,1,2.936.145c3.14.133,6.721-.6,8.562-3.385a23.561,23.561,0,0,0,1.463-2.2c.312-.643.1-1.642.456-2.336.384-.747.757-.827,1.025-1.658.262-.812.038-1.548.551-2.352a7.491,7.491,0,0,1,3.488-2.859c1.6-.681,2.891-1.857,4.5-2.576,1.56-.7,3.087-1.534,4.553-2.214,1.41-.654,3.286-1.408,4.228-2.663l.441-.551a10.09,10.09,0,0,0-1.988-2.853c-.946-1.067-2.057-2.217-3.621-1.912a21.04,21.04,0,0,0-5.405,2.256,21.542,21.542,0,0,0-4.184,2.407,36.508,36.508,0,0,1-4.113,3.148,41.9,41.9,0,0,0-3.928,3.461c-1.4,1.178-2.307,2.6-3.837,3.637-1.691,1.146-2.516,2.7-3.7,4.308-1.006,1.371-2.591,2.141-3.714,3.348-1.178,1.266-2.444,2.478-3.621,3.655a3.625,3.625,0,0,0-1.2,2.078c.013.366.3.629.454.941.181.371.19.763.347,1.117.332.742.855.584,1.462.864.4.186.412.36.869.442a5.959,5.959,0,0,0,1.4-.016c.221-.017.446-.043.672-.076A3.732,3.732,0,0,1,373.685-946.658Z" transform="translate(-121.031 -29.112)" fill="#71b1c9" stroke="#fff" stroke-miterlimit="10" stroke-width="1"/>
      <path id="Path_94" data-name="Path 94" d="M576.157-987.686c.63-.5,1.7-1.06,1.093-1.967a7.267,7.267,0,0,0-1.753-1.439c-1.235-.654-2.9-.541-4.225-.872a2.266,2.266,0,0,1-1.834-1.35,7.559,7.559,0,0,0-1.147-2.02,10.017,10.017,0,0,0-4.706-2.611,2.544,2.544,0,0,1-2.244-2.253,40.663,40.663,0,0,1-4.791-.534c-.929-.16-1.071-.485-1.595-1.213a18.494,18.494,0,0,0-2.82-2.49c-1.47-1.263-2.666-.7-4.354-.358a7.378,7.378,0,0,0-2.944.881c-.771.56-.66,1.079-.581,1.961.089.981-.247,1.057-1.214,1.161-1.073.115-2.142.243-3.233.295a23.245,23.245,0,0,1-2.817-.291,7.245,7.245,0,0,0-2.547.217,4.846,4.846,0,0,1-2.325.365,14.278,14.278,0,0,1-2.107-.564,18.579,18.579,0,0,1-2.536-.758c-1.011-.493-.594-1.051-.375-1.9.281-1.089-.4-1.006-.8-1.8-.149-.3-.242-1.268-.639-1.323-.26-.036-.8.761-.98.961-.516.585-1.108,1.067-1.641,1.618-1.035,1.069.262,2.643.277,3.928.013,1.153-.5,1.089-1.294,1.8a3.859,3.859,0,0,0-.877,1.658,3.423,3.423,0,0,1-1.756,1.748,11.809,11.809,0,0,1-2.824.235h-2.833c-1.65,0-4.258.046-4.463-2.038-.047-.476-.061-1.895-.431-2.223-.692-.614-2.155.365-1.976,1.273.069.348.352.586.511.9a4.238,4.238,0,0,1,.293,1.3c.216,1.09.491,1.228-.49,1.881a5.032,5.032,0,0,1-1.9.9c.376,2.3,6.488,4.5,8.082,3.67-.217.113-.075.551.241,1.122.08.121.164.264.262.433.012.02.022.041.033.062a37.477,37.477,0,0,0,2.471,3.309c.481.571,1.7,1.607,1.858,2.345a.9.9,0,0,1,.018.139.556.556,0,0,0,.182.014,8.736,8.736,0,0,1,1.62-3.481c1.815-2.348,4.78-3.774,7.491-4.927a13.232,13.232,0,0,1,4.288-.743A33.1,33.1,0,0,0,536.6-991.7a16.042,16.042,0,0,0,2.513-.28c.716-.3,1.031-.724,1.747-.876,1.373-.293,3.008.368,4.392.435,3.546.173,5.972.391,9,2.067,2.68,1.485,5.483,1.58,8.587,1.573,1.552,0,3.043.158,4.051,1.484.81,1.066.895,2.456,1.884,3.614,2.042,2.391,4.8,1.341,7.568,2.069a4.461,4.461,0,0,0-.6-.837c-.553-.543-1.131-.28-1.326-1.235A4.373,4.373,0,0,1,576.157-987.686Z" transform="translate(-216.58 -8.826)" fill="#7ac4e0" stroke="#fff" stroke-miterlimit="10" stroke-width="1"/>
      <path id="Path_95" data-name="Path 95" d="M571.221-1004.952a7.4,7.4,0,0,0-2.008-1.17,7.424,7.424,0,0,0-1.994-.872c-1.488-.276-3.181.032-4.517-.649-1.357-.692-2.763-1.729-4.121-2.544-.706-.423-1.582-.751-2.245-1.184-.566-.37-1.012-.954-1.543-1.369-1.393-1.09-3.435-1.6-5.043-2.345-.784-.365-1.474-.892-2.221-1.267-.773-.388-1.59-.608-2.345-1.046a3.612,3.612,0,0,0-2.134-.73c-.759,0-1.53.038-2.288,0-1.665-.084-2.951-.875-4.661-.873-1.911,0-3.145.806-4.749,1.614-1.552.782-2.545,1.275-4.289.623a20.82,20.82,0,0,0-2.912-.564c-.8-.178-1.578-.217-2.414-.366a27.358,27.358,0,0,0-5.087-.651,19.326,19.326,0,0,0-5.191.926,22.992,22.992,0,0,0-5.123,1.714c-1.283.72-2.459,1.332-3.673,2.079-1.252.771-2.386,1.779-3.681,2.547-1.393.826-2.975,1.317-4.437,2.054a39.251,39.251,0,0,1-4.315,2.07,5.534,5.534,0,0,1,2.462,1.872,10.09,10.09,0,0,1,1.988,2.853l-.225.281c.142.2.188.352.289.483a5.268,5.268,0,0,0,1.768-.869c.981-.654.706-.8.49-1.888a4.324,4.324,0,0,0-.293-1.316,3.957,3.957,0,0,1-.511-.928c-.179-.908,1.284-1.941,1.976-1.327.37.328.384,1.856.431,2.332.205,2.084,2.813,2.038,4.463,2.038H505.9a11.812,11.812,0,0,0,2.824-.235,3.225,3.225,0,0,0,1.756-1.639,4.053,4.053,0,0,1,.877-1.713c.795-.712,1.307-.676,1.294-1.828-.014-1.285-1.311-2.872-.277-3.942.533-.551,1.125-1.039,1.641-1.625.177-.2.72-1,.98-.965.4.055.49,1.026.639,1.322.4.8,1.086.712.8,1.8-.219.847-.636,1.4.375,1.9a18.475,18.475,0,0,0,2.536.758,14.241,14.241,0,0,0,2.107.564,4.847,4.847,0,0,0,2.325-.365,7.245,7.245,0,0,1,2.547-.217,23.233,23.233,0,0,0,2.817.291c1.091-.052,2.16-.18,3.233-.295.967-.1,1.3-.179,1.214-1.161-.08-.882-.19-1.4.581-1.961a7.38,7.38,0,0,1,2.944-.881c1.688-.345,2.884-.905,4.354.358a18.494,18.494,0,0,1,2.82,2.49c.524.728.666,1.053,1.595,1.213a40.663,40.663,0,0,0,4.791.534,2.544,2.544,0,0,0,2.244,2.253,10.017,10.017,0,0,1,4.706,2.611,7.558,7.558,0,0,1,1.147,2.02,2.266,2.266,0,0,0,1.834,1.35c1.326.33,2.99.218,4.225.872a7.264,7.264,0,0,1,1.753,1.439.837.837,0,0,1-.042,1.081c.61-.2,1.429-1.428,1.968-1.936.631-.594,1.45-1.052,2-1.678C571.167-1001.747,571.894-1004.051,571.221-1004.952Z" transform="translate(-205.915)" fill="#71b1c9" stroke="#fff" stroke-miterlimit="10" stroke-width="1"/>
      <path id="Path_96" data-name="Path 96" d="M763.707-916.365c.008-1.539-.885-.68-1.8-.036-.411.29-2.052,1.58-2.5,1.487-.532-.111-1.294-1.566-1.724-1.957-1.28-1.167-3.52-1.343-4.4-2.929a9.953,9.953,0,0,1-.655-2.409,8,8,0,0,1-.57-2.4c.008-3.169,1.012-6.124.431-9.317-.169-.929-.109-2.063-.724-2.766a11.56,11.56,0,0,1-1.672-1.964c-.787-1.385-2.011-2.216-2.839-3.512a8.259,8.259,0,0,0-1.865-1.932,11.933,11.933,0,0,1-1.514-1.917,2.863,2.863,0,0,0-1-.965l-.1-.051c.083.663-.739,1.12-1.263,1.538a4.373,4.373,0,0,0-1.75,4c.2.956.773.692,1.326,1.235a4.453,4.453,0,0,1,.6.837l-.081-.02c.176.044.353.093.529.153a6.773,6.773,0,0,0,.026,1.018,1.176,1.176,0,0,1,.145.133c.8.883,1.208,2.844,1.641,4.043.5,1.389.967,2.8,1.449,4.221a8.874,8.874,0,0,1,.55,4.246,8.081,8.081,0,0,1-1.034,2.736c-.468.724-.835.779-1.412,1.336a26.465,26.465,0,0,0-2.688,3.351c-.728.995-.83,2.795-2.267,3.075a6.323,6.323,0,0,0,2.331,5.586c1.494,1.245,3.049,3.56,5.066,2.37,1.075-.634,1.116-1.306,2.473-1.278,1.055.022,1.431.571,2.145,1.2a6.653,6.653,0,0,0,5.246,1.86,5.017,5.017,0,0,0-2.358.8l.036,0c2.172-.176,5.333-.776,5.485-3.325.05-.838.392-1.015,1.163-1.312a14.86,14.86,0,0,1,1.827-.46c.961-.236.825-.41.868-1.359.076-1.657,1.425-2.151,1.945-3.575C763.773-914.488,763.7-915.672,763.707-916.365Z" transform="translate(-381.936 -51.017)" fill="#7ac4e0" stroke="#fff" stroke-miterlimit="10" stroke-width="1"/>
      <path id="Path_97" data-name="Path 97" d="M777.224-934.526c-.062-.712-.976-.982-1.473-1.526a8.1,8.1,0,0,1-1.276-1.805,26.359,26.359,0,0,1-2.039-4.7,17.886,17.886,0,0,0-.541-2.067,8.46,8.46,0,0,1-.725-2.219c-.412-2.805.049-6.047.3-8.859a4.026,4.026,0,0,0-.49-2.785c-.384-.5-1.064-.742-1.513-1.21-.287-.3-.5-.574-.8-.879-.835-.872-1.677-.422-2.751-.581s-1.539-.783-2.35-1.381c-.616-.454-1.235-.843-1.4-1.7-.171-.893.135-1.423-.558-2.165a11.158,11.158,0,0,0-2.9-2.527,4.989,4.989,0,0,1-.923,3.412c-.554.626-1.374,1.084-2,1.678-.376.355-.889,1.059-1.372,1.52a3.823,3.823,0,0,1,.712.78,11.953,11.953,0,0,0,1.518,1.917,8.27,8.27,0,0,1,1.867,1.932c.828,1.3,2.053,2.127,2.84,3.512a11.563,11.563,0,0,0,1.672,1.964c.616.7.556,1.837.725,2.766.58,3.193-.423,6.148-.431,9.317a8,8,0,0,0,.57,2.4,9.956,9.956,0,0,0,.655,2.409c.878,1.586,3.118,1.762,4.4,2.929.429.392,1.191,1.847,1.724,1.957.446.093,2.087-1.2,2.5-1.487.914-.644,1.808-1.5,1.8.036,0,.693.066,1.876,1.072,1.736-.01.026-.021.049-.031.074l.051-.008C775.942-931.566,777.352-933.056,777.224-934.526Z" transform="translate(-393.195 -35.494)" fill="#71b1c9" stroke="#fff" stroke-miterlimit="10" stroke-width="1"/>
      <path id="Path_98" data-name="Path 98" d="M799.723-810.7a5.176,5.176,0,0,0,.777,2.887c.579.966,1.141,2.035,1.765,3.034,1.213,1.939,3.281,2.988,5.224,3.98,1.98,1.011,5.039,1.874,6.525,3.687.952,1.162,1.9,2.517,3.055,3.688,1.344,1.362,2.273,3.109,3.636,4.434,1.16,1.127,2.272,2.345,3.373,3.464,1.336,1.358,2.331,3.136,3.69,4.4,3.127-2.29,5.358-5.68,8.189-8.364-.044-.018-.087-.036-.132-.05-2.186-.71-5.741,1.73-6-1.873-1.483-1.228-3.635-6.963-1.571-8.466.457-.333,1.448-.023,1.76-.31.3-.272-.084-.769.118-1,.357-.4.8-.57,1.3-1.019a10.652,10.652,0,0,0,2.186-3.77c-3.738.108-.142-3.426,1.035-4.381a21.224,21.224,0,0,0,2.329-2.2c.521-.567.661-.313.764-1.215.085-.748-.261-1.3.055-2.107a12.6,12.6,0,0,0-4.426,4.061c-.975,1.239-3.119,4.544-4.959,4.348.121-2.9-1.65-1.2-2.638-.084-.918,1.033-1.786,3.283-3.475,2.85-.009-.868-.51-1.554-.48-2.433-.7.166-1,.977-1.867.869a1.6,1.6,0,0,1,.414,1.272,5.427,5.427,0,0,1-4.347-1.288c-.767-.657-2.483-3.575-3.082-2.645-1.745.5-4.131-3.559-5.215-4.6a11.212,11.212,0,0,1-2.217-3c-.644-1.236-.836-2.083-1.536-2.4-.053.015-.111.03-.173.045a14.859,14.859,0,0,0-1.827.46c-.771.3-1.113.475-1.163,1.312-.1,1.745-1.618,2.576-3.259,2.984.323.291.65.543.828.705A3.349,3.349,0,0,1,799.723-810.7Z" transform="translate(-423.774 -141.825)" fill="#f9649d" stroke="#fff" stroke-miterlimit="10" stroke-width="1"/>
      <path id="Path_99" data-name="Path 99" d="M854.345-840.178a5.768,5.768,0,0,0-5.2,1.631c-1.776,1.565-2.949,2.811-5.456,2.811-1.171,0-2.342,0-3.513,0a5.725,5.725,0,0,1-2.863-.893c-1.99-1.015-3.857-2.823-5.93-3.592-1.187-.441-2.367-.5-3.362-1.343a10.477,10.477,0,0,1-1.7-2.314c-1.118-1.721-.244-4-1.258-5.645a4.107,4.107,0,0,0-1.629-1.163c.114,1.463-1.282,2.947-1.167,4.421l-.051.008c.01-.025.021-.048.031-.074-.52,1.425-1.869,1.919-1.945,3.575-.041.887.076,1.1-.7,1.313h0c.7.318.891,1.165,1.536,2.4a11.212,11.212,0,0,0,2.217,3c1.083,1.042,3.47,5.1,5.215,4.6.6-.93,2.315,1.988,3.082,2.645a5.427,5.427,0,0,0,4.347,1.288,1.6,1.6,0,0,0-.414-1.272c.864.107,1.171-.7,1.867-.869-.03.879.471,1.565.48,2.433,1.689.434,2.557-1.817,3.475-2.85.989-1.112,2.759-2.819,2.638.084,1.84.2,3.984-3.109,4.959-4.348a12.6,12.6,0,0,1,4.425-4.061c-.316.8.03,1.359-.055,2.107-.1.9-.242.648-.764,1.215a21.23,21.23,0,0,1-2.329,2.2c-1.177.955-4.773,4.489-1.035,4.381a10.653,10.653,0,0,1-2.186,3.77c-.5.449-.944.617-1.3,1.019-.2.227.178.724-.118,1-.312.287-1.3-.023-1.76.31-2.063,1.5.089,7.238,1.571,8.466a2.645,2.645,0,0,0,.419,1.389c.428.2.834.429,1.245.628,1.283.111,3.045-.563,4.332-.145l.007,0a10.816,10.816,0,0,1,1.052-2.817,7.917,7.917,0,0,0,.3-2.809c.008-2.228-1.589-3.9-.841-6.247.392-1.231,1.227-2.121,1.642-3.372.329-.993.744-1.923,1.124-2.882a20.263,20.263,0,0,0,1.86-5.752C856.777-837.848,856.531-839.859,854.345-840.178Z" transform="translate(-439.409 -119.315)" fill="#e0588f" stroke="#fff" stroke-miterlimit="10" stroke-width="1"/>
      <path id="Path_100" data-name="Path 100" d="M929.583-697.738a5.738,5.738,0,0,1,1.225,2.923c.051.548.038,1.106.038,1.661a8.655,8.655,0,0,0,0,2.052c.238.783,3.095.443,3.872.3,2.967-.565,6.141.423,9.055-.33a18.709,18.709,0,0,0,2.278-.788,8.464,8.464,0,0,1,3.2-.375,17.772,17.772,0,0,0,2.467-.147c.518-.072,1.313.031,1.688-.431a7.06,7.06,0,0,0,.618-2.04c.008-.024.014-.049.021-.073a1.45,1.45,0,0,0-.943.072,7.511,7.511,0,0,0-1.392.822c-.456.343-.859.7-.973-.048a6.442,6.442,0,0,1,0-.727c-.017-.479.067-.22-.246-.519-.376-.361-1.06-.451-1.449-.827-.468-.453-.237-.829-1.021-.837-.538-.005-1.252.174-1.6-.243-.22-.261-.162-.678-.581-.83a2.889,2.889,0,0,0-.84.005,17.927,17.927,0,0,1-2.256.388,4.612,4.612,0,0,1-3.164-1.337,1.057,1.057,0,0,1-1.116.754c-.286-.03-.556-.234-.816-.233-.3,0-.243.174-.451.327a2.209,2.209,0,0,1-1.684.452c-1.231-.119-1.506-1.068-1.132-2.16.08-.233.182-.41.253-.63.087-.271,0-.335.192-.57s.4-.209.439-.57a1.764,1.764,0,0,0-.256-.843c-.415-.983.016-1.979-.139-2.985-.739-.221-1.419.649-2.2.348a1.747,1.747,0,0,1-.309-.163A3.041,3.041,0,0,0,930.3-703.8a9.275,9.275,0,0,1-2.362,3.348,3.458,3.458,0,0,1-.437.318c.354.463.706.927,1.071,1.387C928.858-698.378,929.3-698.1,929.583-697.738Z" transform="translate(-515.888 -222.189)" fill="#7ac4e0" stroke="#fff" stroke-miterlimit="10" stroke-width="1"/>
      <path id="Path_101" data-name="Path 101" d="M968.494-701.4a4.744,4.744,0,0,0,.5-1.9c-1.051-.687-2.6-.573-3.7-1.088a14.449,14.449,0,0,0-3.952-.957,43.453,43.453,0,0,1-7.4-2.271,2.931,2.931,0,0,1-1.161-.531,4.531,4.531,0,0,1-.767-1.407,9.869,9.869,0,0,0-.876-1.626,2.66,2.66,0,0,1-.393-1.136,14.673,14.673,0,0,0-1.509,1.159,7.993,7.993,0,0,1-1.372.739,1.239,1.239,0,0,0-.585.49c.547-.114,1.063-.549,1.611-.385.156,1.006-.276,2,.139,2.985a1.765,1.765,0,0,1,.256.843c-.038.361-.249.338-.439.57s-.1.3-.192.57c-.07.219-.173.4-.253.63-.374,1.092-.1,2.041,1.132,2.16a2.209,2.209,0,0,0,1.684-.452c.208-.153.15-.325.451-.327.26,0,.53.2.816.233a1.057,1.057,0,0,0,1.116-.754,4.612,4.612,0,0,0,3.164,1.337,17.923,17.923,0,0,0,2.256-.388,2.889,2.889,0,0,1,.84-.005c.419.152.36.569.581.83.351.417,1.065.238,1.6.243.784.007.553.384,1.021.837.389.376,1.073.467,1.449.827.313.3.229.04.246.519a6.427,6.427,0,0,0,0,.727c.114.745.518.391.973.048a7.514,7.514,0,0,1,1.392-.822,1.465,1.465,0,0,1,.854-.088C967.871-700.225,968.34-701.053,968.494-701.4Z" transform="translate(-529.908 -217.401)" fill="#71b1c9" stroke="#fff" stroke-miterlimit="10" stroke-width="1"/>
      <path id="Path_102" data-name="Path 102" d="M1076.12-674.94c-.647-.02-1.253-.151-1.9-.182a4.148,4.148,0,0,1-1.831-.263,2.314,2.314,0,0,1-.853-.886c-.128-.207-.236-.452-.465-.528s-.38.079-.562.106c-.543.077-.559-.125-.794-.484-.248-.378-.736-.458-1.167-.593-.316-.1-1.316-.454-1.6-.169-.375.376.471.761.547.945-.3.045-.948-.356-1.058-.1s.406.571.441.809c.075.493-.418.56-.837.583-.531.029-.612-.218-1.016-.4-.013-.006-.031-.01-.045-.015a.777.777,0,0,0,.251.422,3.872,3.872,0,0,0,.81.606,3.883,3.883,0,0,0,1.529-.028c.309-.053.884-.3,1.19-.18.74.283.37,1.795,1.063,2.072.311.125.79-.007,1.066.106.109.045.107.133.282.14a1.315,1.315,0,0,0,.285-.1,1.615,1.615,0,0,0,.4-.426,2.6,2.6,0,0,1,2.119-1.211c.4,0,.8.005,1.2.038a5.371,5.371,0,0,1,.644.128,1.292,1.292,0,0,0,.2.021c.035-.177.059-.329.06-.369Z" transform="translate(-613.346 -241.696)" fill="#fff" stroke="#7ac4e0" stroke-miterlimit="10" stroke-width="1"/>
      <path id="Path_103" data-name="Path 103" d="M1070.579-670.178c-.4-.033-.8-.038-1.2-.038a2.6,2.6,0,0,0-2.119,1.211,1.615,1.615,0,0,1-.4.426,1.31,1.31,0,0,1-.285.1c-.176-.007-.174-.1-.282-.14-.276-.113-.755.019-1.066-.106-.693-.277-.324-1.789-1.063-2.072-.307-.118-.882.127-1.19.18a3.883,3.883,0,0,1-1.529.028,3.873,3.873,0,0,1-.81-.606.777.777,0,0,1-.251-.422,1.482,1.482,0,0,0-1.3.159c-.16.187-.19.435-.331.629-.11.151-.274.194-.253.42.038.391.219.083.436.189s.18.167.182.445a3.144,3.144,0,0,1,0,.544c-.053.289-.265.516-.215.825.281.065.3-.237.43-.4a1.155,1.155,0,0,1,.537-.33,2.051,2.051,0,0,0,.808-.833,4.887,4.887,0,0,1,.15-.574,1.032,1.032,0,0,1-.15.574,3.536,3.536,0,0,0-.07.589,6.9,6.9,0,0,1,.037,1.163,5.507,5.507,0,0,0-.255.99,1.329,1.329,0,0,0,.336.863c.25.385.637.586.9.938.13.174.273,1.056.62.861a3.477,3.477,0,0,0,.327-.962c.056-.3-.1-.753.043-1.017.194-.35.731-.206,1.049-.19a9.791,9.791,0,0,0,1.428-.1,5.2,5.2,0,0,0,1.268-.034c.151-.077.27-.294.459-.4a3.642,3.642,0,0,0,.63-.373,4.585,4.585,0,0,1,1.318-.819c.4-.146.8-.172,1.183-.346.212-.1.4-.21.618-.3.131-.056.569-.136.666-.249a2.621,2.621,0,0,0,.194-.68,1.292,1.292,0,0,1-.2-.021A5.383,5.383,0,0,0,1070.579-670.178Z" transform="translate(-608.75 -246.202)" fill="#71b1c9" stroke="#fff" stroke-miterlimit="10" stroke-width="1"/>
      <path id="Path_104" data-name="Path 104" d="M1077.646-681.461c-.454-.135-.921-.117-1.383-.211a7.412,7.412,0,0,1-1.126-.4c-.5-.181-1.056-.183-1.567-.317a2.988,2.988,0,0,1-1.131-.738c-.336-.278-.727-.429-1.08-.689a4.092,4.092,0,0,0-1.069-.666,7.618,7.618,0,0,0-2.607-.5,5.016,5.016,0,0,0-1.213,0c-.434.127-.589.521-.831.82-.319.393-.628.459-.7,1a6.4,6.4,0,0,0-.029,1.567,1.907,1.907,0,0,0,.2.626,1.208,1.208,0,0,0,.86.318c.419-.023.912-.09.837-.583-.036-.238-.553-.55-.441-.809s.763.148,1.058.1c-.076-.184-.922-.569-.546-.945.285-.285,1.285.07,1.6.169.43.134.919.214,1.167.593.235.359.251.561.794.484.182-.026.339-.179.563-.106s.338.32.465.527a2.313,2.313,0,0,0,.853.886,4.148,4.148,0,0,0,1.831.263c.647.031,1.253.162,1.9.182l-.036.036c0,.035-.02.156-.048.3l.157.1c.636,0,1.255.057,1.887.033C1078.261-680.119,1078.633-681.167,1077.646-681.461Z" transform="translate(-613.271 -236.748)" fill="#71b1c9" stroke="#fff" stroke-miterlimit="10" stroke-width="1"/>
      <path id="Path_105" data-name="Path 105" d="M310.723-634.141c-.154-1.424-.5-3.192-1.814-3.928-.786-.441-1.546-.29-2.307-.6-.93-.374-.685-1.054-.262-1.649,2.855-4.015-1.439-7.872-1.439-7.872-.318-.423-.272-1.115-.431-1.589-.179-.53-.394-1.192-.588-1.681a10.1,10.1,0,0,0-2.167-3.443c-.835-.776-1.994-1.251-2.8-2.11a5.406,5.406,0,0,1-1.81-3.61,27.479,27.479,0,0,0-4.347-.665,4.062,4.062,0,0,0-1.921-.14c-.554.23-1.142,1.093-1.655,1.466a5.583,5.583,0,0,1-1.966,1c-.747.192-1.6-.012-2.33.231-.763.253-1.132.918-1.784,1.37-.746.517-1.634.935-2.382,1.359a5.461,5.461,0,0,0-2.913,3.238c-.484,1.561-1.268,2.925-1.874,4.419-1.213,2.992,1.169,5.838,2.31,8.4a8.486,8.486,0,0,0,3.421,3.461,5.338,5.338,0,0,0,.868.462,7.4,7.4,0,0,0,2-.863.87.87,0,0,1,.372-.164c.047-.77.09-1.56.163-2.352.061-.671.024-2.3.684-2.627a7.6,7.6,0,0,1,1.9-.281,10.466,10.466,0,0,1,1.317,0c1.171,0,1.574-.286,1.923-1.293.853.592.762,1.553,1.98,1.834a2.211,2.211,0,0,0,2.194-.468c.828-.76.958-.721,1.546.384.459.865.785.939,1.512,1.605.549.5.75,1.262,1.582,1.515.332.1.707-.044,1.034.09.472.195.4.448.7.77,1.16,1.231,3,.323,4.1,1.374a2.394,2.394,0,0,0,2.084.916,8.428,8.428,0,0,1,1.143-.155c.585.111.458.3.686.833.312.737,1.029,1.09,1.3,1.78.186.472.074.88.531,1.257.053.043.114.089.178.133,0-.03,0-.061-.008-.092C311.356-632.657,310.815-633.284,310.723-634.141Z" transform="translate(-53.767 -253.42)" fill="#71b1c9" stroke="#fff" stroke-miterlimit="10" stroke-width="1"/>
      <path id="Path_106" data-name="Path 106" d="M327.634-589.481c-.272-.691-.989-1.043-1.3-1.781-.227-.536-.1-.722-.686-.833a8.427,8.427,0,0,0-1.143.155,2.394,2.394,0,0,1-2.084-.916c-1.091-1.052-2.936-.144-4.1-1.374-.3-.322-.23-.576-.7-.77-.326-.134-.7.011-1.034-.09-.832-.253-1.033-1.012-1.582-1.515-.727-.666-1.052-.74-1.512-1.605-.587-1.106-.717-1.144-1.546-.384a2.211,2.211,0,0,1-2.194.468c-1.218-.281-1.127-1.243-1.98-1.834-.349,1.007-.753,1.295-1.923,1.293a10.454,10.454,0,0,0-1.317,0,7.6,7.6,0,0,0-1.9.281c-.66.33-.622,1.956-.684,2.627-.073.793-.116,1.582-.163,2.352a.87.87,0,0,0-.372.164,7.4,7.4,0,0,1-2,.863c1.109.483,2.427.735,3.51,1.232,3.088,1.415,3.854,4.989,6.336,7.187a17.084,17.084,0,0,0,8.1,3.425,18.629,18.629,0,0,0,5,.343c1.763-.168,2.471-1.182,3.548-2.458a11.369,11.369,0,0,0,2.218-3.431,4.747,4.747,0,0,0,.21-2.008c-.065-.045-.126-.09-.178-.133C327.708-588.6,327.82-589.009,327.634-589.481Z" transform="translate(-70.653 -297.05)" fill="#71b1c9" stroke="#fff" stroke-miterlimit="10" stroke-width="1"/>
      <path id="Path_107" data-name="Path 107" d="M416.633-962c-1.651,2.592,6.052,5.6,7.871,4.644.263,2.374,3.258,4.9,4.672,7.037.573.865,1.639,3,2.709,1.976,1.02-.976-.412-3.015,1.2-3.769.623-.292,2.089.015,2.765.01a11.209,11.209,0,0,0,2.73-.469,6.357,6.357,0,0,1,4.278.575c1.6.808,1.929,1.829,2.017,3.534.094,1.835-.77,2.408-1.455,3.784-.212.426-.344,1.181-.551,1.674a5.079,5.079,0,0,0-.614,2.111c-.06,1.08.673,3.146.123,4.086-.431.737-1.038.063-1.287,1.448a6.317,6.317,0,0,0,0,2.216c.708,2.146,1.843-.887,2.322-1.758.689-1.254,2.277-1.96,2.194-.275-.016.322-.822,1.161-.418,1.862.165.287,1.245.613,1.583,1,1.776,2.034,1.094,5.725,1.743,8.126.336,1.244,1.98,2.264,1.914,3.646,1.427.665,2.2.5,2.743,2.1.118.349-.112.791.022,1.143.1.262.695.432.831.721.247.527.757,1.511.432,2.118-.343.641-1.436.359-1.98.641-.772.4-.79.966-1.336,1.608-1.2,1.416-2.319,1.52-4.043,1.325a18.8,18.8,0,0,1-.04,1.909c-.156.747-.551.984-.913,1.679-.578,1.107.159,2.841-.426,3.816-.657,1.1-2.328.286-3.281,1.149a13.891,13.891,0,0,0-2.216,3.069c-.5.919-.591,2.415-1.195,3.315-.758,1.131-2.366,1.322-3.351,2.067a6.024,6.024,0,0,1-3.592,1.322,9.808,9.808,0,0,0-4.072,1.33c-.311.693-.778,1.54-1.6,1.708-.647-2.3-1.385-2.464-3.555-3.006-1.175-.294-3.617-1.693-3.33-3.064a13.1,13.1,0,0,1-2.164-1.193c-.448-.357-.3-.572-.947-.876-.548-.257-1.052.045-1.641-.32-1.009-.627-.788-1.089-2.07-1.278a2.727,2.727,0,0,0-2.631.876c-.014-1.41-.842-.506-1.33-1-.539-.55-.64-1.181-1.239-1.727-.918-.837-3.046-.238-3.653-1.053-1.03-1.383,1.59-1.724,1.732-3.055.164-1.536-1.594-1.993-2.668-2.628,1.328-1,.847-2.564.932-4.195a6.454,6.454,0,0,0,3.336-.786,4,4,0,0,1,1.307-.554c.645-.167,1.1.057,1.9-.472,2.2-1.459-.231-3.69.153-5.911,1.209-.194.178,1.272,1.411,1.135-.106-.345.009-.933-.1-1.277,1.11.123,2.732.108,2.284-1.594a15.651,15.651,0,0,1-1.539-.757c-.507-.182-1.589-.06-1.967-.285-1.536-.913.509-1.747.3-2.761-.267-1.318-2.456-1.451-3.47-1.463a6.815,6.815,0,0,1-3.9-.894,4.114,4.114,0,0,0-1.779-.852,6.544,6.544,0,0,1-2.068-.437c-1.294-.606-2.483-1.259-3.713-1.969a9.36,9.36,0,0,0-3.986-1.063c-.572,0-.855.434-1.727.3-.743-.115-1.2-.607-2.024-.494a3.815,3.815,0,0,0-1.764-.994c-.28-.109-.727.151-.986-.011-.467-.292-.3-.982-.649-1.3-1.12-1.03-3.239-.1-4.486-.875-1.636-1.017,1.662-2.067,2.495-2.8.743-.654.19-.81,1.41-1.015a16.366,16.366,0,0,1,2.936.145c3.14.133,6.721-.6,8.562-3.385a23.562,23.562,0,0,0,1.463-2.2c.312-.642.1-1.642.456-2.336.384-.747.757-.827,1.025-1.658.262-.812.038-1.548.551-2.352a7.491,7.491,0,0,1,3.488-2.859c1.6-.681,2.891-1.857,4.5-2.576,1.56-.7,3.087-1.534,4.553-2.214,1.41-.654,3.286-1.407,4.228-2.663Z" transform="translate(-127.728 -40.406)" fill="#fff" stroke="#7ac4e0" stroke-miterlimit="10" stroke-width="1" fill-rule="evenodd"/>
      <path id="Path_108" data-name="Path 108" d="M505.656-962l-.141.177c.006.018.014.038.019.056A1.573,1.573,0,0,1,505.656-962Z" transform="translate(-216.751 -40.406)" fill="#fff" stroke="#7ac4e0" stroke-miterlimit="10" stroke-width="1"/>
      <path id="Path_109" data-name="Path 109" d="M608.7-948.3c-2.917-.986-5.864.318-8.016-2.2-.989-1.158-1.074-2.548-1.884-3.614-1.008-1.325-2.5-1.487-4.051-1.484-3.1.007-5.907-.088-8.587-1.573-3.024-1.676-5.45-1.893-9-2.067-1.384-.068-3.019-.729-4.392-.435-.715.153-1.031.576-1.747.877a16.043,16.043,0,0,1-2.513.28,33.079,33.079,0,0,1-4.779,1.033,13.236,13.236,0,0,0-4.288.743c-2.711,1.153-5.676,2.579-7.491,4.927a8.752,8.752,0,0,0-1.66,3.656c.6.967,1.477,2.253,2.355,1.412,1.019-.976-.412-3.015,1.2-3.769.623-.292,2.089.015,2.765.01a11.211,11.211,0,0,0,2.73-.469,6.357,6.357,0,0,1,4.278.575c1.6.808,1.93,1.829,2.017,3.534.094,1.835-.77,2.408-1.455,3.784-.212.426-.344,1.181-.551,1.674a5.079,5.079,0,0,0-.614,2.111c-.06,1.08.673,3.146.123,4.086-.431.737-1.038.063-1.287,1.448a6.319,6.319,0,0,0,0,2.216c.708,2.146,1.843-.887,2.322-1.758.688-1.254,2.277-1.96,2.194-.275-.016.322-.822,1.161-.418,1.862.165.287,1.245.613,1.583,1,1.776,2.034,1.094,5.725,1.743,8.126.336,1.244,1.98,2.264,1.914,3.646,1.427.665,2.2.5,2.743,2.1.118.348-.112.791.022,1.143.1.262.695.432.831.72.243.517.736,1.473.448,2.082a3.453,3.453,0,0,1,.3.244l.146-.582c.827-1.228,1.478-2.958,2.908-3.679,1.363-.687,3.118-.345,4.54-.863a3.6,3.6,0,0,0,2.73-3.751c-.089-1.559-.224-2.406.763-3.672,1.726-2.214,3.94-4.056,5.8-6.226,1.073-1.25,2.281-1.243,3.368-2.192,1.231-1.075,1.337-2.239,1.892-3.642.924-2.335,2.772-3.085,5.037-3.485,1.957-.346,3.993.307,5.83-.025C610.337-943.358,608.554-945.536,608.7-948.3Z" transform="translate(-248.498 -41.998)" fill="#fff" stroke="#7ac4e0" stroke-miterlimit="10" stroke-width="1"/>
      <path id="Path_110" data-name="Path 110" d="M669.012-885.916c-.713-.626-1.09-1.175-2.145-1.2-1.357-.028-1.4.644-2.473,1.278-2.018,1.19-3.573-1.126-5.066-2.37A6.323,6.323,0,0,1,657-893.791c1.437-.28,1.539-2.08,2.267-3.075a26.471,26.471,0,0,1,2.688-3.351c.577-.557.944-.612,1.412-1.336a8.08,8.08,0,0,0,1.034-2.736,8.875,8.875,0,0,0-.55-4.246c-.481-1.422-.947-2.832-1.449-4.221-.433-1.2-.838-3.16-1.641-4.043a1.147,1.147,0,0,0-.147-.134c.217,2.3,1.386,4.253-.172,6.505-1.837.333-3.873-.321-5.83.025-2.265.4-4.113,1.151-5.037,3.486-.555,1.4-.661,2.567-1.892,3.642-1.086.949-2.295.942-3.368,2.192-1.863,2.169-4.076,4.012-5.8,6.226-.987,1.266-.852,2.113-.763,3.672a3.6,3.6,0,0,1-2.73,3.751c-1.422.518-3.177.176-4.54.863-1.431.721-2.081,2.451-2.908,3.679l-.146.582a3.454,3.454,0,0,0-.3-.244c-.006.012-.009.024-.016.036-.343.641-1.436.359-1.98.641-.772.4-.79.966-1.336,1.608-.1.119-.2.225-.3.326a2.981,2.981,0,0,1,1.75,1.923c.258.9-.3,2.053,1.143,2.027a10.883,10.883,0,0,1,.167,3.165c-.024.829-.493,2.007-.291,2.753.637,2.352,4.607-.022,5.409,2.448,1.2-.257,1.652-2.144,3.025-2.166.692-.011.89.517,1.459.587.45.055,1.352-.413,1.609-.3,1.081.473.124.683.312,1.315a12.959,12.959,0,0,0,.732,1.487c.5,1.115.4,2.642-1.182,3.018.2.7,1.122.775,1.007,1.608-.106.77-.988.715-1.579,1.189-.073,1.5.308,1.716.844,2.854a8.139,8.139,0,0,1,.422,3.65c-1.984.137-4.494,3.074-4.032,5.1,2.7.445,5.317,2.068,7.979,2.056a10.448,10.448,0,0,0,4.666-1.488,11.393,11.393,0,0,0,1.27-1.532,7.673,7.673,0,0,0,1.532-1.784c.814-1.529,1.284-3.037,2.406-4.166.555-.559.719-.527,1.079-1.332a13.469,13.469,0,0,1,.877-1.892,9.516,9.516,0,0,0,1.715-3.817c.272-1.409,1.4-3.052,1.273-4.52-.077-.861-.872-1.383-.688-2.3,2.136-.247,2.552-2.434,4.06-3.814.739-.677,1.923-.828,2.6-1.434.6-.534,1.195-1.586,1.89-2.238,1.374-1.289,2.363-3.217,4.072-4.044,1.232-.6,3.879-2.581,5.242-2.471A6.653,6.653,0,0,1,669.012-885.916Z" transform="translate(-300.381 -72.354)" fill="#fff" stroke="#7ac4e0" stroke-miterlimit="10" stroke-width="1"/>
      <path id="Path_111" data-name="Path 111" d="M761.5-775.533c-.827-.729-1.507-1.871-2.513-2.274-2.831,2.685-5.062,6.074-8.189,8.364-1.359-1.26-2.353-3.038-3.69-4.4-1.1-1.119-2.213-2.337-3.373-3.464-1.363-1.325-2.292-3.072-3.636-4.434-1.155-1.171-2.1-2.526-3.055-3.688-1.486-1.813-4.545-2.676-6.525-3.687-1.942-.992-4.011-2.041-5.224-3.98-.624-1-1.186-2.068-1.765-3.034a5.177,5.177,0,0,1-.777-2.887,3.349,3.349,0,0,0-1.339-2.722c-.178-.162-.5-.414-.828-.705a14.058,14.058,0,0,1-2.227.342l-.036,0c-1.09.59-2.2,1.343-2.884,1.672-1.709.826-2.7,2.755-4.072,4.044-.7.652-1.294,1.7-1.89,2.238-.676.606-1.859.757-2.6,1.434-1.508,1.38-1.925,3.567-4.06,3.814-.184.913.611,1.435.688,2.3.132,1.467-1,3.111-1.273,4.52a9.515,9.515,0,0,1-1.715,3.817,13.48,13.48,0,0,0-.877,1.892c-.36.8-.524.773-1.079,1.332-1.122,1.13-1.592,2.638-2.406,4.166a7.672,7.672,0,0,1-1.532,1.784,11.393,11.393,0,0,1-1.27,1.532,10.057,10.057,0,0,1-3.548,1.355c-.539,1.947,1.454,4.446.406,6.228-.947,1.609-2.192,2.166-.063,3.047.8.331,1.04-.091,1.611.754a13.518,13.518,0,0,1,.425,1.6,10.246,10.246,0,0,0,3.934,5.5,6.211,6.211,0,0,1,2.212,2.209c.7,1.175.31,2.353.722,3.627.674-.116,1.337.442,1.851.312.881-.224.945-.967,1.6-1.6.69-.668,1.962-1.061,2.648-1.863.377-.44.488-1.424.857-1.775.771-.733,3.1-.565,4.217-.732a12,12,0,0,0,2.077-.172c.772-.283,1.2-1.066,1.825-1.567a8.671,8.671,0,0,1,4.1-1.759c.831-.078,1.629.229,2.485.153a10.067,10.067,0,0,0,2.212-.731c1.483-.44,3.171.146,4.484-.682.688-.433.749-1.017,1.3-1.478.631-.524,1.413-.426,2-.763.811-.468,1.352-1.327,2.263-1.622a8.2,8.2,0,0,1,2.434-.111,7.021,7.021,0,0,0,4.293-1.124c.536-.352,1.12-1.247,1.643-1.507.692-.344,1.487.055,2.252.01,1.592-.093,2.456-1.218,3.749-2.034.725-.457,1.478-1.054,2.147-1.43.742-.417,1.472-.4,2.223-.782,1.692-.858,1.131-2.238,2.912-2.9,1.36-.5,3.2-.846,4.221-1.73a9.277,9.277,0,0,0,2.362-3.348c.655-1.228,1.6-1.415,2.871-1.783C763.274-774.872,762.384-774.755,761.5-775.533Z" transform="translate(-346.808 -153.517)" fill="#fff" stroke="#7ac4e0" stroke-miterlimit="10" stroke-width="1"/>
      <path id="Path_112" data-name="Path 112" d="M885.357-672.212c-.239-1.149-.123-1.694-1.339-1.793-.874-.071-2,.674-2.915.77a11.54,11.54,0,0,1-5.327-.574c-.128,1.578,1.74,2.13,1.582,3.769-.07.729-.1,1.571-1.164,1.143s-.331-1.312-1-1.757a3.165,3.165,0,0,0-.039-.674c-.218-.008-.467-.049-.684-.044a2.3,2.3,0,0,0-.044-.538c-.856-.066-.874.8-1.753.672-1.232-.18-.7-.99-1.023-1.984a3.574,3.574,0,0,0-3.064-2.706,7.274,7.274,0,0,1-2.73-.7c-.611-.394-.823-1.286-1.5-1.555a1.542,1.542,0,0,0-1.712.44c-.206.2-.545.445-.626.739-.048.174.012.829.3.824-.666.012-1.38-.291-1.989.048-.47.261-1.019,1.222-1.546,1.612a11,11,0,0,1-2.089,1.3c-.754.319-1.763.139-2.261.973a1.94,1.94,0,0,1,1.376.447,1.2,1.2,0,0,1-1.141.611,1.464,1.464,0,0,0,1.534.426c.389,1.487-1.611.872-2.444,1.285a33.08,33.08,0,0,0-4.2,2.946,15.287,15.287,0,0,0-3.308,3.182,20.593,20.593,0,0,1-1.617,2.638.765.765,0,0,1-1.268-.833,20,20,0,0,0,.677-1.951,5.545,5.545,0,0,1,.809-1.7c.074-.118.436-.669.4-.792-.083-.278-.458-.057-.621-.157-.206-.126-.178-.211-.266-.427-.215-.528-.363-1.066-.614-1.591-.147-.309-.528-.5-.6-.838-.1-.474.325-1.022.8-.816.933.4.692,1.979,1.877,2.242,1.123.249,1.626-.377,2.424-.911a7.977,7.977,0,0,0,1.35-.789c.521-.51,2.42-2.466,1.267-3.135-.506-.294-1.166.051-1.658.18-.552.146-.67.115-.754-.45a3.725,3.725,0,0,1-.036-.992c.859-.229,3.178-.617,2.46-2.03-.82-1.613-2.623.551-3.476.847-.713.247-1.384.555-1.188-.811.131-.911.838-1,1.589-1.375,1.046-.52,3.115-.462,3.651-1.455a1.875,1.875,0,0,0-1.289-.342c-.171-.981.93-1.095,1.576-1.443-.319-.252-.691.012-1.006.147-.547.235-1.211.575-1.8.769a6.681,6.681,0,0,1-1.883.046,7.984,7.984,0,0,1-1.62-.144,6.478,6.478,0,0,1-1.982-.787c-.43-.325-.516-.849-.862-1.2a1.168,1.168,0,0,0-.534-.312c-.007.024-.013.049-.021.073a7.06,7.06,0,0,1-.618,2.04c-.376.462-1.17.358-1.688.431a17.773,17.773,0,0,1-2.467.147,8.463,8.463,0,0,0-3.2.375,18.716,18.716,0,0,1-2.278.788c-2.914.753-6.088-.235-9.055.33-.777.148-3.633.488-3.872-.3a8.652,8.652,0,0,1,0-2.052c0-.555.013-1.113-.038-1.661a5.739,5.739,0,0,0-1.225-2.923c-.286-.366-.725-.64-1.015-1.005-.365-.46-.717-.924-1.071-1.387a21.892,21.892,0,0,1-3.784,1.412c-1.781.661-1.22,2.04-2.912,2.9-.751.381-1.481.364-2.223.782-.669.376-1.422.973-2.147,1.43-1.293.816-2.157,1.94-3.749,2.034-.764.045-1.559-.354-2.251-.01-.522.26-1.106,1.155-1.643,1.507a7.021,7.021,0,0,1-4.293,1.124,8.2,8.2,0,0,0-2.434.111c-.911.295-1.452,1.154-2.263,1.622-.584.337-1.366.238-2,.763-.555.461-.616,1.044-1.3,1.478-1.313.828-3,.242-4.484.682a10.066,10.066,0,0,1-2.212.731c-.857.077-1.654-.231-2.485-.153a9.476,9.476,0,0,0-4.322,1.759,15.614,15.614,0,0,1-1.493,1.249v.056a6.975,6.975,0,0,0,4.839,6c3.133.937,5.785,1.267,6.692,4.776.166.641.164,1.387.329,2.026A17.521,17.521,0,0,0,782.4-652.4c.528,1.353.164,3,.764,4.349.495,1.115,1.647,2.168,2.086,3.341a4.638,4.638,0,0,1,.263,2.66c-.164.729-.893,1.106-.561,1.991a5.649,5.649,0,0,0,1.144,1.608c1.049,1.137,2.228,1.772,3.247,2.922a13.792,13.792,0,0,0,3.193,2.423c.737.456,1.766.666,2.481,1.116.6.382.846,1.158,1.406,1.58.776.586,2.926,1.973,3.792,2.037,1.87.139,2.48-2.752,4.225-2.96,2.546-.3.072,2.63-.113,3.281-.5,1.765.289,2.726,1.167,3.975.739,1.051,1.249,2.921,2.407,3.572.654.367,1.442,0,2.105.262.835.324,1.39.862,2.3,1.147.741.233,1.646.185,2.325.473.865.367,1.03,1.008,1.779,1.393.669.344,1.633-.246,2.3-.114.6.118.934.561,1.591.73,1.748.449,3.115-.978,4.8-.556,1.841.459,2.2,2.023,3.06,3.347a8.084,8.084,0,0,0,3.642,3.031c1.034.331,1.04-.128,1.755.757.471.584.483,1.265,1.153,1.828,1.412,1.187,2.192,1.392,3.782.927a4.334,4.334,0,0,1,3.9.269,4.557,4.557,0,0,0,3.962,0c1.243-.543,1.929-2.3,3.32-3.023a11.793,11.793,0,0,1,2.078-.469c.634-.2,1.421-.756,2.038-.724,1.523.08,1.343,1.831,3.114,1.487,1.348-.262,2.4-1.954,3.468-2.8.641-.506,1.287-.871,1.869-1.32.775-.6.507-.063,1-1.158a41.461,41.461,0,0,1,2.141-3.636c-1.341-1.534-2.193-3.558-3.706-4.944-1.628-1.492-5.034-.331-6.287-2.224s-.277-4.856-.437-6.911c-.1-1.28-.642-1.743-.366-3.121.23-1.15,1.546-3.637,1.042-4.636-.493-.976-2.4-.7-2.9-1.852-.432-1.01.707-4.594-1.25-4.092-.235.443-1.146,1.43-1.781,1.2-.321-.116-.7-1.456-1-1.771,1.333-.643,2.576-.162,3.916-.321,1.221-.145,1.114-.771,2.016-1.331a11.7,11.7,0,0,1,2.034-.742c1.531-.447,2.886.614,4.395-.724a7.094,7.094,0,0,0,2.2-3.88c1.642-.3,2.018.98,3.327,1.409,1.158.38,2.627-.241,3.817.025,1.443.323,1.479,1.211,2.442,2.337,1.35,1.58,1.591.679,3.057.175,1.109-.381,2.717.285,3.383-.73a26.365,26.365,0,0,0,.526-2.971c-.094-1.663-.935-.684-2.019-1.545a3.439,3.439,0,0,1-.71-3.376c1.083-.045,1.863.767,2.711,1.192a25.555,25.555,0,0,1,3.18,1.856,6.4,6.4,0,0,0,.732-2.648c-.055-.549-.624-.436-.648-1.02-.009-.226.487-.937.56-1.274a4.287,4.287,0,0,0-.579-2.769,4.514,4.514,0,0,1-.571-2.591c1.668-.225.542-2.436.568-3.377A3.032,3.032,0,0,1,885.357-672.212Z" transform="translate(-403.886 -235.425)" fill="#fff" stroke="#7ac4e0" stroke-miterlimit="10" stroke-width="1"/>
      <path id="Path_113" data-name="Path 113" d="M360.558-824.309c-.647-2.3-1.385-2.464-3.555-3.006-1.175-.294-3.617-1.693-3.33-3.064a13.1,13.1,0,0,1-2.164-1.193c-.448-.357-.3-.572-.947-.876-.548-.257-1.052.045-1.641-.32-1.009-.627-.788-1.089-2.07-1.278a2.727,2.727,0,0,0-2.631.876c-.014-1.41-.842-.506-1.33-1-.539-.55-.64-1.181-1.239-1.727-.919-.837-3.046-.238-3.653-1.053-1.03-1.383,1.59-1.724,1.732-3.055.164-1.536-1.594-1.993-2.668-2.628,1.328-1,.847-2.564.932-4.2a6.454,6.454,0,0,0,3.336-.786,4,4,0,0,1,1.307-.554c.645-.167,1.1.057,1.9-.472,2.2-1.459-.231-3.69.153-5.911,1.209-.194.178,1.272,1.411,1.135-.106-.345.009-.933-.1-1.277,1.11.123,2.732.108,2.284-1.594a15.638,15.638,0,0,1-1.539-.757c-.507-.182-1.589-.06-1.967-.285-1.536-.913.509-1.747.3-2.761-.267-1.318-2.456-1.451-3.47-1.463a6.816,6.816,0,0,1-3.9-.894,4.114,4.114,0,0,0-1.779-.852,6.546,6.546,0,0,1-2.068-.437c-1.294-.606-2.483-1.259-3.713-1.969a9.36,9.36,0,0,0-3.986-1.063c-.572,0-.855.434-1.727.3-.743-.115-1.2-.607-2.024-.494a3.815,3.815,0,0,0-1.764-.994c-.28-.109-.727.151-.986-.011-.467-.292-.3-.982-.649-1.3-1.015-.933-2.846-.261-4.109-.7L314.2-870c.646,2.813-3.387,3.683-2.882,6.749.073.444.852.6.951,1.355a4.46,4.46,0,0,1-.387,1.606c-.768,1.325-1.968.828-3.085,1.778.112,1.6.617,2.936-.022,4.617a12.529,12.529,0,0,1-1.406,2.93c-.757.8-1.972.543-2.638,1.145-.635.573-.2,1.2-.651,1.713-.507.58-1.4.867-1.943,1.4a16.13,16.13,0,0,0-2.006,2.307c-.693,1.077-.788,2.034-1.452,3.086-.267.423-1.087.219-1.353.656-.183.3.165.841,0,1.129a18.74,18.74,0,0,1-1.16,1.937c-.692.939-1.268,1.266-1.568,2.523-.14.589.092,1.793-.037,2.178-1,2.982-5.895,1.865-7.515,4.817a19.116,19.116,0,0,0,3.085.574c.653.163,1.193-.275,1.58.38a.615.615,0,0,1-.228.971c1.647-.044,1.979.326,3.111,1.711,1.2,1.471,2.746,1.875,4.475,2.368,1.879.535,4.027.455,5.822,1.406,1.751.928,3.515,2.215,5.093,3.223,6.361,4.063,10.238,12.471,10.239,20.221,0,2.877.869,4.394,1.508,6.982.57,2.31.457,4.549,1.455,6.749.24-2.227,1.879-3.189,2.083-5.39.225-2.44.992-3.5,2.518-5.225a69.955,69.955,0,0,0,4.852-5.8c.639-.9,1.2-1.779,1.9-2.609.932-1.1,1.192-.743,2.22-1.3,3.908-2.1,3.789-7.617,7.735-9.878.825-.473,2.091-.822,2.626-1.717.291-.488-.137-1.134.068-1.616.33-.778.667-.895,1.131-1.569a13.431,13.431,0,0,1,1.553-2.15c-.193,0,1.5,1.591,1.833,1.769a7.052,7.052,0,0,0,2.915.441c1.206.131,2.94,1.061,4.032.941,2.458-.271,2.558-2.689,2.742-4.595.085-.882.508-1,.228-2.2-.042-.181-.086-.352-.13-.516A1.678,1.678,0,0,1,360.558-824.309Z" transform="translate(-61.875 -105.624)" fill="#fff" stroke="#7ac4e0" stroke-miterlimit="10" stroke-width="1"/>
      <path id="Path_114" data-name="Path 114" d="M222.645-646.939l-.035-.1c-.016-.046-.031-.09-.043-.132a15.855,15.855,0,0,1-.268-2.373c-.095-.709-.057-1.414-.093-2.136-.032-.649-.367-1.6-.095-2.22.438-1,2.712-2.022,3.685-2.54,1.065-.567,1.192.2,2.081.328a2.544,2.544,0,0,0,.89-.134,5.338,5.338,0,0,1-.868-.462,8.487,8.487,0,0,1-3.421-3.461c-1.141-2.566-3.523-5.412-2.31-8.4.606-1.494,1.389-2.858,1.874-4.419a5.46,5.46,0,0,1,2.913-3.238c.748-.424,1.635-.842,2.382-1.359.652-.452,1.021-1.118,1.784-1.37.732-.243,1.583-.038,2.33-.231a5.582,5.582,0,0,0,1.966-1c.513-.373,1.1-1.237,1.655-1.466a4.061,4.061,0,0,1,1.921.14,27.472,27.472,0,0,1,4.347.665,5.405,5.405,0,0,0,1.81,3.609c.8.858,1.964,1.334,2.8,2.11a10.1,10.1,0,0,1,2.167,3.443c.194.489.409,1.15.588,1.681.159.474.113,1.166.431,1.589,0,0,4.294,3.857,1.439,7.872-.423.6-.668,1.275.262,1.649.761.307,1.522.156,2.307.6,1.314.737,1.66,2.5,1.814,3.928.093.857.634,1.484.728,2.328,0,.031.005.207.008.238a2.852,2.852,0,0,0,1.2.636h.077a11.8,11.8,0,0,0-1.049-4.154c-.256-.656-.634-1.367-.915-2.006-.336-.763-.671-1.586-1.014-2.334-1.29-2.808-1.3-6.207-2.756-8.956-.638-1.2-1.927-2.655-2.218-3.978a13.016,13.016,0,0,0-1.756-4.659,18.171,18.171,0,0,0-3.518-3.215c-.673-.562-1.4-1-2.058-1.566a11.215,11.215,0,0,0-2.048-1.644c-.666-.325-1.534-.442-2.256-.765a6.462,6.462,0,0,0-1.824-.556,6.433,6.433,0,0,1-3.813-2.231c-.342-.556-.049-1.279-.22-1.9-.235-.847-.971-.947-1.763-.913a5.026,5.026,0,0,0-1.3.327,8.486,8.486,0,0,0-1.071.13c-.475.253-.646,1.417-1.143,1.914a18.912,18.912,0,0,1-1.855,1.372,9.232,9.232,0,0,0-1.51,1.771,22.66,22.66,0,0,1-3.208,3.484c-1.259,1.058-2.469,2.164-3.843,3.112-.767.53-1.5,1.14-2.2,1.724-.915.759-.9.907-.242,1.929a3.811,3.811,0,0,1,.691,2.419c-.472-.143-.873-1.453-1.288-1.906-.732-.8-1.364-.444-2.146.138a43.3,43.3,0,0,1-4.412,2.772,29.227,29.227,0,0,1-4.206,2.274c-1.393.51-2.841.973-4.263,1.4-.113.833.494,1.282.829,1.971s.388,1.418.744,2.075c.67,1.239,1.543,2.331,2.278,3.512.38.61.765,1.136,1.151,1.68a9.923,9.923,0,0,0,1.157,1.688c.6.514,1.2.305,1.514,1.159.375,1.015.118,1.145,1.382,1.217a4.016,4.016,0,0,0,1.294,1.657,3.2,3.2,0,0,0,.862.781c.339.152.84-.084,1.159.071.4.192.518,1.171.669,1.683.161.546.238.5-.136,1.076-.17.263-.7.609-.538.992s.669.158.963.226c.677.157.44.127.707.629a1.8,1.8,0,0,0,.693.807c.229.191.555.368.669.646.173.422.079.827.287,1.267s.443.8.66,1.235c.353.7.968,1.381,1.132.23.089-.625-.182-1.421-.141-2.1a7.26,7.26,0,0,1,.963,2.163c.2.545.964,1.493.861,2.071-.086.481-.429.4-.532.831.288.03.369.191.542.322a1.863,1.863,0,0,0-.157.294c.5.033.433.4,0,.481.279.6.779.369,1.277.152a.531.531,0,0,1-.668.612c.3.475.107.931.07,1.5-.031.477-.117,1.133-.16,1.536-.058.536.055,1.093.006,1.631-.072.777-.642,1.037-.778,1.655-.095.006-.185,0-.279,0-.107-.488-.113-1.051-.566-1.368.048-.056.112-.089.144-.128-.323-.651-.616-.313-1.051-.718,0,.194.107.76.15,1.066-.36-.084-1.525-.481-1.77-.3-.777.588.892.945.874,1.446.109.043.454.123.524.22.038.053.193.361.229.4.282.307.177.427.736.542a2.206,2.206,0,0,1,.011.888c-.136.345-.521.406-.676.786-.184.452.16,1.46.622,1.521.057-.17-.014-.55.069-.7.152-.271.368-.3.6-.589a3.063,3.063,0,0,0,.663-1.569c.23,1.155.351,1.835,1.789,1.706.021-.457-.318-.636-.449-1a3.5,3.5,0,0,1-.063-1.272c.114.084.313.069.447.23.334-.331.688-.993,1.215-.941-.426-.554-.628-1.015.237-1.288.8-.253,1.33,0,1.448-1.133-.493-.175-.981-.119-1.44-.332-.119-.723.036-2.063,1-1.656.095-.458.494-.622.6-1.079a5.877,5.877,0,0,0-.068-1.215c.205.034.482-.059.671-.04.047-1.162-.763-1.144-.982-2.089-.163-.7.132-.865-.377-1.555-.283-.384-.611-.749-.862-1.153a1.37,1.37,0,0,1,1,.392v-.077c-.291-.406.164-1.038-.091-1.469-.158-.268-.443-.291-.6-.571a2.9,2.9,0,0,1-.095-1.083c.833.133.77-.429.588-.982-.042-.128-.08-.254-.122-.373C222.642-646.92,222.648-646.929,222.645-646.939Z" transform="translate(0 -233.186)" fill="#fff" stroke="#7ac4e0" stroke-miterlimit="10" stroke-width="1"/>
      <path id="Path_115" data-name="Path 115" d="M321.321-541.428c-.5-.151-.441-.456-.647-.831a1.837,1.837,0,0,0-.725-.852,5.7,5.7,0,0,0-1.893-.749c-.667-.207-1.143-.626-1.809-.777A7.136,7.136,0,0,1,314-545.646a7.213,7.213,0,0,1-3.433-6.759c-.28.437-.778,1.126-.577,1.726.045.133.356.147.435.378a2.517,2.517,0,0,1-.009.489c.03.369.118.836-.28.959a2.31,2.31,0,0,0-.012.624c.009.026.019.051.028.078.677-.111,1.251.7,1.127,1.316-1.019.161-.881-.482-1.1-1.23-.009-.03-.021-.056-.03-.086l-.019,0c0-.024-.006-.053-.009-.08-.2-.585-.5-1.083-.708-1.65-.291-.8.271-1.337.508-2.116.2-.658.465-1.33.708-1.958.306-.79.493-1.552.749-2.354a4.417,4.417,0,0,1,.254-.916c.255-.318.483-.27.821-.448a7.763,7.763,0,0,0,2.054-1.367c.348-.6.064-.259-.295-.524-.3-.219-.591-.447-.886-.7a5.9,5.9,0,0,1-1.525-1.694c-.195.267-.5,1.124-.875,1.26-.687.25-.224-.5-.091-.8.194-.436.421-.862.579-1.29.182-.494.138-1,.3-1.467.23-.663.488-.607.518-1.353a6.8,6.8,0,0,1,.071-1.531c.23-.823,1.293-1.256,1.424-2.1a.665.665,0,0,0-.108-.589c-.112-.133-.285-.236-.472-.457l0,.143a2.919,2.919,0,0,1,.008.308h-.077a2.852,2.852,0,0,1-1.2-.636,4.415,4.415,0,0,1-.21,1.935,11.205,11.205,0,0,1-2.218,3.395c-1.077,1.275-1.785,2.272-3.548,2.44a18.643,18.643,0,0,1-5-.353,17.086,17.086,0,0,1-8.1-3.429c-2.482-2.2-3.248-5.775-6.336-7.19-1.083-.5-2.4-.75-3.51-1.233a2.547,2.547,0,0,1-.89.133c-.89-.132-1.016-.9-2.081-.328-.973.517-3.247,1.54-3.685,2.539-.272.621.063,1.571.095,2.22.036.722,0,1.427.093,2.136a15.851,15.851,0,0,0,.268,2.373c.012.041.027.086.043.132l.035.1.011.029c.043.118.089.245.132.373v0a1.548,1.548,0,0,1,.907,1.251c.065.292.223.507.28.728a12.586,12.586,0,0,1,.229,1.606c.067.507.011,1.229.793.86,0,0,.286-.515.319-.556.12-.151.327-.033.4-.187a.726.726,0,0,1,.019-.248.487.487,0,0,1-.019.248.531.531,0,0,0,.445.475c.024.429-.22,1.33.422,1.236-.023.124.069.352.036.491a1.124,1.124,0,0,0,.471,0c-.128-.786.279-.5.537-.065a3.12,3.12,0,0,1,.364,1.309c.015.46-.192.489.132,1.018.256.419.493.712,1.047.438-.054-.021-.158-.054-.224-.083-.059-.434.271-.992.721-.658.4.293-.038.533-.153.942-.147.525-.387,1.7-.053,2.127-.914-.695-1.882-3.3-3.49-2.982.358-.04.431.231.357.555.32.018.819.76,1.008,1.046.4.611.284.7-.212,1.227.82.057.617-.043.956.575a2.6,2.6,0,0,1,.417,1.105c-.329.253-.734.341-1.083.569-.606.4-.463.3-.366.947.021.143-.042.314,0,.453.045.161.261.3.28.433.056.38-.135.727-.064,1.093a3.251,3.251,0,0,0,1.388,1.742c.24.132.62.091.859.293.106.09-.014.36.155.5a4.555,4.555,0,0,0,.493.3,6.824,6.824,0,0,0,1.026-1.219,3.546,3.546,0,0,1-.131.955,3.182,3.182,0,0,0-.151.7c0,.134.167.189.147.38-.125,1.194-.8.121-1.283-.1.027-.142-.077-.4-.038-.559-.835-.134-1.3-1.482-2.085-1.673a5.208,5.208,0,0,0-.1,1.508c-.942.392-1.215-.956-1.789-1.447-.452-.387-1.794-.753-1.835-1.37.13.033.316,0,.441.039-.054-.385-.378-.5-.725-.4.081.567-.521.445-.92.421.547.46.464.816.615,1.406.145.567.644,1.074.1,1.645a4.017,4.017,0,0,0,1.344.157c-.2.064-.144.112-.271.209.888-.028-.33.944-.441,1.247-.076.21-.026.62-.156.8-.153.216-.631.321-.84.493a2.282,2.282,0,0,0,2.019-.636c-.012.782.761.416,1.293.42.05-.14.178-.268.217-.4-.1.9.445.87,1.107,1a1.431,1.431,0,0,1,.746.3c.091.06.146.314.271.409s.356,0,.495.088c.482.292.876.984,1.321,1.4a6.022,6.022,0,0,1,.811.717c.209.275.27.643.593.873a10.4,10.4,0,0,0,2.036.8,4.627,4.627,0,0,0,2.171.2,23.7,23.7,0,0,1,4.438-.2c1.329.119.99.924,1.581,1.838.456.706.439.357,1.112.182.7-.182.678.025,1.109.511a1.614,1.614,0,0,0,1.09.673c.594,0,1.03-.433.933-.859-.085-.374-.889-.492-.059-.895.377-.183,1.306.319,1.159-.493.851-.135.757.607,1.516-.078-.468-.967,1.35-.339,1.765-.877a.215.215,0,0,1,.048-.069.215.215,0,0,0-.048.069,8.566,8.566,0,0,0-.167,2.985c.335,1.065,1.47.8,2.05,1.308-.114.063-.227.233-.372.289.414.414,1.437,2.221,1.969,1.33.12-.2-.063-.539.009-.678.111-.215.288-.261.44-.45a1.839,1.839,0,0,0,.561-1.127c.39.06.855.434,1.248.2.141-.083.214-.508.337-.658.213-.259.491-.368.7-.588.3-.328.4-.743.7-1.07a6.882,6.882,0,0,1,1.3-1.054,2.248,2.248,0,0,1,2.567.378,3.347,3.347,0,0,1,.946.8c.2.358-.008.949.641.79a1.248,1.248,0,0,0,.236-.778c.771.075.786-.414,1.359-.748.609-.355.763-.047.817-.935.033-.555-.054-1.123,0-1.676.052-.528.408-.9.3-1.428C320.875-541.115,321.566-540.531,321.321-541.428Z" transform="translate(-54.188 -314.535)" fill="#fff" stroke="#7ac4e0" stroke-miterlimit="10" stroke-width="1"/>
      <path id="Path_213" data-name="Path 213" d="M1550.361-600c-1.639,2.572,6.007,5.554,7.813,4.61-.738.386,2.694,4.547,2.984,4.891.478.567,1.687,1.595,1.845,2.327.171.8-.8,1.679-1.185,2.331-.42.706-.788,1.591-1.225,2.327a6.894,6.894,0,0,1-4.453,3.282,2.916,2.916,0,0,0-2.21,2.027c-.384.865-1.143,1.708-1.53,2.473-.577,1.141-.593,1.872-1.707,2.737a13.565,13.565,0,0,1-3.058,1.483c-.534.236-1.051.632-1.614.823a10.241,10.241,0,0,0-1.941.453,21.112,21.112,0,0,0-2.294,2.069,6.049,6.049,0,0,1-2.5,1.568,10.135,10.135,0,0,1-5.716-.6c-1.284-.6-2.463-1.249-3.683-1.954a9.292,9.292,0,0,0-3.956-1.055c-.568,0-.849.431-1.715.3-.738-.115-1.194-.6-2.01-.49a3.787,3.787,0,0,0-1.751-.986c-.278-.108-.721.15-.979-.011-.464-.289-.3-.975-.644-1.289-1.112-1.022-3.215-.1-4.453-.868-1.624-1.009,1.65-2.052,2.477-2.78.738-.65.189-.8,1.4-1.007a16.223,16.223,0,0,1,2.915.144c3.117.132,6.672-.6,8.5-3.36a23.474,23.474,0,0,0,1.452-2.179c.31-.638.1-1.63.452-2.319.381-.742.751-.821,1.018-1.646.26-.806.037-1.537.547-2.335a7.438,7.438,0,0,1,3.463-2.838c1.59-.676,2.87-1.843,4.467-2.557,1.548-.692,3.064-1.523,4.52-2.2,1.4-.649,3.261-1.4,4.2-2.643Z" transform="translate(-1261.727 -402.856)" fill="#7ac4e0" stroke="#fff" stroke-miterlimit="10" stroke-width="1" fill-rule="evenodd"/>
    </g>
    <g id="maps-and-flags" transform="translate(9816.547 -291.455)">
      <path id="Path_216" data-name="Path 216" d="M73.974,8.411c0,6.735-7.6,12.973-7.6,12.973a1.33,1.33,0,0,1-1.616,0s-7.6-6.238-7.6-12.973a8.411,8.411,0,0,1,16.823,0Z" transform="translate(0)" fill="#ee3840" stroke="#fff" stroke-width="1"/>
      <path id="Path_217" data-name="Path 217" d="M159.1,105.092a3.143,3.143,0,1,1,3.143-3.143A3.147,3.147,0,0,1,159.1,105.092Z" transform="translate(-93.54 -93.538)" fill="#fff"/>
    </g>
  </g>
</svg>
